<svg width="34" height="28" viewBox="0 0 34 28" fill="none" xmlns="http://www.w3.org/2000/svg">
<g clip-path="url(#clip0_397_1177)">
<path d="M21.5584 3.78223H12.5262V20.0011H21.5584V3.78223Z" fill="#FF5F00"/>
<path d="M13.0997 11.8919C13.0982 10.3299 13.4525 8.78805 14.1355 7.38307C14.8186 5.97809 15.8126 4.74681 17.0423 3.78245C15.5195 2.5864 13.6907 1.8426 11.7648 1.63606C9.83899 1.42951 7.89385 1.76855 6.15173 2.61443C4.40962 3.46032 2.94081 4.77891 1.9132 6.4195C0.885599 8.06008 0.34066 9.95646 0.34066 11.8919C0.34066 13.8273 0.885599 15.7237 1.9132 17.3643C2.94081 19.0049 4.40962 20.3235 6.15173 21.1694C7.89385 22.0152 9.83899 22.3543 11.7648 22.1477C13.6907 21.9412 15.5195 21.1974 17.0423 20.0013C15.8126 19.037 14.8186 17.8057 14.1356 16.4007C13.4525 14.9957 13.0983 13.4539 13.0997 11.8919Z" fill="#EB001B"/>
<path d="M33.7434 11.8919C33.7435 13.8273 33.1986 15.7237 32.171 17.3643C31.1435 19.0048 29.6747 20.3234 27.9326 21.1693C26.1906 22.0152 24.2455 22.3543 22.3196 22.1477C20.3938 21.9412 18.565 21.1974 17.0423 20.0013C18.2709 19.036 19.2641 17.8045 19.9471 16.3998C20.63 14.995 20.9849 13.4536 20.9849 11.8919C20.9849 10.3301 20.63 8.78878 19.9471 7.38402C19.2641 5.97926 18.2709 4.74779 17.0423 3.78244C18.565 2.5864 20.3938 1.8426 22.3196 1.63606C24.2455 1.42951 26.1906 1.76857 27.9326 2.61446C29.6747 3.46035 31.1435 4.77894 32.171 6.41953C33.1986 8.06012 33.7435 9.95649 33.7434 11.8919Z" fill="#F79E1B"/>
<path d="M32.7585 18.2841V17.9521H32.8925V17.8844H32.5513V17.9521H32.6853V18.2841H32.7585ZM33.421 18.2841V17.8838H33.3165L33.1961 18.1592L33.0758 17.8838H32.9711V18.2841H33.045V17.9821L33.1578 18.2425H33.2344L33.3472 17.9815V18.2841H33.421Z" fill="#F79E1B"/>
<path d="M6.88962 27.6182H6.34162V26.1585C6.34162 25.916 6.30176 25.7384 6.22205 25.6254C6.14234 25.5125 6.0261 25.4561 5.87333 25.4561C5.72055 25.4561 5.57774 25.5142 5.44489 25.6304C5.31536 25.7433 5.22403 25.8911 5.17089 26.0738V27.6182H4.62289V26.1585C4.62289 25.916 4.58303 25.7384 4.50332 25.6254C4.42361 25.5125 4.30903 25.4561 4.15958 25.4561C4.0068 25.4561 3.86399 25.5125 3.73114 25.6254C3.60161 25.7384 3.50862 25.8861 3.45216 26.0688V27.6182H2.90416V25.0127H3.40234V25.5358C3.5053 25.3531 3.63981 25.2136 3.80587 25.1173C3.97525 25.0176 4.16788 24.9678 4.38376 24.9678C4.59964 24.9678 4.76902 25.0243 4.89191 25.1372C5.01811 25.2501 5.09616 25.3913 5.12605 25.5607C5.23897 25.368 5.3768 25.2219 5.53954 25.1223C5.7056 25.0193 5.89491 24.9678 6.10747 24.9678C6.26025 24.9678 6.38811 24.9961 6.49107 25.0525C6.59403 25.109 6.67374 25.187 6.7302 25.2867C6.78666 25.383 6.82652 25.4959 6.84976 25.6254C6.87633 25.7516 6.88962 25.8861 6.88962 26.029V27.6182ZM7.60856 26.8559C7.60856 26.6899 7.65506 26.5454 7.74805 26.4225C7.84437 26.2963 7.97556 26.2 8.14162 26.1336C8.30768 26.0638 8.50031 26.029 8.71951 26.029C8.83575 26.029 8.95366 26.0373 9.07322 26.0539C9.19611 26.0705 9.30404 26.097 9.39704 26.1336V25.9692C9.39704 25.7865 9.34224 25.6437 9.23264 25.5407C9.12304 25.4378 8.96528 25.3863 8.75936 25.3863C8.61323 25.3863 8.4754 25.4129 8.34587 25.466C8.21635 25.5158 8.07852 25.5872 7.93238 25.6802L7.74805 25.3116C7.92076 25.1953 8.09346 25.109 8.26616 25.0525C8.44219 24.9961 8.62652 24.9678 8.81915 24.9678C9.16787 24.9678 9.44188 25.0608 9.64115 25.2468C9.84374 25.4295 9.94504 25.6902 9.94504 26.029V27.0004C9.94504 27.0635 9.955 27.1084 9.97493 27.1349C9.99818 27.1615 10.0364 27.1764 10.0895 27.1798V27.6182C10.0397 27.6281 9.99486 27.6348 9.955 27.6381C9.91515 27.6414 9.88194 27.6431 9.85537 27.6431C9.73912 27.6431 9.65111 27.6148 9.59133 27.5584C9.53155 27.5019 9.49668 27.4355 9.48671 27.3591L9.47177 27.2097C9.35884 27.3558 9.21437 27.4687 9.03835 27.5484C8.86232 27.6281 8.68464 27.668 8.50529 27.668C8.33259 27.668 8.17815 27.6331 8.04198 27.5634C7.90581 27.4903 7.79953 27.3923 7.72314 27.2694C7.64676 27.1466 7.60856 27.0087 7.60856 26.8559ZM9.26751 27.0154C9.30737 26.9722 9.33892 26.929 9.36217 26.8858C9.38541 26.8427 9.39704 26.8045 9.39704 26.7713V26.4723C9.30404 26.4358 9.20607 26.4092 9.10311 26.3926C9.00015 26.3727 8.89886 26.3627 8.79922 26.3627C8.59995 26.3627 8.43721 26.4026 8.311 26.4823C8.18812 26.562 8.12667 26.6716 8.12667 26.8111C8.12667 26.8875 8.1466 26.9606 8.18645 27.0303C8.22963 27.1001 8.28941 27.1565 8.3658 27.1997C8.44551 27.2429 8.54349 27.2645 8.65973 27.2645C8.77929 27.2645 8.89387 27.2412 9.00347 27.1947C9.11307 27.1482 9.20109 27.0884 9.26751 27.0154ZM11.8133 27.668C11.5941 27.668 11.3865 27.6331 11.1905 27.5634C10.9946 27.4903 10.8269 27.3824 10.6874 27.2395L10.8916 26.8709C11.0411 27.0037 11.1905 27.1001 11.34 27.1598C11.4928 27.2196 11.6439 27.2495 11.7933 27.2495C11.9461 27.2495 12.0707 27.2213 12.167 27.1648C12.2633 27.105 12.3115 27.0187 12.3115 26.9058C12.3115 26.8227 12.2865 26.7613 12.2367 26.7214C12.1869 26.6816 12.1138 26.6467 12.0175 26.6168C11.9245 26.5869 11.8116 26.5537 11.6788 26.5172C11.4928 26.4607 11.3367 26.4026 11.2105 26.3428C11.0843 26.2797 10.9896 26.2033 10.9265 26.1137C10.8634 26.024 10.8318 25.9094 10.8318 25.7699C10.8318 25.6005 10.875 25.4561 10.9614 25.3365C11.0477 25.2169 11.1673 25.1256 11.3201 25.0625C11.4762 24.9994 11.6555 24.9678 11.8581 24.9678C12.0474 24.9678 12.2218 24.9977 12.3812 25.0575C12.5439 25.114 12.6867 25.2036 12.8096 25.3265L12.5755 25.6902C12.4592 25.5839 12.3397 25.5059 12.2168 25.4561C12.0972 25.4062 11.9677 25.3813 11.8282 25.3813C11.7485 25.3813 11.6721 25.3913 11.5991 25.4112C11.526 25.4278 11.4645 25.461 11.4147 25.5109C11.3682 25.5573 11.345 25.6238 11.345 25.7101C11.345 25.7799 11.3649 25.8363 11.4048 25.8795C11.4446 25.9227 11.5044 25.9592 11.5841 25.9891C11.6638 26.019 11.7618 26.0522 11.878 26.0887C12.0806 26.1485 12.2533 26.2083 12.3961 26.2681C12.539 26.3245 12.6486 26.3993 12.7249 26.4923C12.8047 26.5819 12.8445 26.7065 12.8445 26.8659C12.8445 27.1183 12.7499 27.3159 12.5605 27.4587C12.3746 27.5982 12.1255 27.668 11.8133 27.668ZM15.0554 27.4837C15.0089 27.5069 14.9508 27.5318 14.881 27.5584C14.8113 27.585 14.7316 27.6082 14.6419 27.6281C14.5555 27.6481 14.4659 27.658 14.3729 27.658C14.26 27.658 14.1553 27.6381 14.059 27.5982C13.9627 27.5584 13.8847 27.4953 13.8249 27.4089C13.7684 27.3193 13.7402 27.2047 13.7402 27.0652V25.4361H13.3964V25.0127H13.7402V24.1558H14.2882V25.0127H14.8561V25.4361H14.2882V26.8908C14.2948 26.9805 14.3231 27.0469 14.3729 27.0901C14.426 27.1333 14.4908 27.1549 14.5672 27.1549C14.6436 27.1549 14.7166 27.1416 14.7864 27.115C14.8561 27.0884 14.9076 27.0668 14.9408 27.0502L15.0554 27.4837ZM16.8584 27.668C16.6558 27.668 16.4714 27.6331 16.3054 27.5634C16.1426 27.4903 16.0015 27.3923 15.8819 27.2694C15.7623 27.1432 15.6694 27.0004 15.6029 26.841C15.5398 26.6783 15.5083 26.5056 15.5083 26.3229C15.5083 26.0771 15.5647 25.8529 15.6777 25.6503C15.7906 25.4444 15.9483 25.28 16.1509 25.1571C16.3535 25.0309 16.591 24.9678 16.8633 24.9678C17.1357 24.9678 17.3698 25.0309 17.5658 25.1571C17.765 25.28 17.9195 25.4428 18.0291 25.6454C18.1387 25.848 18.1935 26.0655 18.1935 26.298C18.1935 26.3378 18.1918 26.376 18.1885 26.4126C18.1852 26.4458 18.1819 26.474 18.1785 26.4973H16.0911C16.1011 26.65 16.1426 26.7845 16.2157 26.9008C16.2921 27.0137 16.3884 27.1034 16.5046 27.1698C16.6209 27.2329 16.7454 27.2645 16.8783 27.2645C17.0244 27.2645 17.1622 27.2279 17.2918 27.1549C17.4246 27.0818 17.5143 26.9855 17.5608 26.8659L18.0291 27.0004C17.9726 27.1266 17.8863 27.2412 17.77 27.3442C17.6571 27.4438 17.5226 27.5235 17.3665 27.5833C17.2104 27.6398 17.041 27.668 16.8584 27.668ZM16.0762 26.1336H17.6505C17.6405 25.9841 17.5973 25.8529 17.5209 25.74C17.4479 25.6238 17.3532 25.5341 17.237 25.471C17.124 25.4046 16.9978 25.3714 16.8584 25.3714C16.7222 25.3714 16.596 25.4046 16.4797 25.471C16.3668 25.5341 16.2738 25.6238 16.2007 25.74C16.1277 25.8529 16.0862 25.9841 16.0762 26.1336ZM20.3819 25.4859C20.1693 25.4893 19.98 25.5374 19.814 25.6304C19.6512 25.7234 19.535 25.8546 19.4653 26.024V27.6182H18.9173V25.0127H19.4254V25.5955C19.5151 25.4162 19.633 25.2734 19.7791 25.1671C19.9252 25.0575 20.0797 24.9977 20.2424 24.9878C20.2756 24.9878 20.3022 24.9878 20.3221 24.9878C20.3454 24.9878 20.3653 24.9894 20.3819 24.9927V25.4859ZM22.1894 27.668C21.9868 27.668 21.8025 27.6331 21.6364 27.5634C21.4737 27.4903 21.3325 27.3907 21.2129 27.2645C21.0934 27.1382 21.0004 26.9938 20.934 26.831C20.8709 26.6683 20.8393 26.4956 20.8393 26.3129C20.8393 26.0672 20.8941 25.843 21.0037 25.6404C21.1166 25.4378 21.2727 25.275 21.472 25.1522C21.6746 25.0293 21.9137 24.9678 22.1894 24.9678C22.4551 24.9678 22.6859 25.0276 22.8819 25.1472C23.0811 25.2634 23.2273 25.4195 23.3203 25.6155L22.7872 25.7849C22.7274 25.6753 22.6427 25.5906 22.5331 25.5308C22.4268 25.4677 22.3089 25.4361 22.1794 25.4361C22.0333 25.4361 21.9004 25.4743 21.7809 25.5507C21.6646 25.6238 21.5716 25.7267 21.5019 25.8596C21.4355 25.9891 21.4023 26.1402 21.4023 26.3129C21.4023 26.479 21.4371 26.6301 21.5069 26.7663C21.5766 26.8991 21.6696 27.0054 21.7859 27.0851C21.9054 27.1615 22.0383 27.1997 22.1844 27.1997C22.2741 27.1997 22.3604 27.1847 22.4435 27.1549C22.5298 27.1216 22.6045 27.0785 22.6676 27.0253C22.7307 26.9689 22.7756 26.9074 22.8021 26.841L23.3402 27.0004C23.2837 27.1299 23.199 27.2445 23.0861 27.3442C22.9765 27.4438 22.8453 27.5235 22.6925 27.5833C22.5431 27.6398 22.3754 27.668 22.1894 27.668ZM23.879 26.8559C23.879 26.6899 23.9255 26.5454 24.0185 26.4225C24.1148 26.2963 24.246 26.2 24.412 26.1336C24.5781 26.0638 24.7707 26.029 24.9899 26.029C25.1062 26.029 25.2241 26.0373 25.3436 26.0539C25.4665 26.0705 25.5744 26.097 25.6674 26.1336V25.9692C25.6674 25.7865 25.6126 25.6437 25.503 25.5407C25.3934 25.4378 25.2357 25.3863 25.0298 25.3863C24.8836 25.3863 24.7458 25.4129 24.6163 25.466C24.4867 25.5158 24.3489 25.5872 24.2028 25.6802L24.0185 25.3116C24.1912 25.1953 24.3639 25.109 24.5366 25.0525C24.7126 24.9961 24.8969 24.9678 25.0896 24.9678C25.4383 24.9678 25.7123 25.0608 25.9116 25.2468C26.1141 25.4295 26.2154 25.6902 26.2154 26.029V27.0004C26.2154 27.0635 26.2254 27.1084 26.2453 27.1349C26.2686 27.1615 26.3068 27.1764 26.3599 27.1798V27.6182C26.3101 27.6281 26.2653 27.6348 26.2254 27.6381C26.1856 27.6414 26.1523 27.6431 26.1258 27.6431C26.0095 27.6431 25.9215 27.6148 25.8617 27.5584C25.802 27.5019 25.7671 27.4355 25.7571 27.3591L25.7422 27.2097C25.6292 27.3558 25.4848 27.4687 25.3088 27.5484C25.1327 27.6281 24.955 27.668 24.7757 27.668C24.603 27.668 24.4486 27.6331 24.3124 27.5634C24.1762 27.4903 24.0699 27.3923 23.9935 27.2694C23.9172 27.1466 23.879 27.0087 23.879 26.8559ZM25.5379 27.0154C25.5778 26.9722 25.6093 26.929 25.6326 26.8858C25.6558 26.8427 25.6674 26.8045 25.6674 26.7713V26.4723C25.5744 26.4358 25.4765 26.4092 25.3735 26.3926C25.2706 26.3727 25.1693 26.3627 25.0696 26.3627C24.8704 26.3627 24.7076 26.4026 24.5814 26.4823C24.4585 26.562 24.3971 26.6716 24.3971 26.8111C24.3971 26.8875 24.417 26.9606 24.4569 27.0303C24.5 27.1001 24.5598 27.1565 24.6362 27.1997C24.7159 27.2429 24.8139 27.2645 24.9301 27.2645C25.0497 27.2645 25.1643 27.2412 25.2739 27.1947C25.3835 27.1482 25.4715 27.0884 25.5379 27.0154ZM28.6217 25.4859C28.4092 25.4893 28.2198 25.5374 28.0538 25.6304C27.891 25.7234 27.7748 25.8546 27.7051 26.024V27.6182H27.1571V25.0127H27.6652V25.5955C27.7549 25.4162 27.8728 25.2734 28.0189 25.1671C28.165 25.0575 28.3195 24.9977 28.4822 24.9878C28.5154 24.9878 28.542 24.9878 28.5619 24.9878C28.5852 24.9878 28.6051 24.9894 28.6217 24.9927V25.4859ZM29.0938 26.3179C29.0938 26.0688 29.1436 25.843 29.2433 25.6404C29.3462 25.4345 29.4857 25.2717 29.6617 25.1522C29.8378 25.0293 30.0404 24.9678 30.2695 24.9678C30.4688 24.9678 30.6481 25.0193 30.8076 25.1223C30.9703 25.2252 31.0965 25.3531 31.1862 25.5059V23.9814H31.7342V27.0004C31.7342 27.0635 31.7458 27.1084 31.7691 27.1349C31.7923 27.1615 31.8305 27.1764 31.8836 27.1798V27.6182C31.7807 27.6348 31.701 27.6431 31.6445 27.6431C31.5416 27.6431 31.4535 27.6132 31.3805 27.5534C31.3107 27.4936 31.2742 27.4222 31.2709 27.3392L31.2659 27.1449C31.1663 27.311 31.0317 27.4405 30.8624 27.5335C30.693 27.6231 30.517 27.668 30.3343 27.668C30.1549 27.668 29.9889 27.6331 29.8361 27.5634C29.6867 27.4936 29.5555 27.3956 29.4425 27.2694C29.3329 27.1432 29.2466 26.9988 29.1835 26.836C29.1237 26.6733 29.0938 26.5006 29.0938 26.3179ZM31.1862 26.6816V25.9991C31.1497 25.8928 31.0899 25.7981 31.0068 25.7151C30.9271 25.6288 30.8358 25.5607 30.7328 25.5109C30.6332 25.461 30.5336 25.4361 30.4339 25.4361C30.3177 25.4361 30.2114 25.461 30.1151 25.5109C30.0221 25.5607 29.9407 25.6271 29.871 25.7101C29.8046 25.7932 29.7531 25.8878 29.7165 25.9941C29.68 26.1004 29.6617 26.2116 29.6617 26.3279C29.6617 26.4474 29.6817 26.5604 29.7215 26.6666C29.7614 26.7696 29.8178 26.8626 29.8909 26.9456C29.9673 27.0253 30.0537 27.0884 30.15 27.1349C30.2496 27.1781 30.3575 27.1997 30.4738 27.1997C30.5469 27.1997 30.6199 27.1864 30.693 27.1598C30.7694 27.1333 30.8408 27.0967 30.9072 27.0502C30.9769 27.0037 31.0351 26.9489 31.0816 26.8858C31.1314 26.8227 31.1663 26.7546 31.1862 26.6816Z" fill="black"/>
</g>
<defs>
<clipPath id="clip0_397_1177">
<rect width="34" height="27" fill="white" transform="translate(0 0.822266)"/>
</clipPath>
</defs>
</svg>
