<svg width="328" height="244" viewBox="0 0 328 244" fill="none" xmlns="http://www.w3.org/2000/svg">
<rect width="328" height="244" rx="5.65517" fill="white"/>
<path d="M19.5 8.52051V217.5H325.455" stroke="black" stroke-width="0.282759"/>
<path d="M87.1199 66.1698C35.9313 118.994 57.5204 196.479 20 218H326C255.996 106.813 138.308 13.346 87.1199 66.1698Z" fill="#B5DFA3"/>
<path opacity="0.05" d="M120.969 218.542C118.543 218.542 116.335 218.136 114.346 217.322C112.372 216.493 110.685 215.34 109.283 213.864C107.882 212.387 106.797 210.624 106.029 208.575C105.275 206.51 104.899 204.25 104.899 201.794C104.899 199.323 105.275 197.063 106.029 195.013C106.797 192.949 107.882 191.179 109.283 189.702C110.685 188.21 112.372 187.05 114.346 186.221C116.335 185.392 118.543 184.978 120.969 184.978C123.395 184.978 125.602 185.392 127.591 186.221C129.58 187.05 131.283 188.203 132.699 189.679C134.116 191.156 135.208 192.927 135.977 194.991C136.76 197.04 137.152 199.293 137.152 201.749C137.152 204.22 136.768 206.488 135.999 208.552C135.231 210.602 134.138 212.372 132.722 213.864C131.321 215.34 129.626 216.493 127.637 217.322C125.648 218.136 123.425 218.542 120.969 218.542ZM120.969 212.666C122.385 212.666 123.666 212.41 124.811 211.897C125.956 211.385 126.936 210.654 127.75 209.705C128.563 208.756 129.189 207.618 129.626 206.292C130.078 204.951 130.304 203.459 130.304 201.817C130.304 200.159 130.078 198.66 129.626 197.319C129.189 195.963 128.563 194.81 127.75 193.861C126.936 192.896 125.956 192.158 124.811 191.646C123.666 191.118 122.385 190.855 120.969 190.855C119.567 190.855 118.302 191.118 117.172 191.646C116.042 192.158 115.07 192.896 114.256 193.861C113.457 194.81 112.84 195.963 112.403 197.319C111.966 198.66 111.747 200.159 111.747 201.817C111.747 203.459 111.966 204.951 112.403 206.292C112.84 207.618 113.457 208.756 114.256 209.705C115.07 210.654 116.042 211.385 117.172 211.897C118.302 212.41 119.567 212.666 120.969 212.666ZM167.665 218H160.387L149.945 202.517H152.974C153.998 202.517 154.925 202.389 155.754 202.133C156.598 201.877 157.321 201.508 157.924 201.026C158.541 200.528 159.016 199.926 159.348 199.217C159.679 198.494 159.845 197.681 159.845 196.776C159.845 195.948 159.687 195.194 159.37 194.516C159.069 193.838 158.624 193.258 158.037 192.776C157.464 192.279 156.771 191.902 155.957 191.646C155.144 191.374 154.224 191.239 153.2 191.239H149.493V218H143.029V185.475H153.222C155.317 185.475 157.193 185.769 158.85 186.357C160.523 186.929 161.939 187.728 163.1 188.753C164.275 189.762 165.171 190.953 165.789 192.324C166.407 193.695 166.716 195.172 166.716 196.754C166.716 197.854 166.528 198.909 166.151 199.918C165.789 200.913 165.269 201.809 164.591 202.608C163.913 203.406 163.1 204.085 162.15 204.642C161.216 205.2 160.176 205.599 159.031 205.84L167.665 218ZM172.412 185.475H178.876V218H172.412V185.475ZM201.162 218.52C198.947 218.52 196.845 218.136 194.856 217.367C192.882 216.599 191.141 215.499 189.635 214.067C188.128 212.621 186.93 210.88 186.041 208.846C185.167 206.797 184.73 204.499 184.73 201.952C184.73 199.511 185.122 197.251 185.905 195.172C186.704 193.092 187.841 191.299 189.318 189.792C190.795 188.27 192.58 187.088 194.675 186.244C196.784 185.385 199.15 184.955 201.772 184.955C202.541 184.955 203.354 185.016 204.213 185.136C205.072 185.257 205.931 185.43 206.79 185.656C207.649 185.882 208.477 186.161 209.276 186.492C210.09 186.809 210.828 187.178 211.491 187.6L209.683 193.047C209.171 192.685 208.598 192.369 207.965 192.098C207.347 191.827 206.707 191.601 206.044 191.42C205.396 191.239 204.733 191.103 204.055 191.013C203.377 190.907 202.721 190.855 202.088 190.855C200.461 190.855 198.992 191.118 197.681 191.646C196.385 192.173 195.285 192.919 194.381 193.883C193.477 194.833 192.776 195.985 192.279 197.341C191.797 198.698 191.556 200.212 191.556 201.885C191.556 203.708 191.82 205.313 192.347 206.699C192.874 208.085 193.59 209.245 194.494 210.18C195.398 211.114 196.445 211.822 197.636 212.304C198.841 212.786 200.122 213.027 201.478 213.027C202.699 213.027 203.738 212.899 204.597 212.643C205.456 212.387 206.27 212.086 207.038 211.739V205.207H200.823V200.076H213.209V215.288C212.29 215.77 211.408 216.214 210.564 216.621C209.721 217.013 208.831 217.352 207.897 217.638C206.978 217.91 205.976 218.121 204.891 218.271C203.806 218.437 202.563 218.52 201.162 218.52ZM237.868 210.496H225.527L222.883 218H216.17L228.488 185.475H234.749L247.225 218H240.49L237.868 210.496ZM236.15 205.569L231.72 192.934L227.267 205.569H236.15ZM259.498 185.475L268.132 205.591L268.765 207.603L269.376 205.591L278.01 185.475H285.785V218H279.343V200.054L279.637 194.81L271.297 214.632H266.234L257.894 194.81L258.187 200.076V218H251.746V185.475H259.498ZM293.696 185.475H300.16V218H293.696V185.475Z" fill="black"/>
<path d="M74.1092 8C60.0124 154.169 48.9791 207.572 20 218H173C105.925 216.537 90.1102 162.965 74.1092 8Z" fill="#5B6158" fill-opacity="0.92"/>
<path d="M4.0127 143.445C4.0127 142.689 4.13346 142.007 4.375 141.401C4.61654 140.791 4.95833 140.273 5.40039 139.85C5.84245 139.421 6.37793 139.093 7.00684 138.865C7.63118 138.633 8.32617 138.517 9.0918 138.517C9.85742 138.517 10.5524 138.631 11.1768 138.858C11.8011 139.086 12.3343 139.414 12.7764 139.843C13.2184 140.271 13.5602 140.791 13.8018 141.401C14.0433 142.007 14.1641 142.691 14.1641 143.452C14.1641 143.716 14.1367 143.99 14.082 144.272C14.0319 144.555 13.9613 144.835 13.8701 145.113C13.7744 145.387 13.6628 145.653 13.5352 145.913C13.403 146.168 13.2594 146.405 13.1045 146.624L11.7715 146.118C11.8945 145.954 12.0085 145.772 12.1133 145.571C12.2181 145.371 12.3115 145.159 12.3936 144.936C12.471 144.712 12.5326 144.482 12.5781 144.245C12.6237 144.004 12.6465 143.764 12.6465 143.527C12.6465 143.058 12.5781 142.636 12.4414 142.263C12.3001 141.884 12.1019 141.559 11.8467 141.285C11.5915 141.012 11.2793 140.791 10.9102 140.622C10.541 140.453 10.1286 140.344 9.67285 140.294L9.67969 144.566H8.47656V140.301C8.0026 140.355 7.58333 140.469 7.21875 140.643C6.84961 140.816 6.53971 141.041 6.28906 141.319C6.03841 141.597 5.84928 141.921 5.72168 142.29C5.59408 142.659 5.53027 143.065 5.53027 143.507C5.53027 143.949 5.5918 144.375 5.71484 144.785C5.83789 145.191 6.00651 145.558 6.2207 145.886L4.81934 146.364C4.69629 146.173 4.58464 145.961 4.48438 145.729C4.38411 145.492 4.2998 145.248 4.23145 144.997C4.16309 144.742 4.11068 144.482 4.07422 144.218C4.0332 143.953 4.0127 143.696 4.0127 143.445ZM11.1084 132.282L11.1084 135.263H14V136.876H7.0752V135.263H9.87109L9.87109 132.282H7.0752V130.669H14V132.282H11.1084ZM6.91113 125.699C6.91113 125.221 6.99544 124.79 7.16406 124.407C7.33268 124.02 7.58105 123.696 7.90918 123.437C8.2373 123.172 8.6429 122.974 9.12598 122.842C9.60449 122.71 10.1536 122.657 10.7734 122.685V127.62C11.1061 127.602 11.4023 127.543 11.6621 127.442C11.9219 127.338 12.1406 127.196 12.3184 127.019C12.4961 126.841 12.6305 126.631 12.7217 126.39C12.8128 126.144 12.8584 125.875 12.8584 125.583C12.8584 125.15 12.7673 124.76 12.585 124.414C12.3981 124.063 12.1725 123.756 11.9082 123.491L12.8174 122.842C13.0042 122.992 13.1797 123.165 13.3438 123.361C13.5078 123.553 13.6514 123.769 13.7744 124.011C13.8929 124.248 13.9863 124.512 14.0547 124.804C14.1276 125.095 14.1641 125.417 14.1641 125.768C14.1641 126.264 14.0866 126.72 13.9316 127.135C13.7721 127.549 13.542 127.907 13.2412 128.208C12.9359 128.509 12.5622 128.743 12.1201 128.912C11.6735 129.081 11.1631 129.165 10.5889 129.165C10.0465 129.165 9.5498 129.078 9.09863 128.905C8.64746 128.732 8.26009 128.493 7.93652 128.188C7.61296 127.878 7.3623 127.511 7.18457 127.087C7.00228 126.663 6.91113 126.201 6.91113 125.699ZM9.61816 124.141C9.34473 124.159 9.11686 124.211 8.93457 124.298C8.75228 124.38 8.60872 124.489 8.50391 124.626C8.39909 124.763 8.32617 124.92 8.28516 125.098C8.23958 125.271 8.2168 125.455 8.2168 125.651C8.2168 126.08 8.33757 126.458 8.5791 126.786C8.81608 127.11 9.16243 127.344 9.61816 127.49V124.141ZM6.91113 117.4C6.91113 117.018 6.98405 116.658 7.12988 116.32C7.27116 115.983 7.48307 115.689 7.76563 115.438C8.04818 115.188 8.39909 114.99 8.81836 114.844C9.23763 114.698 9.72526 114.625 10.2813 114.625C10.9147 114.625 11.4753 114.705 11.9629 114.864C12.446 115.024 12.8516 115.249 13.1797 115.541C13.5033 115.828 13.7493 116.174 13.918 116.58C14.082 116.986 14.1641 117.437 14.1641 117.934C14.1641 118.253 14.123 118.551 14.041 118.829C13.9635 119.103 13.8678 119.349 13.7539 119.567H16.8779V121.181H7.0752V120.217L8.18262 119.902C8.00488 119.72 7.83854 119.524 7.68359 119.314C7.52865 119.105 7.39421 118.891 7.28027 118.672C7.16634 118.453 7.07747 118.237 7.01367 118.022C6.94531 117.804 6.91113 117.596 6.91113 117.4ZM12.8652 118.125C12.8652 117.811 12.806 117.535 12.6875 117.298C12.5645 117.061 12.3958 116.863 12.1816 116.703C11.9629 116.539 11.7054 116.418 11.4092 116.341C11.113 116.259 10.7871 116.218 10.4316 116.218C9.70703 116.218 9.16471 116.366 8.80469 116.662C8.44466 116.958 8.26465 117.355 8.26465 117.852C8.26465 118.143 8.33529 118.437 8.47656 118.733C8.61328 119.03 8.79102 119.308 9.00977 119.567H12.3252C12.4619 119.403 12.5872 119.196 12.7012 118.945C12.8105 118.69 12.8652 118.417 12.8652 118.125ZM7.0752 112.991L7.0752 108.391H8.32617V111.378H14V112.991H7.0752ZM7.0752 107.208V105.595H10.9102L8.11426 102.354H7.0752V100.83H14V102.443H10.1172L12.9063 105.725H14V107.208H7.0752ZM7.0752 93.6729H14V95.2861H8.32617V96.127C8.32617 96.3503 8.35352 96.5531 8.4082 96.7354C8.46289 96.9176 8.54036 97.0749 8.64063 97.207C8.74089 97.3346 8.85938 97.4349 8.99609 97.5078C9.13281 97.5762 9.2832 97.6104 9.44727 97.6104C9.61589 97.6104 9.77311 97.5762 9.91895 97.5078C10.0648 97.4349 10.1901 97.3346 10.2949 97.207C10.3997 97.0749 10.4818 96.9176 10.541 96.7354C10.6003 96.5485 10.6299 96.3434 10.6299 96.1201V95.5117L11.2588 95.8057L11.2656 95.792L11.375 95.8604L11.8877 96.0996V96.1748L14 97.4805V99.333L11.6279 97.7402C11.4365 98.2279 11.1585 98.597 10.7939 98.8477C10.4248 99.0938 9.99186 99.2168 9.49512 99.2168C9.14421 99.2168 8.82064 99.1462 8.52441 99.0049C8.22819 98.859 7.97298 98.6517 7.75879 98.3828C7.5446 98.1139 7.37826 97.7858 7.25977 97.3984C7.13672 97.0111 7.0752 96.5713 7.0752 96.0791V93.6729Z" fill="black"/>
<path d="M149.829 231.887C150.144 231.946 150.433 232.044 150.697 232.181C150.962 232.313 151.189 232.481 151.381 232.687C151.572 232.887 151.72 233.119 151.825 233.384C151.935 233.648 151.989 233.938 151.989 234.252C151.989 235.145 151.663 235.826 151.012 236.296C150.36 236.765 149.392 237 148.106 237H144.661V227.163H148.024C149.168 227.163 150.043 227.384 150.649 227.826C151.26 228.268 151.565 228.904 151.565 229.733C151.565 229.998 151.527 230.246 151.449 230.479C151.372 230.706 151.258 230.914 151.107 231.101C150.957 231.287 150.775 231.449 150.561 231.586C150.346 231.718 150.103 231.818 149.829 231.887ZM146.288 231.217H148.182C148.482 231.217 148.74 231.185 148.954 231.121C149.168 231.053 149.344 230.962 149.48 230.848C149.622 230.729 149.724 230.588 149.788 230.424C149.852 230.26 149.884 230.08 149.884 229.884C149.884 229.697 149.852 229.526 149.788 229.371C149.724 229.212 149.622 229.075 149.48 228.961C149.339 228.847 149.159 228.758 148.94 228.694C148.722 228.631 148.455 228.599 148.141 228.599H146.288V231.217ZM148.318 235.564C148.674 235.564 148.972 235.53 149.214 235.462C149.46 235.389 149.658 235.289 149.809 235.161C149.959 235.034 150.068 234.883 150.137 234.71C150.205 234.532 150.239 234.339 150.239 234.129C150.239 233.91 150.201 233.712 150.123 233.534C150.05 233.356 149.934 233.206 149.774 233.083C149.615 232.955 149.41 232.857 149.159 232.789C148.913 232.716 148.617 232.68 148.271 232.68H146.288V235.564H148.318ZM157.103 229.911C157.485 229.911 157.845 229.984 158.183 230.13C158.52 230.271 158.814 230.483 159.064 230.766C159.315 231.048 159.513 231.399 159.659 231.818C159.805 232.238 159.878 232.725 159.878 233.281C159.878 233.915 159.798 234.475 159.639 234.963C159.479 235.446 159.254 235.852 158.962 236.18C158.675 236.503 158.328 236.749 157.923 236.918C157.517 237.082 157.066 237.164 156.569 237.164C156.25 237.164 155.952 237.123 155.674 237.041C155.4 236.964 155.154 236.868 154.936 236.754V239.878H153.322V230.075H154.286L154.601 231.183C154.783 231.005 154.979 230.839 155.188 230.684C155.398 230.529 155.612 230.394 155.831 230.28C156.05 230.166 156.266 230.077 156.48 230.014C156.699 229.945 156.907 229.911 157.103 229.911ZM156.378 235.865C156.692 235.865 156.968 235.806 157.205 235.688C157.442 235.564 157.64 235.396 157.8 235.182C157.964 234.963 158.085 234.705 158.162 234.409C158.244 234.113 158.285 233.787 158.285 233.432C158.285 232.707 158.137 232.165 157.841 231.805C157.545 231.445 157.148 231.265 156.651 231.265C156.36 231.265 156.066 231.335 155.77 231.477C155.473 231.613 155.195 231.791 154.936 232.01V235.325C155.1 235.462 155.307 235.587 155.558 235.701C155.813 235.811 156.086 235.865 156.378 235.865ZM164.444 229.911C164.923 229.911 165.354 229.995 165.736 230.164C166.124 230.333 166.447 230.581 166.707 230.909C166.971 231.237 167.17 231.643 167.302 232.126C167.434 232.604 167.486 233.154 167.459 233.773H162.523C162.542 234.106 162.601 234.402 162.701 234.662C162.806 234.922 162.947 235.141 163.125 235.318C163.303 235.496 163.512 235.631 163.754 235.722C164 235.813 164.269 235.858 164.561 235.858C164.993 235.858 165.383 235.767 165.729 235.585C166.08 235.398 166.388 235.173 166.652 234.908L167.302 235.817C167.151 236.004 166.978 236.18 166.782 236.344C166.591 236.508 166.374 236.651 166.133 236.774C165.896 236.893 165.632 236.986 165.34 237.055C165.048 237.128 164.727 237.164 164.376 237.164C163.879 237.164 163.424 237.087 163.009 236.932C162.594 236.772 162.236 236.542 161.936 236.241C161.635 235.936 161.4 235.562 161.231 235.12C161.063 234.674 160.979 234.163 160.979 233.589C160.979 233.047 161.065 232.55 161.238 232.099C161.411 231.647 161.651 231.26 161.956 230.937C162.266 230.613 162.633 230.362 163.057 230.185C163.48 230.002 163.943 229.911 164.444 229.911ZM166.003 232.618C165.985 232.345 165.932 232.117 165.846 231.935C165.764 231.752 165.654 231.609 165.518 231.504C165.381 231.399 165.224 231.326 165.046 231.285C164.873 231.24 164.688 231.217 164.492 231.217C164.064 231.217 163.686 231.338 163.357 231.579C163.034 231.816 162.799 232.162 162.653 232.618H166.003ZM168.963 230.075H170.802L172.565 234.17L172.702 234.71L172.839 234.17L174.603 230.075H176.441V237H174.972V233.391L175.04 232.126L173.338 236.104H172.073L170.364 232.126L170.439 233.391V237H168.963V230.075ZM183.592 230.075V237H181.979V231.326H181.138C180.914 231.326 180.712 231.354 180.529 231.408C180.347 231.463 180.19 231.54 180.058 231.641C179.93 231.741 179.83 231.859 179.757 231.996C179.688 232.133 179.654 232.283 179.654 232.447C179.654 232.616 179.688 232.773 179.757 232.919C179.83 233.065 179.93 233.19 180.058 233.295C180.19 233.4 180.347 233.482 180.529 233.541C180.716 233.6 180.921 233.63 181.145 233.63H181.753L181.459 234.259L181.473 234.266L181.404 234.375L181.165 234.888H181.09L179.784 237H177.932L179.524 234.628C179.037 234.437 178.668 234.159 178.417 233.794C178.171 233.425 178.048 232.992 178.048 232.495C178.048 232.144 178.118 231.821 178.26 231.524C178.406 231.228 178.613 230.973 178.882 230.759C179.151 230.545 179.479 230.378 179.866 230.26C180.254 230.137 180.693 230.075 181.186 230.075H183.592Z" fill="black"/>
<path d="M122.553 100.353L125.91 108.175L126.156 108.957L126.394 108.175L129.751 100.353H132.774V113H130.27V106.021L130.384 103.982L127.141 111.69H125.172L121.929 103.982L122.043 106.03V113H119.538V100.353H122.553ZM142.97 110.082H138.171L137.143 113H134.532L139.322 100.353H141.757L146.608 113H143.989L142.97 110.082ZM142.302 108.166L140.579 103.253L138.848 108.166H142.302ZM150.783 102.611H147.083V100.353H156.979V102.611H153.297V113H150.783V102.611ZM165.777 107.902C165.309 108.131 164.749 108.327 164.099 108.491C163.448 108.655 162.748 108.737 161.998 108.737C161.447 108.737 160.946 108.652 160.495 108.482C160.05 108.312 159.669 108.063 159.353 107.735C159.036 107.407 158.79 107 158.614 106.514C158.444 106.021 158.359 105.456 158.359 104.817V100.361L160.873 100.353V104.211C160.873 104.48 160.92 104.732 161.014 104.967C161.107 105.201 161.242 105.403 161.418 105.573C161.6 105.743 161.816 105.878 162.068 105.978C162.326 106.071 162.613 106.118 162.93 106.118C163.533 106.118 164.066 106.068 164.529 105.969C164.992 105.863 165.408 105.749 165.777 105.626V100.353H168.291V113H165.777V107.902ZM178.495 110.082H173.696L172.668 113H170.058L174.848 100.353H177.282L182.134 113H179.515L178.495 110.082ZM177.827 108.166L176.104 103.253L174.373 108.166H177.827Z" fill="black"/>
<path opacity="0.7" d="M109.35 123.961H111.605C112.09 123.961 112.527 124.028 112.918 124.161C113.312 124.29 113.648 124.471 113.926 124.706C114.207 124.936 114.422 125.211 114.57 125.532C114.723 125.852 114.799 126.204 114.799 126.586C114.799 126.985 114.719 127.35 114.559 127.682C114.402 128.014 114.186 128.301 113.908 128.543C113.635 128.782 113.312 128.969 112.941 129.106C112.57 129.239 112.17 129.305 111.74 129.305H111.066L110.744 128.52H111.582C111.918 128.52 112.223 128.475 112.496 128.385C112.773 128.292 113.01 128.163 113.205 127.999C113.4 127.831 113.551 127.629 113.656 127.395C113.766 127.157 113.82 126.893 113.82 126.604C113.82 126.334 113.766 126.088 113.656 125.866C113.551 125.643 113.4 125.454 113.205 125.297C113.01 125.137 112.773 125.014 112.496 124.928C112.219 124.842 111.912 124.799 111.576 124.799H110.275V132.393H109.35V123.961ZM118.35 132.534C117.936 132.534 117.553 132.459 117.201 132.311C116.854 132.159 116.551 131.948 116.293 131.678C116.039 131.405 115.84 131.081 115.695 130.706C115.555 130.327 115.484 129.911 115.484 129.458C115.484 129.008 115.555 128.596 115.695 128.221C115.84 127.846 116.039 127.524 116.293 127.254C116.551 126.981 116.854 126.77 117.201 126.622C117.553 126.469 117.936 126.393 118.35 126.393C118.764 126.393 119.146 126.469 119.498 126.622C119.85 126.77 120.152 126.981 120.406 127.254C120.664 127.524 120.865 127.846 121.01 128.221C121.154 128.596 121.227 129.008 121.227 129.458C121.227 129.911 121.154 130.327 121.01 130.706C120.865 131.081 120.664 131.405 120.406 131.678C120.152 131.948 119.85 132.159 119.498 132.311C119.146 132.459 118.764 132.534 118.35 132.534ZM118.355 131.784C118.652 131.784 118.922 131.729 119.164 131.62C119.406 131.506 119.613 131.348 119.785 131.145C119.957 130.938 120.09 130.692 120.184 130.407C120.277 130.122 120.324 129.805 120.324 129.458C120.324 129.106 120.277 128.79 120.184 128.508C120.09 128.223 119.955 127.979 119.779 127.776C119.607 127.573 119.4 127.417 119.158 127.307C118.916 127.198 118.646 127.143 118.35 127.143C118.053 127.143 117.783 127.198 117.541 127.307C117.299 127.417 117.092 127.573 116.92 127.776C116.748 127.979 116.615 128.223 116.521 128.508C116.428 128.79 116.381 129.106 116.381 129.458C116.381 129.805 116.428 130.124 116.521 130.413C116.615 130.698 116.748 130.942 116.92 131.145C117.096 131.348 117.305 131.506 117.547 131.62C117.789 131.729 118.059 131.784 118.355 131.784ZM125.773 129.346C125.957 129.381 126.125 129.44 126.277 129.522C126.434 129.604 126.568 129.706 126.682 129.827C126.795 129.948 126.883 130.088 126.945 130.249C127.008 130.405 127.039 130.579 127.039 130.77C127.039 131.293 126.848 131.696 126.465 131.977C126.086 132.254 125.521 132.393 124.771 132.393H122.662V126.528H124.719C125.387 126.528 125.898 126.659 126.254 126.92C126.613 127.182 126.793 127.557 126.793 128.045C126.793 128.358 126.703 128.631 126.523 128.866C126.348 129.096 126.098 129.256 125.773 129.346ZM123.5 129.1H124.678C125.061 129.1 125.367 129.018 125.598 128.854C125.828 128.686 125.943 128.444 125.943 128.127C125.943 127.819 125.826 127.584 125.592 127.424C125.361 127.264 125.043 127.184 124.637 127.184H123.5V129.1ZM124.719 131.737C125.184 131.737 125.539 131.649 125.785 131.473C126.035 131.297 126.16 131.036 126.16 130.688C126.16 130.52 126.125 130.372 126.055 130.243C125.984 130.114 125.885 130.006 125.756 129.92C125.631 129.834 125.479 129.77 125.299 129.727C125.123 129.68 124.926 129.657 124.707 129.657H123.5V131.737H124.719ZM132.465 129.786H129.377V132.393H128.475V126.528H129.377V129.083H132.465V126.528H133.367V132.393H132.465V129.786ZM137.809 126.393C138.137 126.393 138.418 126.444 138.652 126.545C138.887 126.643 139.078 126.786 139.227 126.973C139.379 127.157 139.49 127.383 139.561 127.653C139.631 127.922 139.666 128.227 139.666 128.567V132.393H139.127L138.928 131.45C138.752 131.59 138.574 131.727 138.395 131.86C138.219 131.989 138.031 132.104 137.832 132.206C137.637 132.303 137.426 132.381 137.199 132.44C136.977 132.502 136.729 132.534 136.455 132.534C136.232 132.534 136.025 132.499 135.834 132.428C135.643 132.358 135.477 132.26 135.336 132.135C135.195 132.006 135.084 131.856 135.002 131.684C134.924 131.512 134.885 131.327 134.885 131.127C134.885 130.78 134.965 130.477 135.125 130.219C135.289 129.958 135.533 129.733 135.857 129.545C136.182 129.354 136.586 129.194 137.07 129.065C137.555 128.936 138.121 128.831 138.77 128.749V128.555C138.77 128.09 138.676 127.745 138.488 127.518C138.305 127.292 138.018 127.178 137.627 127.178C137.428 127.178 137.236 127.198 137.053 127.237C136.873 127.276 136.697 127.331 136.525 127.401C136.354 127.467 136.182 127.547 136.01 127.641C135.842 127.735 135.672 127.838 135.5 127.952L135.236 127.278C135.408 127.161 135.594 127.049 135.793 126.944C135.996 126.838 136.207 126.745 136.426 126.663C136.648 126.581 136.875 126.516 137.105 126.469C137.34 126.418 137.574 126.393 137.809 126.393ZM135.793 130.928C135.793 131.186 135.877 131.395 136.045 131.555C136.213 131.715 136.445 131.795 136.742 131.795C136.945 131.795 137.139 131.768 137.322 131.713C137.506 131.659 137.68 131.588 137.844 131.502C138.012 131.413 138.172 131.311 138.324 131.198C138.477 131.084 138.625 130.969 138.77 130.852V129.334C138.238 129.405 137.783 129.483 137.404 129.569C137.029 129.651 136.723 129.754 136.484 129.879C136.246 130 136.07 130.147 135.957 130.319C135.848 130.487 135.793 130.69 135.793 130.928ZM145.361 126.528V132.393H144.459V127.249H143.568C143.342 127.249 143.133 127.278 142.941 127.336C142.754 127.391 142.592 127.471 142.455 127.577C142.322 127.678 142.219 127.799 142.145 127.94C142.07 128.081 142.033 128.237 142.033 128.409C142.033 128.588 142.07 128.754 142.145 128.907C142.219 129.059 142.322 129.19 142.455 129.299C142.592 129.405 142.754 129.489 142.941 129.551C143.133 129.61 143.342 129.639 143.568 129.639H143.949L143.791 129.967H143.803L143.756 130.038L143.598 130.36H143.539L142.162 132.393H141.131L142.654 130.26C142.166 130.135 141.789 129.913 141.523 129.592C141.262 129.272 141.131 128.887 141.131 128.438C141.131 128.157 141.188 127.901 141.301 127.67C141.418 127.436 141.582 127.235 141.793 127.067C142.008 126.895 142.268 126.762 142.572 126.668C142.877 126.575 143.217 126.528 143.592 126.528H145.361ZM151.918 126.393C152.375 126.393 152.791 126.473 153.166 126.633C153.541 126.79 153.863 127.006 154.133 127.284C154.402 127.561 154.609 127.891 154.754 128.274C154.902 128.657 154.977 129.075 154.977 129.528C154.977 129.981 154.904 130.393 154.76 130.764C154.615 131.131 154.412 131.448 154.15 131.713C153.893 131.975 153.584 132.178 153.225 132.323C152.865 132.463 152.471 132.534 152.041 132.534C151.619 132.534 151.229 132.456 150.869 132.299C150.51 132.143 150.195 131.94 149.926 131.69L150.289 131.151C150.531 131.354 150.787 131.51 151.057 131.62C151.326 131.729 151.619 131.784 151.936 131.784C152.256 131.784 152.543 131.731 152.797 131.625C153.055 131.516 153.275 131.366 153.459 131.174C153.646 130.983 153.791 130.758 153.893 130.5C153.998 130.243 154.059 129.963 154.074 129.663H151.807V129.059H154.051C154.012 128.77 153.934 128.508 153.816 128.274C153.703 128.036 153.555 127.833 153.371 127.665C153.188 127.497 152.971 127.368 152.721 127.278C152.475 127.184 152.201 127.137 151.9 127.137C151.658 127.137 151.402 127.17 151.133 127.237C150.867 127.303 150.617 127.415 150.383 127.571L150.131 126.879C150.389 126.719 150.672 126.598 150.98 126.516C151.289 126.434 151.602 126.393 151.918 126.393ZM160.402 129.786H157.314V132.393H156.412V126.528H157.314V129.083H160.402V126.528H161.305V132.393H160.402V129.786ZM163.613 129.329C163.609 129.36 163.607 129.393 163.607 129.428C163.607 129.459 163.607 129.491 163.607 129.522C163.607 129.881 163.656 130.202 163.754 130.483C163.855 130.76 163.996 130.997 164.176 131.192C164.359 131.383 164.578 131.53 164.832 131.631C165.09 131.733 165.373 131.784 165.682 131.784C166.061 131.784 166.398 131.711 166.695 131.567C166.992 131.418 167.27 131.209 167.527 130.94L167.914 131.456C167.785 131.608 167.643 131.75 167.486 131.883C167.334 132.016 167.162 132.131 166.971 132.229C166.783 132.323 166.574 132.397 166.344 132.452C166.113 132.506 165.859 132.534 165.582 132.534C165.168 132.534 164.787 132.467 164.439 132.334C164.096 132.198 163.797 132.002 163.543 131.749C163.293 131.491 163.098 131.176 162.957 130.805C162.816 130.43 162.746 130.004 162.746 129.528C162.746 129.059 162.818 128.633 162.963 128.25C163.107 127.864 163.307 127.534 163.561 127.26C163.818 126.983 164.121 126.77 164.469 126.622C164.82 126.469 165.201 126.393 165.611 126.393C165.994 126.393 166.34 126.459 166.648 126.592C166.957 126.725 167.217 126.918 167.428 127.172C167.643 127.422 167.805 127.729 167.914 128.092C168.023 128.456 168.072 128.868 168.061 129.329H163.613ZM165.629 127.143C165.406 127.143 165.193 127.178 164.99 127.249C164.791 127.315 164.607 127.413 164.439 127.542C164.275 127.67 164.131 127.829 164.006 128.016C163.885 128.204 163.789 128.418 163.719 128.661H167.234C167.211 128.364 167.15 128.118 167.053 127.922C166.955 127.727 166.832 127.573 166.684 127.459C166.539 127.342 166.375 127.26 166.191 127.213C166.012 127.167 165.824 127.143 165.629 127.143ZM172.361 126.393C172.701 126.393 173.014 126.458 173.299 126.586C173.588 126.711 173.838 126.895 174.049 127.137C174.26 127.379 174.424 127.68 174.541 128.04C174.662 128.395 174.723 128.803 174.723 129.264C174.723 129.792 174.654 130.258 174.518 130.665C174.385 131.071 174.195 131.413 173.949 131.69C173.707 131.967 173.414 132.178 173.07 132.323C172.727 132.463 172.346 132.534 171.928 132.534C171.627 132.534 171.35 132.487 171.096 132.393C170.842 132.299 170.611 132.188 170.404 132.059V134.848H169.502V126.528H170.047L170.24 127.448C170.389 127.303 170.551 127.168 170.727 127.043C170.902 126.915 171.082 126.803 171.266 126.709C171.449 126.612 171.635 126.536 171.822 126.481C172.01 126.422 172.189 126.393 172.361 126.393ZM171.852 131.79C172.164 131.79 172.441 131.733 172.684 131.62C172.93 131.502 173.137 131.338 173.305 131.127C173.477 130.913 173.607 130.655 173.697 130.354C173.787 130.053 173.832 129.717 173.832 129.346C173.832 128.987 173.791 128.67 173.709 128.397C173.627 128.124 173.51 127.897 173.357 127.717C173.209 127.534 173.031 127.397 172.824 127.307C172.617 127.213 172.389 127.167 172.139 127.167C171.994 127.167 171.844 127.19 171.688 127.237C171.531 127.28 171.377 127.338 171.225 127.413C171.076 127.487 170.932 127.573 170.791 127.67C170.65 127.764 170.521 127.864 170.404 127.969V131.221C170.486 131.292 170.58 131.36 170.686 131.426C170.791 131.493 170.906 131.553 171.031 131.608C171.156 131.663 171.287 131.708 171.424 131.743C171.564 131.774 171.707 131.79 171.852 131.79ZM176.311 126.528H179.961V127.254H177.213V132.393H176.311V126.528ZM181.092 126.528H181.994V130.301L185.229 127.448V126.528H186.09V132.393H185.188V128.579L181.936 131.42V132.393H181.092V126.528ZM191.885 126.528V132.393H190.982V127.249H190.092C189.865 127.249 189.656 127.278 189.465 127.336C189.277 127.391 189.115 127.471 188.979 127.577C188.846 127.678 188.742 127.799 188.668 127.94C188.594 128.081 188.557 128.237 188.557 128.409C188.557 128.588 188.594 128.754 188.668 128.907C188.742 129.059 188.846 129.19 188.979 129.299C189.115 129.405 189.277 129.489 189.465 129.551C189.656 129.61 189.865 129.639 190.092 129.639H190.473L190.314 129.967H190.326L190.279 130.038L190.121 130.36H190.062L188.686 132.393H187.654L189.178 130.26C188.689 130.135 188.312 129.913 188.047 129.592C187.785 129.272 187.654 128.887 187.654 128.438C187.654 128.157 187.711 127.901 187.824 127.67C187.941 127.436 188.105 127.235 188.316 127.067C188.531 126.895 188.791 126.762 189.096 126.668C189.4 126.575 189.74 126.528 190.115 126.528H191.885ZM121.121 143.786H118.033V146.393H117.131V140.528H118.033V143.083H121.121V140.528H122.023V146.393H121.121V143.786ZM126.465 140.393C126.793 140.393 127.074 140.444 127.309 140.545C127.543 140.643 127.734 140.786 127.883 140.973C128.035 141.157 128.146 141.383 128.217 141.653C128.287 141.922 128.322 142.227 128.322 142.567V146.393H127.783L127.584 145.45C127.408 145.59 127.23 145.727 127.051 145.86C126.875 145.989 126.688 146.104 126.488 146.206C126.293 146.303 126.082 146.381 125.855 146.44C125.633 146.502 125.385 146.534 125.111 146.534C124.889 146.534 124.682 146.499 124.49 146.428C124.299 146.358 124.133 146.26 123.992 146.135C123.852 146.006 123.74 145.856 123.658 145.684C123.58 145.512 123.541 145.327 123.541 145.127C123.541 144.78 123.621 144.477 123.781 144.219C123.945 143.958 124.189 143.733 124.514 143.545C124.838 143.354 125.242 143.194 125.727 143.065C126.211 142.936 126.777 142.831 127.426 142.749V142.555C127.426 142.09 127.332 141.745 127.145 141.518C126.961 141.292 126.674 141.178 126.283 141.178C126.084 141.178 125.893 141.198 125.709 141.237C125.529 141.276 125.354 141.331 125.182 141.401C125.01 141.467 124.838 141.547 124.666 141.641C124.498 141.735 124.328 141.838 124.156 141.952L123.893 141.278C124.064 141.161 124.25 141.049 124.449 140.944C124.652 140.838 124.863 140.745 125.082 140.663C125.305 140.581 125.531 140.516 125.762 140.469C125.996 140.418 126.23 140.393 126.465 140.393ZM124.449 144.928C124.449 145.186 124.533 145.395 124.701 145.555C124.869 145.715 125.102 145.795 125.398 145.795C125.602 145.795 125.795 145.768 125.979 145.713C126.162 145.659 126.336 145.588 126.5 145.502C126.668 145.413 126.828 145.311 126.98 145.198C127.133 145.084 127.281 144.969 127.426 144.852V143.334C126.895 143.405 126.439 143.483 126.061 143.569C125.686 143.651 125.379 143.754 125.141 143.879C124.902 144 124.727 144.147 124.613 144.319C124.504 144.487 124.449 144.69 124.449 144.928ZM136.736 144.377H132.535V143.668L136.807 137.961H137.609V143.622H138.893V144.377H137.609V146.393H136.736V144.377ZM136.736 143.622V139.139L133.391 143.622H136.736ZM139.812 143H143.1V143.698H139.812V143ZM147.553 140.932C147.924 140.932 148.262 140.997 148.566 141.125C148.871 141.254 149.131 141.436 149.346 141.67C149.564 141.901 149.734 142.18 149.855 142.508C149.977 142.833 150.037 143.192 150.037 143.586C150.037 144.024 149.967 144.424 149.826 144.788C149.686 145.147 149.488 145.458 149.234 145.719C148.98 145.977 148.676 146.178 148.32 146.323C147.965 146.463 147.57 146.534 147.137 146.534C146.707 146.534 146.316 146.454 145.965 146.293C145.617 146.133 145.32 145.911 145.074 145.625C144.828 145.336 144.639 144.993 144.506 144.594C144.373 144.192 144.307 143.75 144.307 143.27C144.307 142.641 144.41 142.032 144.617 141.442C144.828 140.852 145.137 140.313 145.543 139.825C145.953 139.336 146.457 138.915 147.055 138.559C147.656 138.2 148.35 137.938 149.135 137.774L149.445 138.465C148.926 138.583 148.445 138.747 148.004 138.958C147.566 139.165 147.176 139.417 146.832 139.713C146.488 140.01 146.197 140.348 145.959 140.727C145.721 141.102 145.539 141.514 145.414 141.963C145.555 141.803 145.711 141.659 145.883 141.53C146.055 141.401 146.234 141.293 146.422 141.208C146.609 141.118 146.799 141.049 146.99 141.002C147.186 140.956 147.373 140.932 147.553 140.932ZM147.16 145.772C147.449 145.772 147.713 145.721 147.951 145.62C148.193 145.514 148.4 145.37 148.572 145.186C148.744 144.999 148.877 144.774 148.971 144.512C149.068 144.25 149.117 143.961 149.117 143.645C149.117 143.352 149.07 143.086 148.977 142.848C148.887 142.606 148.758 142.399 148.59 142.227C148.426 142.055 148.229 141.922 147.998 141.829C147.768 141.731 147.512 141.682 147.23 141.682C146.906 141.682 146.572 141.76 146.229 141.917C145.889 142.069 145.572 142.305 145.279 142.625C145.264 142.747 145.252 142.87 145.244 142.995C145.236 143.12 145.232 143.247 145.232 143.375C145.232 143.739 145.279 144.069 145.373 144.366C145.467 144.659 145.598 144.911 145.766 145.122C145.934 145.329 146.137 145.489 146.375 145.602C146.613 145.715 146.875 145.772 147.16 145.772ZM154.004 140.528H154.906V142.754C154.906 142.942 154.934 143.116 154.988 143.276C155.043 143.436 155.121 143.575 155.223 143.692C155.328 143.809 155.455 143.901 155.604 143.967C155.756 144.034 155.93 144.067 156.125 144.067C156.312 144.067 156.496 144.047 156.676 144.008C156.855 143.965 157.031 143.911 157.203 143.844C157.379 143.778 157.549 143.7 157.713 143.61C157.877 143.52 158.035 143.428 158.188 143.334V140.528H159.09V146.393H158.188V144.008C158.027 144.118 157.857 144.225 157.678 144.331C157.498 144.432 157.309 144.524 157.109 144.606C156.91 144.684 156.701 144.749 156.482 144.799C156.268 144.846 156.043 144.87 155.809 144.87C155.508 144.87 155.244 144.821 155.018 144.723C154.791 144.622 154.602 144.483 154.449 144.307C154.301 144.131 154.189 143.924 154.115 143.686C154.041 143.444 154.004 143.182 154.004 142.901V140.528ZM163.531 140.393C163.859 140.393 164.141 140.444 164.375 140.545C164.609 140.643 164.801 140.786 164.949 140.973C165.102 141.157 165.213 141.383 165.283 141.653C165.354 141.922 165.389 142.227 165.389 142.567V146.393H164.85L164.65 145.45C164.475 145.59 164.297 145.727 164.117 145.86C163.941 145.989 163.754 146.104 163.555 146.206C163.359 146.303 163.148 146.381 162.922 146.44C162.699 146.502 162.451 146.534 162.178 146.534C161.955 146.534 161.748 146.499 161.557 146.428C161.365 146.358 161.199 146.26 161.059 146.135C160.918 146.006 160.807 145.856 160.725 145.684C160.646 145.512 160.607 145.327 160.607 145.127C160.607 144.78 160.688 144.477 160.848 144.219C161.012 143.958 161.256 143.733 161.58 143.545C161.904 143.354 162.309 143.194 162.793 143.065C163.277 142.936 163.844 142.831 164.492 142.749V142.555C164.492 142.09 164.398 141.745 164.211 141.518C164.027 141.292 163.74 141.178 163.35 141.178C163.15 141.178 162.959 141.198 162.775 141.237C162.596 141.276 162.42 141.331 162.248 141.401C162.076 141.467 161.904 141.547 161.732 141.641C161.564 141.735 161.395 141.838 161.223 141.952L160.959 141.278C161.131 141.161 161.316 141.049 161.516 140.944C161.719 140.838 161.93 140.745 162.148 140.663C162.371 140.581 162.598 140.516 162.828 140.469C163.062 140.418 163.297 140.393 163.531 140.393ZM161.516 144.928C161.516 145.186 161.6 145.395 161.768 145.555C161.936 145.715 162.168 145.795 162.465 145.795C162.668 145.795 162.861 145.768 163.045 145.713C163.229 145.659 163.402 145.588 163.566 145.502C163.734 145.413 163.895 145.311 164.047 145.198C164.199 145.084 164.348 144.969 164.492 144.852V143.334C163.961 143.405 163.506 143.483 163.127 143.569C162.752 143.651 162.445 143.754 162.207 143.879C161.969 144 161.793 144.147 161.68 144.319C161.57 144.487 161.516 144.69 161.516 144.928ZM169.66 146.534C169.234 146.534 168.842 146.463 168.482 146.323C168.123 146.178 167.812 145.975 167.551 145.713C167.293 145.448 167.092 145.131 166.947 144.764C166.803 144.393 166.73 143.981 166.73 143.528C166.73 143.075 166.803 142.657 166.947 142.274C167.096 141.891 167.303 141.561 167.568 141.284C167.838 141.006 168.16 140.79 168.535 140.633C168.914 140.473 169.332 140.393 169.789 140.393C170.102 140.393 170.412 140.434 170.721 140.516C171.033 140.598 171.318 140.719 171.576 140.879L171.318 141.571C171.084 141.415 170.834 141.303 170.568 141.237C170.303 141.17 170.047 141.137 169.801 141.137C169.461 141.137 169.156 141.196 168.887 141.313C168.621 141.426 168.395 141.588 168.207 141.799C168.02 142.006 167.875 142.256 167.773 142.549C167.676 142.838 167.627 143.159 167.627 143.51C167.627 143.827 167.676 144.124 167.773 144.401C167.871 144.678 168.012 144.92 168.195 145.127C168.383 145.331 168.609 145.491 168.875 145.608C169.141 145.725 169.439 145.784 169.771 145.784C170.088 145.784 170.379 145.729 170.645 145.62C170.914 145.51 171.172 145.354 171.418 145.151L171.775 145.69C171.506 145.94 171.191 146.143 170.832 146.299C170.477 146.456 170.086 146.534 169.66 146.534ZM175.689 146.534C175.275 146.534 174.893 146.459 174.541 146.311C174.193 146.159 173.891 145.948 173.633 145.678C173.379 145.405 173.18 145.081 173.035 144.706C172.895 144.327 172.824 143.911 172.824 143.458C172.824 143.008 172.895 142.596 173.035 142.221C173.18 141.846 173.379 141.524 173.633 141.254C173.891 140.981 174.193 140.77 174.541 140.622C174.893 140.469 175.275 140.393 175.689 140.393C176.104 140.393 176.486 140.469 176.838 140.622C177.189 140.77 177.492 140.981 177.746 141.254C178.004 141.524 178.205 141.846 178.35 142.221C178.494 142.596 178.566 143.008 178.566 143.458C178.566 143.911 178.494 144.327 178.35 144.706C178.205 145.081 178.004 145.405 177.746 145.678C177.492 145.948 177.189 146.159 176.838 146.311C176.486 146.459 176.104 146.534 175.689 146.534ZM175.695 145.784C175.992 145.784 176.262 145.729 176.504 145.62C176.746 145.506 176.953 145.348 177.125 145.145C177.297 144.938 177.43 144.692 177.523 144.407C177.617 144.122 177.664 143.805 177.664 143.458C177.664 143.106 177.617 142.79 177.523 142.508C177.43 142.223 177.295 141.979 177.119 141.776C176.947 141.573 176.74 141.417 176.498 141.307C176.256 141.198 175.986 141.143 175.689 141.143C175.393 141.143 175.123 141.198 174.881 141.307C174.639 141.417 174.432 141.573 174.26 141.776C174.088 141.979 173.955 142.223 173.861 142.508C173.768 142.79 173.721 143.106 173.721 143.458C173.721 143.805 173.768 144.124 173.861 144.413C173.955 144.698 174.088 144.942 174.26 145.145C174.436 145.348 174.645 145.506 174.887 145.62C175.129 145.729 175.398 145.784 175.695 145.784ZM183.113 143.346C183.297 143.381 183.465 143.44 183.617 143.522C183.773 143.604 183.908 143.706 184.021 143.827C184.135 143.948 184.223 144.088 184.285 144.249C184.348 144.405 184.379 144.579 184.379 144.77C184.379 145.293 184.188 145.696 183.805 145.977C183.426 146.254 182.861 146.393 182.111 146.393H180.002V140.528H182.059C182.727 140.528 183.238 140.659 183.594 140.92C183.953 141.182 184.133 141.557 184.133 142.045C184.133 142.358 184.043 142.631 183.863 142.866C183.688 143.096 183.438 143.256 183.113 143.346ZM180.84 143.1H182.018C182.4 143.1 182.707 143.018 182.938 142.854C183.168 142.686 183.283 142.444 183.283 142.127C183.283 141.819 183.166 141.584 182.932 141.424C182.701 141.264 182.383 141.184 181.977 141.184H180.84V143.1ZM182.059 145.737C182.523 145.737 182.879 145.649 183.125 145.473C183.375 145.297 183.5 145.036 183.5 144.688C183.5 144.52 183.465 144.372 183.395 144.243C183.324 144.114 183.225 144.006 183.096 143.92C182.971 143.834 182.818 143.77 182.639 143.727C182.463 143.68 182.266 143.657 182.047 143.657H180.84V145.737H182.059Z" fill="black"/>
<path d="M54.5381 179.353H57.0518V192H54.5381V179.353ZM57.4824 185.54L61.6396 179.353H64.4697L60.1982 185.399L65.2607 192H62.3252L57.4824 185.54ZM72.4326 192.211C71.4893 192.211 70.6309 192.053 69.8574 191.736C69.0898 191.414 68.4336 190.966 67.8887 190.392C67.3438 189.817 66.9219 189.132 66.623 188.335C66.3301 187.532 66.1836 186.653 66.1836 185.698C66.1836 184.737 66.3301 183.858 66.623 183.062C66.9219 182.259 67.3438 181.57 67.8887 180.996C68.4336 180.416 69.0898 179.965 69.8574 179.643C70.6309 179.32 71.4893 179.159 72.4326 179.159C73.376 179.159 74.2344 179.32 75.0078 179.643C75.7812 179.965 76.4434 180.413 76.9941 180.987C77.5449 181.562 77.9697 182.25 78.2686 183.053C78.5732 183.85 78.7256 184.726 78.7256 185.681C78.7256 186.642 78.5762 187.523 78.2773 188.326C77.9785 189.123 77.5537 189.812 77.0029 190.392C76.458 190.966 75.7988 191.414 75.0254 191.736C74.252 192.053 73.3877 192.211 72.4326 192.211ZM72.4326 189.926C72.9834 189.926 73.4814 189.826 73.9268 189.627C74.3721 189.428 74.7529 189.144 75.0693 188.774C75.3857 188.405 75.6289 187.963 75.7988 187.447C75.9746 186.926 76.0625 186.346 76.0625 185.707C76.0625 185.062 75.9746 184.479 75.7988 183.958C75.6289 183.431 75.3857 182.982 75.0693 182.613C74.7529 182.238 74.3721 181.951 73.9268 181.752C73.4814 181.547 72.9834 181.444 72.4326 181.444C71.8877 181.444 71.3955 181.547 70.9561 181.752C70.5166 181.951 70.1387 182.238 69.8223 182.613C69.5117 182.982 69.2715 183.431 69.1016 183.958C68.9316 184.479 68.8467 185.062 68.8467 185.707C68.8467 186.346 68.9316 186.926 69.1016 187.447C69.2715 187.963 69.5117 188.405 69.8223 188.774C70.1387 189.144 70.5166 189.428 70.9561 189.627C71.3955 189.826 71.8877 189.926 72.4326 189.926ZM86.2139 191.016C85.3115 191.004 84.4883 190.881 83.7441 190.646C83.0059 190.412 82.376 190.072 81.8545 189.627C81.333 189.176 80.9287 188.622 80.6416 187.966C80.3545 187.304 80.2109 186.542 80.2109 185.681C80.2109 184.825 80.3516 184.069 80.6328 183.413C80.9141 182.757 81.3154 182.203 81.8369 181.752C82.3643 181.301 82.9971 180.958 83.7354 180.724C84.4736 180.483 85.2998 180.357 86.2139 180.346V179.159H88.7275V180.346C89.6475 180.357 90.4736 180.483 91.2061 180.724C91.9443 180.958 92.5713 181.301 93.0869 181.752C93.6025 182.197 93.998 182.748 94.2734 183.404C94.5547 184.061 94.6953 184.813 94.6953 185.663C94.6953 186.519 94.5547 187.277 94.2734 187.939C93.998 188.602 93.5996 189.158 93.0781 189.609C92.5625 190.061 91.9355 190.406 91.1973 190.646C90.4648 190.881 89.6416 191.004 88.7275 191.016V192.193H86.2139V191.016ZM86.2139 182.358C85.124 182.388 84.2949 182.687 83.7266 183.255C83.1582 183.817 82.874 184.626 82.874 185.681C82.874 186.759 83.1582 187.591 83.7266 188.177C84.2949 188.757 85.124 189.062 86.2139 189.091V182.358ZM88.7275 189.091C89.8115 189.062 90.6348 188.757 91.1973 188.177C91.7598 187.597 92.041 186.765 92.041 185.681C92.041 184.626 91.7598 183.817 91.1973 183.255C90.6348 182.687 89.8115 182.388 88.7275 182.358V189.091ZM96.998 179.353H105.189V181.611H99.5029V184.45H103.616V186.551H99.5029V189.741H105.699V192H96.998V179.353Z" fill="white"/>
<path opacity="0.6" d="M41.5156 202.961H43.7715C44.2559 202.961 44.6934 203.028 45.084 203.161C45.4785 203.29 45.8145 203.471 46.0918 203.706C46.373 203.936 46.5879 204.211 46.7363 204.532C46.8887 204.852 46.9648 205.204 46.9648 205.586C46.9648 205.985 46.8848 206.35 46.7246 206.682C46.5684 207.014 46.3516 207.301 46.0742 207.543C45.8008 207.782 45.4785 207.969 45.1074 208.106C44.7363 208.239 44.3359 208.305 43.9062 208.305H43.2324L42.9102 207.52H43.748C44.084 207.52 44.3887 207.475 44.6621 207.385C44.9395 207.292 45.1758 207.163 45.3711 206.999C45.5664 206.831 45.7168 206.629 45.8223 206.395C45.9316 206.157 45.9863 205.893 45.9863 205.604C45.9863 205.334 45.9316 205.088 45.8223 204.866C45.7168 204.643 45.5664 204.454 45.3711 204.297C45.1758 204.137 44.9395 204.014 44.6621 203.928C44.3848 203.842 44.0781 203.799 43.7422 203.799H42.4414V211.393H41.5156V202.961ZM48.5176 208.329C48.5137 208.36 48.5117 208.393 48.5117 208.428C48.5117 208.459 48.5117 208.491 48.5117 208.522C48.5117 208.881 48.5605 209.202 48.6582 209.483C48.7598 209.76 48.9004 209.997 49.0801 210.192C49.2637 210.383 49.4824 210.53 49.7363 210.631C49.9941 210.733 50.2773 210.784 50.5859 210.784C50.9648 210.784 51.3027 210.711 51.5996 210.567C51.8965 210.418 52.1738 210.209 52.4316 209.94L52.8184 210.456C52.6895 210.608 52.5469 210.75 52.3906 210.883C52.2383 211.016 52.0664 211.131 51.875 211.229C51.6875 211.323 51.4785 211.397 51.248 211.452C51.0176 211.506 50.7637 211.534 50.4863 211.534C50.0723 211.534 49.6914 211.467 49.3438 211.334C49 211.198 48.7012 211.002 48.4473 210.749C48.1973 210.491 48.002 210.176 47.8613 209.805C47.7207 209.43 47.6504 209.004 47.6504 208.528C47.6504 208.059 47.7227 207.633 47.8672 207.25C48.0117 206.864 48.2109 206.534 48.4648 206.26C48.7227 205.983 49.0254 205.77 49.373 205.622C49.7246 205.469 50.1055 205.393 50.5156 205.393C50.8984 205.393 51.2441 205.459 51.5527 205.592C51.8613 205.725 52.1211 205.918 52.332 206.172C52.5469 206.422 52.709 206.729 52.8184 207.092C52.9277 207.456 52.9766 207.868 52.9648 208.329H48.5176ZM50.5332 206.143C50.3105 206.143 50.0977 206.178 49.8945 206.249C49.6953 206.315 49.5117 206.413 49.3438 206.542C49.1797 206.67 49.0352 206.829 48.9102 207.016C48.7891 207.204 48.6934 207.418 48.623 207.661H52.1387C52.1152 207.364 52.0547 207.118 51.957 206.922C51.8594 206.727 51.7363 206.573 51.5879 206.459C51.4434 206.342 51.2793 206.26 51.0957 206.213C50.916 206.167 50.7285 206.143 50.5332 206.143ZM56.1875 208.311C56.7305 208.389 57.1387 208.557 57.4121 208.815C57.6855 209.069 57.8223 209.401 57.8223 209.811C57.8223 210.069 57.7656 210.301 57.6523 210.508C57.543 210.711 57.3848 210.887 57.1777 211.036C56.9746 211.18 56.7285 211.292 56.4395 211.37C56.1504 211.448 55.8262 211.487 55.4668 211.487C55.1348 211.487 54.8164 211.456 54.5117 211.393C54.207 211.327 53.9238 211.237 53.6621 211.124L53.8613 210.461C54.0957 210.563 54.3574 210.643 54.6465 210.702C54.9355 210.76 55.2148 210.79 55.4844 210.79C55.7031 210.79 55.9004 210.764 56.0762 210.713C56.2559 210.659 56.4082 210.584 56.5332 210.491C56.6582 210.397 56.7539 210.286 56.8203 210.157C56.8906 210.024 56.9258 209.879 56.9258 209.723C56.9258 209.567 56.8926 209.424 56.8262 209.295C56.7637 209.163 56.6602 209.049 56.5156 208.956C56.3711 208.858 56.1816 208.782 55.9473 208.727C55.7168 208.672 55.4336 208.645 55.0977 208.645H54.8691V208.094H55.0449C55.2324 208.094 55.4199 208.071 55.6074 208.024C55.7949 207.977 55.9629 207.907 56.1113 207.813C56.2637 207.719 56.3848 207.604 56.4746 207.467C56.5684 207.331 56.6152 207.174 56.6152 206.999C56.6152 206.874 56.5879 206.76 56.5332 206.659C56.4824 206.553 56.4082 206.463 56.3105 206.389C56.2168 206.311 56.1035 206.25 55.9707 206.208C55.8379 206.165 55.6934 206.143 55.5371 206.143C55.0762 206.143 54.5703 206.254 54.0195 206.477L53.8203 205.797C54.125 205.68 54.418 205.59 54.6992 205.528C54.9844 205.465 55.2695 205.434 55.5547 205.434C55.8516 205.434 56.1211 205.469 56.3633 205.54C56.6055 205.606 56.8105 205.704 56.9785 205.833C57.1504 205.958 57.2832 206.112 57.377 206.295C57.4707 206.475 57.5176 206.678 57.5176 206.905C57.5176 207.225 57.4062 207.512 57.1836 207.766C56.9648 208.02 56.6328 208.202 56.1875 208.311ZM64.3613 211.393H63.2539L61.0332 208.797H60.1602V211.393H59.2578V205.528H60.1602V208.03H60.9219L62.873 205.528H63.8926L61.7246 208.282L64.3613 211.393ZM65.5273 205.528H66.4297V209.301L69.6641 206.448V205.528H70.5254V211.393H69.623V207.579L66.3711 210.42V211.393H65.5273V205.528ZM74.9727 205.059C74.4492 205.059 74.0371 204.924 73.7363 204.655C73.4395 204.381 73.2754 204.002 73.2441 203.518L73.8301 203.495C73.8457 203.815 73.957 204.065 74.1641 204.245C74.3711 204.424 74.6406 204.514 74.9727 204.514C75.3125 204.514 75.5859 204.424 75.793 204.245C76 204.065 76.1074 203.815 76.1152 203.495L76.7129 203.518C76.6816 204.002 76.5137 204.381 76.209 204.655C75.9082 204.924 75.4961 205.059 74.9727 205.059ZM72.4766 205.528H73.3789V209.301L76.6133 206.448V205.528H77.4746V211.393H76.5723V207.579L73.3203 210.42V211.393H72.4766V205.528ZM84.8574 211.534C84.4316 211.534 84.0391 211.463 83.6797 211.323C83.3203 211.178 83.0098 210.975 82.748 210.713C82.4902 210.448 82.2891 210.131 82.1445 209.764C82 209.393 81.9277 208.981 81.9277 208.528C81.9277 208.075 82 207.657 82.1445 207.274C82.293 206.891 82.5 206.561 82.7656 206.284C83.0352 206.006 83.3574 205.79 83.7324 205.633C84.1113 205.473 84.5293 205.393 84.9863 205.393C85.2988 205.393 85.6094 205.434 85.918 205.516C86.2305 205.598 86.5156 205.719 86.7734 205.879L86.5156 206.571C86.2812 206.415 86.0312 206.303 85.7656 206.237C85.5 206.17 85.2441 206.137 84.998 206.137C84.6582 206.137 84.3535 206.196 84.084 206.313C83.8184 206.426 83.5918 206.588 83.4043 206.799C83.2168 207.006 83.0723 207.256 82.9707 207.549C82.873 207.838 82.8242 208.159 82.8242 208.51C82.8242 208.827 82.873 209.124 82.9707 209.401C83.0684 209.678 83.209 209.92 83.3926 210.127C83.5801 210.331 83.8066 210.491 84.0723 210.608C84.3379 210.725 84.6367 210.784 84.9688 210.784C85.2852 210.784 85.5762 210.729 85.8418 210.62C86.1113 210.51 86.3691 210.354 86.6152 210.151L86.9727 210.69C86.7031 210.94 86.3887 211.143 86.0293 211.299C85.6738 211.456 85.2832 211.534 84.8574 211.534ZM93.6348 211.393H92.5273L90.3066 208.797H89.4336V211.393H88.5312V205.528H89.4336V208.03H90.1953L92.1465 205.528H93.166L90.998 208.282L93.6348 211.393ZM97.291 205.393C97.6191 205.393 97.9004 205.444 98.1348 205.545C98.3691 205.643 98.5605 205.786 98.709 205.973C98.8613 206.157 98.9727 206.383 99.043 206.653C99.1133 206.922 99.1484 207.227 99.1484 207.567V211.393H98.6094L98.4102 210.45C98.2344 210.59 98.0566 210.727 97.877 210.86C97.7012 210.989 97.5137 211.104 97.3145 211.206C97.1191 211.303 96.9082 211.381 96.6816 211.44C96.459 211.502 96.2109 211.534 95.9375 211.534C95.7148 211.534 95.5078 211.499 95.3164 211.428C95.125 211.358 94.959 211.26 94.8184 211.135C94.6777 211.006 94.5664 210.856 94.4844 210.684C94.4062 210.512 94.3672 210.327 94.3672 210.127C94.3672 209.78 94.4473 209.477 94.6074 209.219C94.7715 208.958 95.0156 208.733 95.3398 208.545C95.6641 208.354 96.0684 208.194 96.5527 208.065C97.0371 207.936 97.6035 207.831 98.252 207.749V207.555C98.252 207.09 98.1582 206.745 97.9707 206.518C97.7871 206.292 97.5 206.178 97.1094 206.178C96.9102 206.178 96.7188 206.198 96.5352 206.237C96.3555 206.276 96.1797 206.331 96.0078 206.401C95.8359 206.467 95.6641 206.547 95.4922 206.641C95.3242 206.735 95.1543 206.838 94.9824 206.952L94.7188 206.278C94.8906 206.161 95.0762 206.049 95.2754 205.944C95.4785 205.838 95.6895 205.745 95.9082 205.663C96.1309 205.581 96.3574 205.516 96.5879 205.469C96.8223 205.418 97.0566 205.393 97.291 205.393ZM95.2754 209.928C95.2754 210.186 95.3594 210.395 95.5273 210.555C95.6953 210.715 95.9277 210.795 96.2246 210.795C96.4277 210.795 96.6211 210.768 96.8047 210.713C96.9883 210.659 97.1621 210.588 97.3262 210.502C97.4941 210.413 97.6543 210.311 97.8066 210.198C97.959 210.084 98.1074 209.969 98.252 209.852V208.334C97.7207 208.405 97.2656 208.483 96.8867 208.569C96.5117 208.651 96.2051 208.754 95.9668 208.879C95.7285 209 95.5527 209.147 95.4395 209.319C95.3301 209.487 95.2754 209.69 95.2754 209.928ZM100.689 205.528H101.592V207.754C101.592 207.942 101.619 208.116 101.674 208.276C101.729 208.436 101.807 208.575 101.908 208.692C102.014 208.809 102.141 208.901 102.289 208.967C102.441 209.034 102.615 209.067 102.811 209.067C102.998 209.067 103.182 209.047 103.361 209.008C103.541 208.965 103.717 208.911 103.889 208.844C104.064 208.778 104.234 208.7 104.398 208.61C104.562 208.52 104.721 208.428 104.873 208.334V205.528H105.775V211.393H104.873V209.008C104.713 209.118 104.543 209.225 104.363 209.331C104.184 209.432 103.994 209.524 103.795 209.606C103.596 209.684 103.387 209.749 103.168 209.799C102.953 209.846 102.729 209.87 102.494 209.87C102.193 209.87 101.93 209.821 101.703 209.723C101.477 209.622 101.287 209.483 101.135 209.307C100.986 209.131 100.875 208.924 100.801 208.686C100.727 208.444 100.689 208.182 100.689 207.901V205.528ZM110.082 211.534C109.668 211.534 109.285 211.459 108.934 211.311C108.586 211.159 108.283 210.948 108.025 210.678C107.771 210.405 107.572 210.081 107.428 209.706C107.287 209.327 107.217 208.911 107.217 208.458C107.217 208.008 107.287 207.596 107.428 207.221C107.572 206.846 107.771 206.524 108.025 206.254C108.283 205.981 108.586 205.77 108.934 205.622C109.285 205.469 109.668 205.393 110.082 205.393C110.496 205.393 110.879 205.469 111.23 205.622C111.582 205.77 111.885 205.981 112.139 206.254C112.396 206.524 112.598 206.846 112.742 207.221C112.887 207.596 112.959 208.008 112.959 208.458C112.959 208.911 112.887 209.327 112.742 209.706C112.598 210.081 112.396 210.405 112.139 210.678C111.885 210.948 111.582 211.159 111.23 211.311C110.879 211.459 110.496 211.534 110.082 211.534ZM110.088 210.784C110.385 210.784 110.654 210.729 110.896 210.62C111.139 210.506 111.346 210.348 111.518 210.145C111.689 209.938 111.822 209.692 111.916 209.407C112.01 209.122 112.057 208.805 112.057 208.458C112.057 208.106 112.01 207.79 111.916 207.508C111.822 207.223 111.688 206.979 111.512 206.776C111.34 206.573 111.133 206.417 110.891 206.307C110.648 206.198 110.379 206.143 110.082 206.143C109.785 206.143 109.516 206.198 109.273 206.307C109.031 206.417 108.824 206.573 108.652 206.776C108.48 206.979 108.348 207.223 108.254 207.508C108.16 207.79 108.113 208.106 108.113 208.458C108.113 208.805 108.16 209.124 108.254 209.413C108.348 209.698 108.48 209.942 108.652 210.145C108.828 210.348 109.037 210.506 109.279 210.62C109.521 210.729 109.791 210.784 110.088 210.784ZM119.498 211.393H118.391L116.17 208.797H115.297V211.393H114.395V205.528H115.297V208.03H116.059L118.01 205.528H119.029L116.861 208.282L119.498 211.393Z" fill="white"/>
</svg>
