<svg width="1160" height="564" viewBox="0 0 1160 564" fill="none" xmlns="http://www.w3.org/2000/svg">
<rect width="1160" height="564" rx="20" fill="white"/>
<mask id="path-2-inside-1_392_1061" fill="white">
<path d="M51 30H1151V500H51V30Z"/>
</mask>
<path d="M51 500H49V502H51V500ZM1151 498H51V502H1151V498ZM53 500V30H49V500H53Z" fill="black" mask="url(#path-2-inside-1_392_1061)"/>
<path d="M292.5 158.215C108.321 276.889 186 449.651 51 498H1152C900.123 248.208 476.679 39.5413 292.5 158.215Z" fill="#B5DFA3"/>
<path opacity="0.05" d="M408.94 500.925C400.442 500.925 392.71 499.5 385.743 496.65C378.829 493.747 372.918 489.71 368.009 484.537C363.101 479.365 359.3 473.19 356.609 466.012C353.97 458.781 352.65 450.864 352.65 442.261C352.65 433.605 353.97 425.688 356.609 418.51C359.3 411.279 363.101 405.078 368.009 399.905C372.918 394.68 378.829 390.616 385.743 387.713C392.71 384.81 400.442 383.359 408.94 383.359C417.437 383.359 425.169 384.81 432.136 387.713C439.103 390.616 445.067 394.654 450.029 399.826C454.99 404.998 458.817 411.2 461.508 418.431C464.253 425.609 465.625 433.499 465.625 442.103C465.625 450.758 464.279 458.702 461.587 465.933C458.896 473.111 455.069 479.312 450.108 484.537C445.199 489.71 439.262 493.747 432.295 496.65C425.328 499.5 417.543 500.925 408.94 500.925ZM408.94 480.341C413.901 480.341 418.387 479.444 422.399 477.65C426.41 475.855 429.84 473.295 432.691 469.97C435.541 466.645 437.731 462.66 439.262 458.016C440.845 453.318 441.637 448.093 441.637 442.34C441.637 436.534 440.845 431.283 439.262 426.585C437.731 421.835 435.541 417.798 432.691 414.472C429.84 411.094 426.41 408.508 422.399 406.714C418.387 404.866 413.901 403.943 408.94 403.943C404.031 403.943 399.598 404.866 395.639 406.714C391.681 408.508 388.277 411.094 385.426 414.472C382.629 417.798 380.465 421.835 378.935 426.585C377.404 431.283 376.639 436.534 376.639 442.34C376.639 448.093 377.404 453.318 378.935 458.016C380.465 462.66 382.629 466.645 385.426 469.97C388.277 473.295 391.681 475.855 395.639 477.65C399.598 479.444 404.031 480.341 408.94 480.341ZM572.504 499.025H547.011L510.435 444.794H521.044C524.633 444.794 527.879 444.346 530.782 443.448C533.737 442.551 536.271 441.258 538.382 439.569C540.546 437.827 542.208 435.716 543.37 433.236C544.531 430.702 545.111 427.852 545.111 424.685C545.111 421.782 544.557 419.143 543.449 416.768C542.393 414.393 540.836 412.361 538.778 410.672C536.772 408.931 534.344 407.611 531.494 406.714C528.644 405.764 525.424 405.289 521.835 405.289H508.852V499.025H486.209V385.101H521.915C529.251 385.101 535.822 386.13 541.628 388.188C547.486 390.194 552.448 392.991 556.512 396.58C560.628 400.116 563.769 404.286 565.933 409.089C568.097 413.892 569.179 419.064 569.179 424.606C569.179 428.459 568.519 432.154 567.2 435.69C565.933 439.173 564.112 442.314 561.737 445.111C559.362 447.908 556.512 450.283 553.187 452.236C549.914 454.189 546.272 455.588 542.261 456.432L572.504 499.025ZM589.129 385.101H611.772V499.025H589.129V385.101ZM689.833 500.846C682.074 500.846 674.712 499.5 667.745 496.809C660.831 494.117 654.735 490.264 649.457 485.25C644.179 480.183 639.983 474.087 636.869 466.962C633.807 459.784 632.277 451.735 632.277 442.815C632.277 434.265 633.649 426.348 636.394 419.064C639.191 411.781 643.176 405.5 648.348 400.222C653.521 394.891 659.775 390.748 667.111 387.792C674.501 384.784 682.787 383.28 691.971 383.28C694.662 383.28 697.513 383.491 700.521 383.913C703.529 384.335 706.538 384.942 709.546 385.734C712.555 386.526 715.458 387.502 718.255 388.663C721.105 389.772 723.691 391.065 726.014 392.542L719.68 411.622C717.885 410.356 715.88 409.247 713.663 408.297C711.499 407.347 709.256 406.555 706.934 405.922C704.664 405.289 702.342 404.814 699.967 404.497C697.592 404.128 695.296 403.943 693.079 403.943C687.379 403.943 682.233 404.866 677.641 406.714C673.102 408.561 669.249 411.174 666.082 414.552C662.915 417.877 660.461 421.914 658.719 426.664C657.031 431.415 656.186 436.719 656.186 442.578C656.186 448.964 657.11 454.585 658.957 459.441C660.804 464.296 663.311 468.36 666.478 471.633C669.645 474.905 673.313 477.386 677.483 479.075C681.705 480.764 686.191 481.608 690.941 481.608C695.217 481.608 698.858 481.159 701.867 480.262C704.875 479.365 707.725 478.309 710.417 477.095V454.215H688.646V436.244H732.03V489.525C728.811 491.214 725.723 492.771 722.768 494.196C719.812 495.568 716.698 496.756 713.426 497.759C710.206 498.709 706.696 499.448 702.896 499.975C699.096 500.556 694.742 500.846 689.833 500.846ZM818.404 472.741H775.178L765.915 499.025H742.402L785.549 385.101H807.479L851.18 499.025H827.588L818.404 472.741ZM812.387 455.482L796.87 411.226L781.274 455.482H812.387ZM894.169 385.101L924.412 455.561L926.629 462.607L928.767 455.561L959.009 385.101H986.244V499.025H963.68V436.165L964.709 417.798L935.496 487.229H917.762L888.548 417.798L889.578 436.244V499.025H867.014V385.101H894.169ZM1013.95 385.101H1036.6V499.025H1013.95V385.101Z" fill="black"/>
<path d="M244.638 28C194.191 355.141 154.707 474.661 51 498H551C310.96 494.726 301.901 374.826 244.638 28Z" fill="#5B6158" fill-opacity="0.92"/>
<path d="M9.17188 319.875C9.17188 318.146 9.44792 316.589 10 315.203C10.5521 313.807 11.3333 312.625 12.3438 311.656C13.3542 310.677 14.5781 309.927 16.0156 309.406C17.4427 308.875 19.0312 308.609 20.7812 308.609C22.5312 308.609 24.1198 308.87 25.5469 309.391C26.974 309.911 28.1927 310.661 29.2031 311.641C30.2135 312.62 30.9948 313.807 31.5469 315.203C32.099 316.589 32.375 318.151 32.375 319.891C32.375 320.495 32.3125 321.12 32.1875 321.766C32.0729 322.411 31.9115 323.052 31.7031 323.688C31.4844 324.312 31.2292 324.922 30.9375 325.516C30.6354 326.099 30.3073 326.641 29.9531 327.141L26.9062 325.984C27.1875 325.609 27.4479 325.193 27.6875 324.734C27.9271 324.276 28.1406 323.792 28.3281 323.281C28.5052 322.771 28.6458 322.245 28.75 321.703C28.8542 321.151 28.9062 320.604 28.9062 320.062C28.9062 318.99 28.75 318.026 28.4375 317.172C28.1146 316.307 27.6615 315.562 27.0781 314.938C26.4948 314.312 25.7812 313.807 24.9375 313.422C24.0938 313.036 23.151 312.786 22.1094 312.672L22.125 322.438H19.375V312.688C18.2917 312.812 17.3333 313.073 16.5 313.469C15.6562 313.865 14.9479 314.38 14.375 315.016C13.8021 315.651 13.3698 316.391 13.0781 317.234C12.7865 318.078 12.6406 319.005 12.6406 320.016C12.6406 321.026 12.7812 322 13.0625 322.938C13.3438 323.865 13.7292 324.703 14.2188 325.453L11.0156 326.547C10.7344 326.109 10.4792 325.625 10.25 325.094C10.0208 324.552 9.82812 323.995 9.67188 323.422C9.51562 322.839 9.39583 322.245 9.3125 321.641C9.21875 321.036 9.17188 320.448 9.17188 319.875ZM25.3906 294.359L25.3906 301.172H32V304.859H16.1719V301.172H22.5625L22.5625 294.359H16.1719V290.672H32V294.359H25.3906ZM15.7969 279.312C15.7969 278.219 15.9896 277.234 16.375 276.359C16.7604 275.474 17.3281 274.734 18.0781 274.141C18.8281 273.536 19.7552 273.083 20.8594 272.781C21.9531 272.479 23.2083 272.359 24.625 272.422V283.703C25.3854 283.661 26.0625 283.526 26.6563 283.297C27.25 283.057 27.75 282.734 28.1563 282.328C28.5625 281.922 28.8698 281.443 29.0781 280.891C29.2865 280.328 29.3906 279.714 29.3906 279.047C29.3906 278.057 29.1823 277.167 28.7656 276.375C28.3385 275.573 27.8229 274.87 27.2188 274.266L29.2969 272.781C29.724 273.125 30.125 273.521 30.5 273.969C30.875 274.406 31.2031 274.901 31.4844 275.453C31.7552 275.995 31.9688 276.599 32.125 277.266C32.2917 277.932 32.375 278.667 32.375 279.469C32.375 280.604 32.1979 281.646 31.8438 282.594C31.4792 283.542 30.9531 284.359 30.2656 285.047C29.5677 285.734 28.7135 286.271 27.7031 286.656C26.6823 287.042 25.5156 287.234 24.2031 287.234C22.9635 287.234 21.8281 287.036 20.7969 286.641C19.7656 286.245 18.8802 285.698 18.1406 285C17.401 284.292 16.8281 283.453 16.4219 282.484C16.0052 281.516 15.7969 280.458 15.7969 279.312ZM21.9844 275.75C21.3594 275.792 20.8385 275.911 20.4219 276.109C20.0052 276.297 19.6771 276.547 19.4375 276.859C19.1979 277.172 19.0313 277.531 18.9375 277.938C18.8333 278.333 18.7813 278.755 18.7813 279.203C18.7813 280.182 19.0573 281.047 19.6094 281.797C20.151 282.536 20.9427 283.073 21.9844 283.406V275.75ZM15.7969 260.344C15.7969 259.469 15.9635 258.646 16.2969 257.875C16.6198 257.104 17.1042 256.432 17.75 255.859C18.3958 255.286 19.1979 254.833 20.1563 254.5C21.1146 254.167 22.2292 254 23.5 254C24.9479 254 26.2292 254.182 27.3438 254.547C28.4479 254.911 29.375 255.427 30.125 256.094C30.8646 256.75 31.4271 257.542 31.8125 258.469C32.1875 259.396 32.375 260.427 32.375 261.562C32.375 262.292 32.2812 262.974 32.0938 263.609C31.9167 264.234 31.6979 264.797 31.4375 265.297H38.5781V268.984H16.1719V266.781L18.7031 266.062C18.2969 265.646 17.9167 265.198 17.5625 264.719C17.2083 264.24 16.901 263.75 16.6406 263.25C16.3802 262.75 16.1771 262.255 16.0313 261.766C15.875 261.266 15.7969 260.792 15.7969 260.344ZM29.4063 262C29.4063 261.281 29.2708 260.651 29 260.109C28.7188 259.568 28.3333 259.115 27.8438 258.75C27.3438 258.375 26.7552 258.099 26.0781 257.922C25.401 257.734 24.6563 257.641 23.8438 257.641C22.1875 257.641 20.9479 257.979 20.125 258.656C19.3021 259.333 18.8906 260.24 18.8906 261.375C18.8906 262.042 19.0521 262.714 19.375 263.391C19.6875 264.068 20.0938 264.703 20.5938 265.297H28.1719C28.4844 264.922 28.7708 264.448 29.0313 263.875C29.2813 263.292 29.4063 262.667 29.4063 262ZM16.1719 250.266V239.75H19.0313L19.0313 246.578H32V250.266H16.1719ZM16.1719 237.047V233.359H24.9375L18.5469 225.953H16.1719V222.469H32V226.156H23.125L29.5 233.656H32V237.047H16.1719ZM16.1719 206.109H32V209.797H19.0313V211.719C19.0313 212.229 19.0938 212.693 19.2188 213.109C19.3438 213.526 19.5208 213.885 19.75 214.188C19.9792 214.479 20.25 214.708 20.5625 214.875C20.875 215.031 21.2188 215.109 21.5938 215.109C21.9792 215.109 22.3385 215.031 22.6719 214.875C23.0052 214.708 23.2917 214.479 23.5313 214.188C23.7708 213.885 23.9583 213.526 24.0938 213.109C24.2292 212.682 24.2969 212.214 24.2969 211.703V210.312L25.7344 210.984L25.75 210.953L26 211.109L27.1719 211.656V211.828L32 214.812V219.047L26.5781 215.406C26.1406 216.521 25.5052 217.365 24.6719 217.938C23.8281 218.5 22.8385 218.781 21.7031 218.781C20.901 218.781 20.1615 218.62 19.4844 218.297C18.8073 217.964 18.224 217.49 17.7344 216.875C17.2448 216.26 16.8646 215.51 16.5938 214.625C16.3125 213.74 16.1719 212.734 16.1719 211.609V206.109Z" fill="black"/>
<path d="M525.719 529.312C526.438 529.448 527.099 529.672 527.703 529.984C528.307 530.286 528.828 530.672 529.266 531.141C529.703 531.599 530.042 532.13 530.281 532.734C530.531 533.339 530.656 534 530.656 534.719C530.656 536.76 529.911 538.318 528.422 539.391C526.932 540.464 524.719 541 521.781 541H513.906V518.516H521.594C524.208 518.516 526.208 519.021 527.594 520.031C528.99 521.042 529.688 522.495 529.688 524.391C529.688 524.995 529.599 525.562 529.422 526.094C529.245 526.615 528.984 527.089 528.641 527.516C528.297 527.943 527.88 528.312 527.391 528.625C526.901 528.927 526.344 529.156 525.719 529.312ZM517.625 527.781H521.953C522.641 527.781 523.229 527.708 523.719 527.562C524.208 527.406 524.609 527.198 524.922 526.938C525.245 526.667 525.479 526.344 525.625 525.969C525.771 525.594 525.844 525.182 525.844 524.734C525.844 524.307 525.771 523.917 525.625 523.562C525.479 523.198 525.245 522.885 524.922 522.625C524.599 522.365 524.188 522.161 523.688 522.016C523.188 521.87 522.578 521.797 521.859 521.797H517.625V527.781ZM522.266 537.719C523.078 537.719 523.76 537.641 524.312 537.484C524.875 537.318 525.328 537.089 525.672 536.797C526.016 536.505 526.266 536.161 526.422 535.766C526.578 535.359 526.656 534.917 526.656 534.438C526.656 533.938 526.568 533.484 526.391 533.078C526.224 532.672 525.958 532.328 525.594 532.047C525.229 531.755 524.76 531.531 524.188 531.375C523.625 531.208 522.948 531.125 522.156 531.125H517.625V537.719H522.266ZM542.344 524.797C543.219 524.797 544.042 524.964 544.812 525.297C545.583 525.62 546.255 526.104 546.828 526.75C547.401 527.396 547.854 528.198 548.188 529.156C548.521 530.115 548.688 531.229 548.688 532.5C548.688 533.948 548.505 535.229 548.141 536.344C547.776 537.448 547.26 538.375 546.594 539.125C545.938 539.865 545.146 540.427 544.219 540.812C543.292 541.188 542.26 541.375 541.125 541.375C540.396 541.375 539.714 541.281 539.078 541.094C538.453 540.917 537.891 540.698 537.391 540.438V547.578H533.703V525.172H535.906L536.625 527.703C537.042 527.297 537.49 526.917 537.969 526.562C538.448 526.208 538.938 525.901 539.438 525.641C539.938 525.38 540.432 525.177 540.922 525.031C541.422 524.875 541.896 524.797 542.344 524.797ZM540.688 538.406C541.406 538.406 542.036 538.271 542.578 538C543.12 537.719 543.573 537.333 543.938 536.844C544.312 536.344 544.589 535.755 544.766 535.078C544.953 534.401 545.047 533.656 545.047 532.844C545.047 531.188 544.708 529.948 544.031 529.125C543.354 528.302 542.448 527.891 541.312 527.891C540.646 527.891 539.974 528.052 539.297 528.375C538.62 528.688 537.984 529.094 537.391 529.594V537.172C537.766 537.484 538.24 537.771 538.812 538.031C539.396 538.281 540.021 538.406 540.688 538.406ZM559.125 524.797C560.219 524.797 561.203 524.99 562.078 525.375C562.964 525.76 563.703 526.328 564.297 527.078C564.901 527.828 565.354 528.755 565.656 529.859C565.958 530.953 566.078 532.208 566.016 533.625H554.734C554.776 534.385 554.911 535.062 555.141 535.656C555.38 536.25 555.703 536.75 556.109 537.156C556.516 537.562 556.995 537.87 557.547 538.078C558.109 538.286 558.724 538.391 559.391 538.391C560.38 538.391 561.271 538.182 562.062 537.766C562.865 537.339 563.568 536.823 564.172 536.219L565.656 538.297C565.312 538.724 564.917 539.125 564.469 539.5C564.031 539.875 563.536 540.203 562.984 540.484C562.443 540.755 561.839 540.969 561.172 541.125C560.505 541.292 559.771 541.375 558.969 541.375C557.833 541.375 556.792 541.198 555.844 540.844C554.896 540.479 554.078 539.953 553.391 539.266C552.703 538.568 552.167 537.714 551.781 536.703C551.396 535.682 551.203 534.516 551.203 533.203C551.203 531.964 551.401 530.828 551.797 529.797C552.193 528.766 552.74 527.88 553.438 527.141C554.146 526.401 554.984 525.828 555.953 525.422C556.922 525.005 557.979 524.797 559.125 524.797ZM562.688 530.984C562.646 530.359 562.526 529.839 562.328 529.422C562.141 529.005 561.891 528.677 561.578 528.438C561.266 528.198 560.906 528.031 560.5 527.938C560.104 527.833 559.682 527.781 559.234 527.781C558.255 527.781 557.391 528.057 556.641 528.609C555.901 529.151 555.365 529.943 555.031 530.984H562.688ZM569.453 525.172H573.656L577.688 534.531L578 535.766L578.312 534.531L582.344 525.172H586.547V541H583.188V532.75L583.344 529.859L579.453 538.953H576.562L572.656 529.859L572.828 532.75V541H569.453V525.172ZM602.891 525.172V541H599.203V528.031H597.281C596.771 528.031 596.307 528.094 595.891 528.219C595.474 528.344 595.115 528.521 594.812 528.75C594.521 528.979 594.292 529.25 594.125 529.562C593.969 529.875 593.891 530.219 593.891 530.594C593.891 530.979 593.969 531.339 594.125 531.672C594.292 532.005 594.521 532.292 594.812 532.531C595.115 532.771 595.474 532.958 595.891 533.094C596.318 533.229 596.786 533.297 597.297 533.297H598.688L598.016 534.734L598.047 534.75L597.891 535L597.344 536.172H597.172L594.188 541H589.953L593.594 535.578C592.479 535.141 591.635 534.505 591.062 533.672C590.5 532.828 590.219 531.839 590.219 530.703C590.219 529.901 590.38 529.161 590.703 528.484C591.036 527.807 591.51 527.224 592.125 526.734C592.74 526.245 593.49 525.865 594.375 525.594C595.26 525.312 596.266 525.172 597.391 525.172H602.891Z" fill="black"/>
<path d="M491.582 235.326L496.805 247.494L497.188 248.711L497.557 247.494L502.779 235.326H507.482V255H503.586V244.145L503.764 240.973L498.719 252.963H495.656L490.611 240.973L490.789 244.158V255H486.893V235.326H491.582ZM523.342 250.461H515.877L514.277 255H510.217L517.668 235.326H521.455L529.002 255H524.928L523.342 250.461ZM522.303 247.48L519.623 239.838L516.93 247.48H522.303ZM535.496 238.84H529.74V235.326H545.135V238.84H539.406V255H535.496V238.84ZM558.82 247.07C558.091 247.426 557.221 247.731 556.209 247.986C555.197 248.242 554.108 248.369 552.941 248.369C552.085 248.369 551.305 248.237 550.604 247.973C549.911 247.708 549.318 247.321 548.826 246.811C548.334 246.3 547.951 245.667 547.678 244.91C547.413 244.145 547.281 243.265 547.281 242.271V235.34L551.191 235.326V241.328C551.191 241.747 551.264 242.139 551.41 242.504C551.556 242.868 551.766 243.183 552.039 243.447C552.322 243.712 552.659 243.921 553.051 244.076C553.452 244.222 553.898 244.295 554.391 244.295C555.329 244.295 556.159 244.217 556.879 244.062C557.599 243.898 558.246 243.721 558.82 243.529V235.326H562.73V255H558.82V247.07ZM578.604 250.461H571.139L569.539 255H565.479L572.93 235.326H576.717L584.264 255H580.189L578.604 250.461ZM577.564 247.48L574.885 239.838L572.191 247.48H577.564Z" fill="black"/>
<path opacity="0.7" d="M466.416 278.947H470.176C470.983 278.947 471.712 279.058 472.363 279.279C473.021 279.494 473.581 279.797 474.043 280.188C474.512 280.572 474.87 281.031 475.117 281.564C475.371 282.098 475.498 282.684 475.498 283.322C475.498 283.986 475.365 284.595 475.098 285.148C474.837 285.702 474.476 286.18 474.014 286.584C473.558 286.981 473.021 287.294 472.402 287.521C471.784 287.743 471.117 287.854 470.4 287.854H469.277L468.74 286.545H470.137C470.697 286.545 471.204 286.47 471.66 286.32C472.122 286.164 472.516 285.949 472.842 285.676C473.167 285.396 473.418 285.061 473.594 284.67C473.776 284.273 473.867 283.833 473.867 283.352C473.867 282.902 473.776 282.492 473.594 282.121C473.418 281.75 473.167 281.434 472.842 281.174C472.516 280.907 472.122 280.702 471.66 280.559C471.198 280.415 470.687 280.344 470.127 280.344H467.959V293H466.416V278.947ZM481.416 293.234C480.726 293.234 480.088 293.111 479.502 292.863C478.923 292.609 478.418 292.258 477.988 291.809C477.565 291.353 477.233 290.812 476.992 290.188C476.758 289.556 476.641 288.863 476.641 288.107C476.641 287.359 476.758 286.672 476.992 286.047C477.233 285.422 477.565 284.885 477.988 284.436C478.418 283.98 478.923 283.628 479.502 283.381C480.088 283.127 480.726 283 481.416 283C482.106 283 482.744 283.127 483.33 283.381C483.916 283.628 484.421 283.98 484.844 284.436C485.273 284.885 485.609 285.422 485.85 286.047C486.09 286.672 486.211 287.359 486.211 288.107C486.211 288.863 486.09 289.556 485.85 290.188C485.609 290.812 485.273 291.353 484.844 291.809C484.421 292.258 483.916 292.609 483.33 292.863C482.744 293.111 482.106 293.234 481.416 293.234ZM481.426 291.984C481.921 291.984 482.37 291.893 482.773 291.711C483.177 291.522 483.522 291.258 483.809 290.92C484.095 290.575 484.316 290.165 484.473 289.689C484.629 289.214 484.707 288.687 484.707 288.107C484.707 287.521 484.629 286.994 484.473 286.525C484.316 286.05 484.092 285.643 483.799 285.305C483.512 284.966 483.167 284.706 482.764 284.523C482.36 284.341 481.911 284.25 481.416 284.25C480.921 284.25 480.472 284.341 480.068 284.523C479.665 284.706 479.32 284.966 479.033 285.305C478.747 285.643 478.525 286.05 478.369 286.525C478.213 286.994 478.135 287.521 478.135 288.107C478.135 288.687 478.213 289.217 478.369 289.699C478.525 290.174 478.747 290.581 479.033 290.92C479.326 291.258 479.674 291.522 480.078 291.711C480.482 291.893 480.931 291.984 481.426 291.984ZM493.789 287.922C494.095 287.98 494.375 288.078 494.629 288.215C494.889 288.352 495.114 288.521 495.303 288.723C495.492 288.924 495.638 289.159 495.742 289.426C495.846 289.686 495.898 289.976 495.898 290.295C495.898 291.167 495.579 291.838 494.941 292.307C494.31 292.769 493.369 293 492.119 293H488.604V283.225H492.031C493.145 283.225 493.997 283.443 494.59 283.879C495.189 284.315 495.488 284.94 495.488 285.754C495.488 286.275 495.339 286.73 495.039 287.121C494.746 287.505 494.329 287.772 493.789 287.922ZM490 287.512H491.963C492.601 287.512 493.112 287.375 493.496 287.102C493.88 286.822 494.072 286.418 494.072 285.891C494.072 285.376 493.877 284.986 493.486 284.719C493.102 284.452 492.572 284.318 491.895 284.318H490V287.512ZM492.031 291.906C492.806 291.906 493.398 291.76 493.809 291.467C494.225 291.174 494.434 290.738 494.434 290.158C494.434 289.878 494.375 289.631 494.258 289.416C494.141 289.201 493.975 289.022 493.76 288.879C493.551 288.736 493.298 288.628 492.998 288.557C492.705 288.479 492.376 288.439 492.012 288.439H490V291.906H492.031ZM504.941 288.654H499.795V293H498.291V283.225H499.795V287.482H504.941V283.225H506.445V293H504.941V288.654ZM513.848 283C514.395 283 514.863 283.085 515.254 283.254C515.645 283.417 515.964 283.654 516.211 283.967C516.465 284.273 516.65 284.65 516.768 285.1C516.885 285.549 516.943 286.057 516.943 286.623V293H516.045L515.713 291.428C515.42 291.662 515.124 291.89 514.824 292.111C514.531 292.326 514.219 292.518 513.887 292.688C513.561 292.85 513.21 292.98 512.832 293.078C512.461 293.182 512.048 293.234 511.592 293.234C511.221 293.234 510.876 293.176 510.557 293.059C510.238 292.941 509.961 292.779 509.727 292.57C509.492 292.355 509.307 292.105 509.17 291.818C509.04 291.532 508.975 291.223 508.975 290.891C508.975 290.311 509.108 289.807 509.375 289.377C509.648 288.941 510.055 288.566 510.596 288.254C511.136 287.935 511.81 287.668 512.617 287.453C513.424 287.238 514.368 287.062 515.449 286.926V286.604C515.449 285.829 515.293 285.253 514.98 284.875C514.674 284.497 514.196 284.309 513.545 284.309C513.213 284.309 512.894 284.341 512.588 284.406C512.288 284.471 511.995 284.562 511.709 284.68C511.423 284.79 511.136 284.924 510.85 285.08C510.57 285.236 510.286 285.409 510 285.598L509.561 284.475C509.847 284.279 510.156 284.094 510.488 283.918C510.827 283.742 511.178 283.586 511.543 283.449C511.914 283.312 512.292 283.205 512.676 283.127C513.066 283.042 513.457 283 513.848 283ZM510.488 290.559C510.488 290.988 510.628 291.337 510.908 291.604C511.188 291.87 511.576 292.004 512.07 292.004C512.409 292.004 512.731 291.958 513.037 291.867C513.343 291.776 513.633 291.659 513.906 291.516C514.186 291.366 514.453 291.197 514.707 291.008C514.961 290.819 515.208 290.627 515.449 290.432V287.902C514.564 288.02 513.805 288.15 513.174 288.293C512.549 288.43 512.038 288.602 511.641 288.811C511.243 289.012 510.951 289.257 510.762 289.543C510.579 289.823 510.488 290.161 510.488 290.559ZM526.436 283.225V293H524.932V284.426H523.447C523.07 284.426 522.721 284.475 522.402 284.572C522.09 284.663 521.82 284.797 521.592 284.973C521.37 285.142 521.198 285.344 521.074 285.578C520.951 285.812 520.889 286.073 520.889 286.359C520.889 286.659 520.951 286.936 521.074 287.189C521.198 287.443 521.37 287.661 521.592 287.844C521.82 288.02 522.09 288.16 522.402 288.264C522.721 288.361 523.07 288.41 523.447 288.41H524.082L523.818 288.957H523.838L523.76 289.074L523.496 289.611H523.398L521.104 293H519.385L521.924 289.445C521.11 289.237 520.482 288.866 520.039 288.332C519.603 287.798 519.385 287.157 519.385 286.408C519.385 285.939 519.479 285.513 519.668 285.129C519.863 284.738 520.137 284.403 520.488 284.123C520.846 283.837 521.279 283.615 521.787 283.459C522.295 283.303 522.861 283.225 523.486 283.225H526.436ZM537.363 283C538.125 283 538.818 283.133 539.443 283.4C540.068 283.661 540.605 284.022 541.055 284.484C541.504 284.947 541.849 285.497 542.09 286.135C542.337 286.773 542.461 287.469 542.461 288.225C542.461 288.98 542.34 289.667 542.1 290.285C541.859 290.897 541.52 291.424 541.084 291.867C540.654 292.303 540.14 292.642 539.541 292.883C538.942 293.117 538.285 293.234 537.568 293.234C536.865 293.234 536.214 293.104 535.615 292.844C535.016 292.583 534.492 292.245 534.043 291.828L534.648 290.93C535.052 291.268 535.479 291.529 535.928 291.711C536.377 291.893 536.865 291.984 537.393 291.984C537.926 291.984 538.405 291.896 538.828 291.721C539.258 291.538 539.626 291.288 539.932 290.969C540.244 290.65 540.485 290.275 540.654 289.846C540.83 289.416 540.931 288.951 540.957 288.449H537.178V287.443H540.918C540.853 286.962 540.723 286.525 540.527 286.135C540.339 285.738 540.091 285.399 539.785 285.119C539.479 284.839 539.118 284.624 538.701 284.475C538.291 284.318 537.835 284.24 537.334 284.24C536.93 284.24 536.504 284.296 536.055 284.406C535.612 284.517 535.195 284.702 534.805 284.963L534.385 283.811C534.814 283.544 535.286 283.342 535.801 283.205C536.315 283.068 536.836 283 537.363 283ZM551.504 288.654H546.357V293H544.854V283.225H546.357V287.482H551.504V283.225H553.008V293H551.504V288.654ZM556.855 287.893C556.849 287.945 556.846 288 556.846 288.059C556.846 288.111 556.846 288.163 556.846 288.215C556.846 288.814 556.927 289.348 557.09 289.816C557.259 290.279 557.493 290.673 557.793 290.998C558.099 291.317 558.464 291.561 558.887 291.73C559.316 291.9 559.788 291.984 560.303 291.984C560.934 291.984 561.497 291.864 561.992 291.623C562.487 291.376 562.949 291.027 563.379 290.578L564.023 291.438C563.809 291.691 563.571 291.929 563.311 292.15C563.057 292.372 562.77 292.564 562.451 292.727C562.139 292.883 561.79 293.007 561.406 293.098C561.022 293.189 560.599 293.234 560.137 293.234C559.447 293.234 558.812 293.124 558.232 292.902C557.66 292.674 557.161 292.349 556.738 291.926C556.322 291.496 555.996 290.972 555.762 290.354C555.527 289.729 555.41 289.019 555.41 288.225C555.41 287.443 555.531 286.734 555.771 286.096C556.012 285.451 556.344 284.901 556.768 284.445C557.197 283.983 557.702 283.628 558.281 283.381C558.867 283.127 559.502 283 560.186 283C560.824 283 561.4 283.111 561.914 283.332C562.428 283.553 562.861 283.876 563.213 284.299C563.571 284.715 563.841 285.227 564.023 285.832C564.206 286.438 564.287 287.124 564.268 287.893H556.855ZM560.215 284.25C559.844 284.25 559.489 284.309 559.15 284.426C558.818 284.536 558.512 284.699 558.232 284.914C557.959 285.129 557.718 285.393 557.51 285.705C557.308 286.018 557.148 286.376 557.031 286.779H562.891C562.852 286.285 562.751 285.874 562.588 285.549C562.425 285.223 562.22 284.966 561.973 284.777C561.732 284.582 561.458 284.445 561.152 284.367C560.853 284.289 560.54 284.25 560.215 284.25ZM571.436 283C572.002 283 572.523 283.107 572.998 283.322C573.48 283.531 573.896 283.837 574.248 284.24C574.6 284.644 574.873 285.145 575.068 285.744C575.27 286.337 575.371 287.017 575.371 287.785C575.371 288.664 575.257 289.442 575.029 290.119C574.808 290.796 574.492 291.366 574.082 291.828C573.678 292.29 573.19 292.642 572.617 292.883C572.044 293.117 571.41 293.234 570.713 293.234C570.212 293.234 569.749 293.156 569.326 293C568.903 292.844 568.519 292.658 568.174 292.443V297.092H566.67V283.225H567.578L567.9 284.758C568.148 284.517 568.418 284.292 568.711 284.084C569.004 283.869 569.303 283.684 569.609 283.527C569.915 283.365 570.225 283.238 570.537 283.146C570.85 283.049 571.149 283 571.436 283ZM570.586 291.994C571.107 291.994 571.569 291.9 571.973 291.711C572.383 291.516 572.728 291.242 573.008 290.891C573.294 290.533 573.512 290.103 573.662 289.602C573.812 289.1 573.887 288.54 573.887 287.922C573.887 287.323 573.818 286.796 573.682 286.34C573.545 285.884 573.35 285.507 573.096 285.207C572.848 284.901 572.552 284.673 572.207 284.523C571.862 284.367 571.481 284.289 571.064 284.289C570.824 284.289 570.573 284.328 570.312 284.406C570.052 284.478 569.795 284.576 569.541 284.699C569.294 284.823 569.053 284.966 568.818 285.129C568.584 285.285 568.369 285.451 568.174 285.627V291.047C568.311 291.164 568.467 291.278 568.643 291.389C568.818 291.499 569.01 291.6 569.219 291.691C569.427 291.783 569.645 291.857 569.873 291.916C570.107 291.968 570.345 291.994 570.586 291.994ZM578.018 283.225H584.102V284.436H579.521V293H578.018V283.225ZM585.986 283.225H587.49V289.514L592.881 284.758V283.225H594.316V293H592.812V286.643L587.393 291.379V293H585.986V283.225ZM603.975 283.225V293H602.471V284.426H600.986C600.609 284.426 600.26 284.475 599.941 284.572C599.629 284.663 599.359 284.797 599.131 284.973C598.91 285.142 598.737 285.344 598.613 285.578C598.49 285.812 598.428 286.073 598.428 286.359C598.428 286.659 598.49 286.936 598.613 287.189C598.737 287.443 598.91 287.661 599.131 287.844C599.359 288.02 599.629 288.16 599.941 288.264C600.26 288.361 600.609 288.41 600.986 288.41H601.621L601.357 288.957H601.377L601.299 289.074L601.035 289.611H600.938L598.643 293H596.924L599.463 289.445C598.649 289.237 598.021 288.866 597.578 288.332C597.142 287.798 596.924 287.157 596.924 286.408C596.924 285.939 597.018 285.513 597.207 285.129C597.402 284.738 597.676 284.403 598.027 284.123C598.385 283.837 598.818 283.615 599.326 283.459C599.834 283.303 600.4 283.225 601.025 283.225H603.975ZM486.035 312.654H480.889V317H479.385V307.225H480.889V311.482H486.035V307.225H487.539V317H486.035V312.654ZM494.941 307C495.488 307 495.957 307.085 496.348 307.254C496.738 307.417 497.057 307.654 497.305 307.967C497.559 308.273 497.744 308.65 497.861 309.1C497.979 309.549 498.037 310.057 498.037 310.623V317H497.139L496.807 315.428C496.514 315.662 496.217 315.89 495.918 316.111C495.625 316.326 495.312 316.518 494.98 316.688C494.655 316.85 494.303 316.98 493.926 317.078C493.555 317.182 493.141 317.234 492.686 317.234C492.314 317.234 491.969 317.176 491.65 317.059C491.331 316.941 491.055 316.779 490.82 316.57C490.586 316.355 490.4 316.105 490.264 315.818C490.133 315.532 490.068 315.223 490.068 314.891C490.068 314.311 490.202 313.807 490.469 313.377C490.742 312.941 491.149 312.566 491.689 312.254C492.23 311.935 492.904 311.668 493.711 311.453C494.518 311.238 495.462 311.062 496.543 310.926V310.604C496.543 309.829 496.387 309.253 496.074 308.875C495.768 308.497 495.29 308.309 494.639 308.309C494.307 308.309 493.988 308.341 493.682 308.406C493.382 308.471 493.089 308.562 492.803 308.68C492.516 308.79 492.23 308.924 491.943 309.08C491.663 309.236 491.38 309.409 491.094 309.598L490.654 308.475C490.941 308.279 491.25 308.094 491.582 307.918C491.921 307.742 492.272 307.586 492.637 307.449C493.008 307.312 493.385 307.205 493.77 307.127C494.16 307.042 494.551 307 494.941 307ZM491.582 314.559C491.582 314.988 491.722 315.337 492.002 315.604C492.282 315.87 492.669 316.004 493.164 316.004C493.503 316.004 493.825 315.958 494.131 315.867C494.437 315.776 494.727 315.659 495 315.516C495.28 315.366 495.547 315.197 495.801 315.008C496.055 314.819 496.302 314.627 496.543 314.432V311.902C495.658 312.02 494.899 312.15 494.268 312.293C493.643 312.43 493.132 312.602 492.734 312.811C492.337 313.012 492.044 313.257 491.855 313.543C491.673 313.823 491.582 314.161 491.582 314.559ZM512.061 313.641H505.059V312.459L512.178 302.947H513.516V312.381H515.654V313.641H513.516V317H512.061V313.641ZM512.061 312.381V304.91L506.484 312.381H512.061ZM517.188 311.346H522.666V312.508H517.188V311.346ZM530.088 307.898C530.706 307.898 531.27 308.006 531.777 308.221C532.285 308.436 532.718 308.738 533.076 309.129C533.441 309.513 533.724 309.979 533.926 310.525C534.128 311.066 534.229 311.665 534.229 312.322C534.229 313.051 534.111 313.719 533.877 314.324C533.643 314.923 533.314 315.441 532.891 315.877C532.467 316.307 531.96 316.642 531.367 316.883C530.775 317.117 530.117 317.234 529.395 317.234C528.678 317.234 528.027 317.101 527.441 316.834C526.862 316.567 526.367 316.196 525.957 315.721C525.547 315.239 525.231 314.666 525.01 314.002C524.788 313.331 524.678 312.596 524.678 311.795C524.678 310.747 524.85 309.731 525.195 308.748C525.547 307.765 526.061 306.867 526.738 306.053C527.422 305.239 528.262 304.536 529.258 303.943C530.26 303.344 531.416 302.908 532.725 302.635L533.242 303.787C532.376 303.982 531.576 304.256 530.84 304.607C530.111 304.952 529.46 305.372 528.887 305.867C528.314 306.362 527.829 306.925 527.432 307.557C527.035 308.182 526.732 308.868 526.523 309.617C526.758 309.35 527.018 309.109 527.305 308.895C527.591 308.68 527.891 308.501 528.203 308.357C528.516 308.208 528.831 308.094 529.15 308.016C529.476 307.938 529.788 307.898 530.088 307.898ZM529.434 315.965C529.915 315.965 530.355 315.88 530.752 315.711C531.156 315.535 531.501 315.294 531.787 314.988C532.074 314.676 532.295 314.301 532.451 313.865C532.614 313.429 532.695 312.947 532.695 312.42C532.695 311.932 532.617 311.489 532.461 311.092C532.311 310.688 532.096 310.343 531.816 310.057C531.543 309.77 531.214 309.549 530.83 309.393C530.446 309.23 530.02 309.148 529.551 309.148C529.01 309.148 528.454 309.279 527.881 309.539C527.314 309.793 526.787 310.187 526.299 310.721C526.273 310.923 526.253 311.128 526.24 311.336C526.227 311.544 526.221 311.756 526.221 311.971C526.221 312.576 526.299 313.126 526.455 313.621C526.611 314.109 526.829 314.529 527.109 314.881C527.389 315.226 527.728 315.493 528.125 315.682C528.522 315.87 528.958 315.965 529.434 315.965ZM540.84 307.225H542.344V310.936C542.344 311.248 542.389 311.538 542.48 311.805C542.572 312.072 542.702 312.303 542.871 312.498C543.047 312.693 543.258 312.846 543.506 312.957C543.76 313.068 544.049 313.123 544.375 313.123C544.688 313.123 544.993 313.09 545.293 313.025C545.592 312.954 545.885 312.863 546.172 312.752C546.465 312.641 546.748 312.511 547.021 312.361C547.295 312.212 547.559 312.059 547.812 311.902V307.225H549.316V317H547.812V313.025C547.546 313.208 547.262 313.387 546.963 313.562C546.663 313.732 546.348 313.885 546.016 314.021C545.684 314.152 545.335 314.259 544.971 314.344C544.613 314.422 544.238 314.461 543.848 314.461C543.346 314.461 542.907 314.38 542.529 314.217C542.152 314.048 541.836 313.816 541.582 313.523C541.335 313.23 541.149 312.885 541.025 312.488C540.902 312.085 540.84 311.648 540.84 311.18V307.225ZM556.719 307C557.266 307 557.734 307.085 558.125 307.254C558.516 307.417 558.835 307.654 559.082 307.967C559.336 308.273 559.521 308.65 559.639 309.1C559.756 309.549 559.814 310.057 559.814 310.623V317H558.916L558.584 315.428C558.291 315.662 557.995 315.89 557.695 316.111C557.402 316.326 557.09 316.518 556.758 316.688C556.432 316.85 556.081 316.98 555.703 317.078C555.332 317.182 554.919 317.234 554.463 317.234C554.092 317.234 553.747 317.176 553.428 317.059C553.109 316.941 552.832 316.779 552.598 316.57C552.363 316.355 552.178 316.105 552.041 315.818C551.911 315.532 551.846 315.223 551.846 314.891C551.846 314.311 551.979 313.807 552.246 313.377C552.52 312.941 552.926 312.566 553.467 312.254C554.007 311.935 554.681 311.668 555.488 311.453C556.296 311.238 557.24 311.062 558.32 310.926V310.604C558.32 309.829 558.164 309.253 557.852 308.875C557.546 308.497 557.067 308.309 556.416 308.309C556.084 308.309 555.765 308.341 555.459 308.406C555.16 308.471 554.867 308.562 554.58 308.68C554.294 308.79 554.007 308.924 553.721 309.08C553.441 309.236 553.158 309.409 552.871 309.598L552.432 308.475C552.718 308.279 553.027 308.094 553.359 307.918C553.698 307.742 554.049 307.586 554.414 307.449C554.785 307.312 555.163 307.205 555.547 307.127C555.938 307.042 556.328 307 556.719 307ZM553.359 314.559C553.359 314.988 553.499 315.337 553.779 315.604C554.059 315.87 554.447 316.004 554.941 316.004C555.28 316.004 555.602 315.958 555.908 315.867C556.214 315.776 556.504 315.659 556.777 315.516C557.057 315.366 557.324 315.197 557.578 315.008C557.832 314.819 558.079 314.627 558.32 314.432V311.902C557.435 312.02 556.676 312.15 556.045 312.293C555.42 312.43 554.909 312.602 554.512 312.811C554.115 313.012 553.822 313.257 553.633 313.543C553.451 313.823 553.359 314.161 553.359 314.559ZM566.934 317.234C566.224 317.234 565.57 317.117 564.971 316.883C564.372 316.642 563.854 316.303 563.418 315.867C562.988 315.424 562.653 314.897 562.412 314.285C562.171 313.667 562.051 312.98 562.051 312.225C562.051 311.469 562.171 310.773 562.412 310.135C562.66 309.497 563.005 308.947 563.447 308.484C563.896 308.022 564.434 307.661 565.059 307.4C565.69 307.133 566.387 307 567.148 307C567.669 307 568.187 307.068 568.701 307.205C569.222 307.342 569.697 307.544 570.127 307.811L569.697 308.963C569.307 308.702 568.89 308.517 568.447 308.406C568.005 308.296 567.578 308.24 567.168 308.24C566.602 308.24 566.094 308.338 565.645 308.533C565.202 308.722 564.824 308.992 564.512 309.344C564.199 309.689 563.958 310.105 563.789 310.594C563.626 311.076 563.545 311.609 563.545 312.195C563.545 312.723 563.626 313.217 563.789 313.68C563.952 314.142 564.186 314.546 564.492 314.891C564.805 315.229 565.182 315.496 565.625 315.691C566.068 315.887 566.566 315.984 567.119 315.984C567.646 315.984 568.132 315.893 568.574 315.711C569.023 315.529 569.453 315.268 569.863 314.93L570.459 315.828C570.01 316.245 569.486 316.583 568.887 316.844C568.294 317.104 567.643 317.234 566.934 317.234ZM576.982 317.234C576.292 317.234 575.654 317.111 575.068 316.863C574.489 316.609 573.984 316.258 573.555 315.809C573.132 315.353 572.799 314.812 572.559 314.188C572.324 313.556 572.207 312.863 572.207 312.107C572.207 311.359 572.324 310.672 572.559 310.047C572.799 309.422 573.132 308.885 573.555 308.436C573.984 307.98 574.489 307.628 575.068 307.381C575.654 307.127 576.292 307 576.982 307C577.673 307 578.311 307.127 578.896 307.381C579.482 307.628 579.987 307.98 580.41 308.436C580.84 308.885 581.175 309.422 581.416 310.047C581.657 310.672 581.777 311.359 581.777 312.107C581.777 312.863 581.657 313.556 581.416 314.188C581.175 314.812 580.84 315.353 580.41 315.809C579.987 316.258 579.482 316.609 578.896 316.863C578.311 317.111 577.673 317.234 576.982 317.234ZM576.992 315.984C577.487 315.984 577.936 315.893 578.34 315.711C578.743 315.522 579.089 315.258 579.375 314.92C579.661 314.575 579.883 314.165 580.039 313.689C580.195 313.214 580.273 312.687 580.273 312.107C580.273 311.521 580.195 310.994 580.039 310.525C579.883 310.05 579.658 309.643 579.365 309.305C579.079 308.966 578.734 308.706 578.33 308.523C577.926 308.341 577.477 308.25 576.982 308.25C576.488 308.25 576.038 308.341 575.635 308.523C575.231 308.706 574.886 308.966 574.6 309.305C574.313 309.643 574.092 310.05 573.936 310.525C573.779 310.994 573.701 311.521 573.701 312.107C573.701 312.687 573.779 313.217 573.936 313.699C574.092 314.174 574.313 314.581 574.6 314.92C574.893 315.258 575.241 315.522 575.645 315.711C576.048 315.893 576.497 315.984 576.992 315.984ZM589.355 311.922C589.661 311.98 589.941 312.078 590.195 312.215C590.456 312.352 590.68 312.521 590.869 312.723C591.058 312.924 591.204 313.159 591.309 313.426C591.413 313.686 591.465 313.976 591.465 314.295C591.465 315.167 591.146 315.838 590.508 316.307C589.876 316.769 588.936 317 587.686 317H584.17V307.225H587.598C588.711 307.225 589.564 307.443 590.156 307.879C590.755 308.315 591.055 308.94 591.055 309.754C591.055 310.275 590.905 310.73 590.605 311.121C590.312 311.505 589.896 311.772 589.355 311.922ZM585.566 311.512H587.529C588.167 311.512 588.678 311.375 589.062 311.102C589.447 310.822 589.639 310.418 589.639 309.891C589.639 309.376 589.443 308.986 589.053 308.719C588.669 308.452 588.138 308.318 587.461 308.318H585.566V311.512ZM587.598 315.906C588.372 315.906 588.965 315.76 589.375 315.467C589.792 315.174 590 314.738 590 314.158C590 313.878 589.941 313.631 589.824 313.416C589.707 313.201 589.541 313.022 589.326 312.879C589.118 312.736 588.864 312.628 588.564 312.557C588.271 312.479 587.943 312.439 587.578 312.439H585.566V315.906H587.598Z" fill="black"/>
<path d="M206.393 381.326H210.303V401H206.393V381.326ZM210.973 390.951L217.439 381.326H221.842L215.197 390.732L223.072 401H218.506L210.973 390.951ZM234.229 401.328C232.761 401.328 231.426 401.082 230.223 400.59C229.029 400.089 228.008 399.391 227.16 398.498C226.312 397.605 225.656 396.538 225.191 395.299C224.736 394.05 224.508 392.683 224.508 391.197C224.508 389.702 224.736 388.335 225.191 387.096C225.656 385.847 226.312 384.776 227.16 383.883C228.008 382.98 229.029 382.279 230.223 381.777C231.426 381.276 232.761 381.025 234.229 381.025C235.696 381.025 237.031 381.276 238.234 381.777C239.438 382.279 240.467 382.976 241.324 383.869C242.181 384.762 242.842 385.833 243.307 387.082C243.781 388.322 244.018 389.684 244.018 391.17C244.018 392.665 243.785 394.036 243.32 395.285C242.855 396.525 242.195 397.596 241.338 398.498C240.49 399.391 239.465 400.089 238.262 400.59C237.059 401.082 235.714 401.328 234.229 401.328ZM234.229 397.773C235.085 397.773 235.86 397.618 236.553 397.309C237.245 396.999 237.838 396.557 238.33 395.982C238.822 395.408 239.201 394.72 239.465 393.918C239.738 393.107 239.875 392.204 239.875 391.211C239.875 390.208 239.738 389.301 239.465 388.49C239.201 387.67 238.822 386.973 238.33 386.398C237.838 385.815 237.245 385.368 236.553 385.059C235.86 384.74 235.085 384.58 234.229 384.58C233.381 384.58 232.615 384.74 231.932 385.059C231.248 385.368 230.66 385.815 230.168 386.398C229.685 386.973 229.311 387.67 229.047 388.49C228.783 389.301 228.65 390.208 228.65 391.211C228.65 392.204 228.783 393.107 229.047 393.918C229.311 394.72 229.685 395.408 230.168 395.982C230.66 396.557 231.248 396.999 231.932 397.309C232.615 397.618 233.381 397.773 234.229 397.773ZM255.666 399.469C254.262 399.451 252.982 399.259 251.824 398.895C250.676 398.53 249.696 398.001 248.885 397.309C248.074 396.607 247.445 395.745 246.998 394.725C246.551 393.695 246.328 392.51 246.328 391.17C246.328 389.839 246.547 388.663 246.984 387.643C247.422 386.622 248.046 385.76 248.857 385.059C249.678 384.357 250.662 383.824 251.811 383.459C252.959 383.085 254.244 382.889 255.666 382.871V381.025H259.576V382.871C261.007 382.889 262.292 383.085 263.432 383.459C264.58 383.824 265.555 384.357 266.357 385.059C267.16 385.751 267.775 386.608 268.203 387.629C268.641 388.65 268.859 389.821 268.859 391.143C268.859 392.473 268.641 393.654 268.203 394.684C267.775 395.714 267.155 396.579 266.344 397.281C265.542 397.983 264.566 398.521 263.418 398.895C262.279 399.259 260.998 399.451 259.576 399.469V401.301H255.666V399.469ZM255.666 386.002C253.971 386.048 252.681 386.512 251.797 387.396C250.913 388.271 250.471 389.529 250.471 391.17C250.471 392.847 250.913 394.141 251.797 395.053C252.681 395.955 253.971 396.429 255.666 396.475V386.002ZM259.576 396.475C261.262 396.429 262.543 395.955 263.418 395.053C264.293 394.15 264.73 392.856 264.73 391.17C264.73 389.529 264.293 388.271 263.418 387.396C262.543 386.512 261.262 386.048 259.576 386.002V396.475ZM272.441 381.326H285.184V384.84H276.338V389.256H282.736V392.523H276.338V397.486H285.977V401H272.441V381.326Z" fill="white"/>
<path opacity="0.6" d="M181.359 424.947H185.119C185.926 424.947 186.656 425.058 187.307 425.279C187.964 425.494 188.524 425.797 188.986 426.188C189.455 426.572 189.813 427.031 190.061 427.564C190.314 428.098 190.441 428.684 190.441 429.322C190.441 429.986 190.308 430.595 190.041 431.148C189.781 431.702 189.419 432.18 188.957 432.584C188.501 432.981 187.964 433.294 187.346 433.521C186.727 433.743 186.06 433.854 185.344 433.854H184.221L183.684 432.545H185.08C185.64 432.545 186.148 432.47 186.604 432.32C187.066 432.164 187.46 431.949 187.785 431.676C188.111 431.396 188.361 431.061 188.537 430.67C188.719 430.273 188.811 429.833 188.811 429.352C188.811 428.902 188.719 428.492 188.537 428.121C188.361 427.75 188.111 427.434 187.785 427.174C187.46 426.907 187.066 426.702 186.604 426.559C186.141 426.415 185.63 426.344 185.07 426.344H182.902V439H181.359V424.947ZM193.029 433.893C193.023 433.945 193.02 434 193.02 434.059C193.02 434.111 193.02 434.163 193.02 434.215C193.02 434.814 193.101 435.348 193.264 435.816C193.433 436.279 193.667 436.673 193.967 436.998C194.273 437.317 194.637 437.561 195.061 437.73C195.49 437.9 195.962 437.984 196.477 437.984C197.108 437.984 197.671 437.864 198.166 437.623C198.661 437.376 199.123 437.027 199.553 436.578L200.197 437.438C199.982 437.691 199.745 437.929 199.484 438.15C199.23 438.372 198.944 438.564 198.625 438.727C198.312 438.883 197.964 439.007 197.58 439.098C197.196 439.189 196.773 439.234 196.311 439.234C195.62 439.234 194.986 439.124 194.406 438.902C193.833 438.674 193.335 438.349 192.912 437.926C192.495 437.496 192.17 436.972 191.936 436.354C191.701 435.729 191.584 435.019 191.584 434.225C191.584 433.443 191.704 432.734 191.945 432.096C192.186 431.451 192.518 430.901 192.941 430.445C193.371 429.983 193.876 429.628 194.455 429.381C195.041 429.127 195.676 429 196.359 429C196.997 429 197.574 429.111 198.088 429.332C198.602 429.553 199.035 429.876 199.387 430.299C199.745 430.715 200.015 431.227 200.197 431.832C200.38 432.438 200.461 433.124 200.441 433.893H193.029ZM196.389 430.25C196.018 430.25 195.663 430.309 195.324 430.426C194.992 430.536 194.686 430.699 194.406 430.914C194.133 431.129 193.892 431.393 193.684 431.705C193.482 432.018 193.322 432.376 193.205 432.779H199.064C199.025 432.285 198.924 431.874 198.762 431.549C198.599 431.223 198.394 430.966 198.146 430.777C197.906 430.582 197.632 430.445 197.326 430.367C197.027 430.289 196.714 430.25 196.389 430.25ZM205.812 433.863C206.717 433.993 207.398 434.273 207.854 434.703C208.309 435.126 208.537 435.68 208.537 436.363C208.537 436.793 208.443 437.18 208.254 437.525C208.072 437.864 207.808 438.157 207.463 438.404C207.124 438.645 206.714 438.831 206.232 438.961C205.751 439.091 205.21 439.156 204.611 439.156C204.058 439.156 203.527 439.104 203.02 439C202.512 438.889 202.04 438.74 201.604 438.551L201.936 437.447C202.326 437.617 202.762 437.75 203.244 437.848C203.726 437.945 204.191 437.994 204.641 437.994C205.005 437.994 205.334 437.952 205.627 437.867C205.926 437.776 206.18 437.652 206.389 437.496C206.597 437.34 206.757 437.154 206.867 436.939C206.984 436.718 207.043 436.477 207.043 436.217C207.043 435.956 206.988 435.719 206.877 435.504C206.773 435.283 206.6 435.094 206.359 434.938C206.118 434.775 205.803 434.648 205.412 434.557C205.028 434.465 204.556 434.42 203.996 434.42H203.615V433.502H203.908C204.221 433.502 204.533 433.463 204.846 433.385C205.158 433.307 205.438 433.189 205.686 433.033C205.939 432.877 206.141 432.685 206.291 432.457C206.447 432.229 206.525 431.969 206.525 431.676C206.525 431.467 206.48 431.279 206.389 431.109C206.304 430.934 206.18 430.784 206.018 430.66C205.861 430.53 205.673 430.429 205.451 430.357C205.23 430.286 204.989 430.25 204.729 430.25C203.96 430.25 203.117 430.436 202.199 430.807L201.867 429.674C202.375 429.479 202.863 429.329 203.332 429.225C203.807 429.12 204.283 429.068 204.758 429.068C205.253 429.068 205.702 429.127 206.105 429.244C206.509 429.355 206.851 429.518 207.131 429.732C207.417 429.941 207.639 430.198 207.795 430.504C207.951 430.803 208.029 431.142 208.029 431.52C208.029 432.053 207.844 432.532 207.473 432.955C207.108 433.378 206.555 433.681 205.812 433.863ZM219.436 439H217.59L213.889 434.674H212.434V439H210.93V429.225H212.434V433.395H213.703L216.955 429.225H218.654L215.041 433.814L219.436 439ZM221.379 429.225H222.883V435.514L228.273 430.758V429.225H229.709V439H228.205V432.643L222.785 437.379V439H221.379V429.225ZM237.121 428.443C236.249 428.443 235.562 428.219 235.061 427.77C234.566 427.314 234.292 426.682 234.24 425.875L235.217 425.836C235.243 426.37 235.428 426.786 235.773 427.086C236.118 427.385 236.568 427.535 237.121 427.535C237.688 427.535 238.143 427.385 238.488 427.086C238.833 426.786 239.012 426.37 239.025 425.836L240.021 425.875C239.969 426.682 239.689 427.314 239.182 427.77C238.68 428.219 237.993 428.443 237.121 428.443ZM232.961 429.225H234.465V435.514L239.855 430.758V429.225H241.291V439H239.787V432.643L234.367 437.379V439H232.961V429.225ZM253.596 439.234C252.886 439.234 252.232 439.117 251.633 438.883C251.034 438.642 250.516 438.303 250.08 437.867C249.65 437.424 249.315 436.897 249.074 436.285C248.833 435.667 248.713 434.98 248.713 434.225C248.713 433.469 248.833 432.773 249.074 432.135C249.322 431.497 249.667 430.947 250.109 430.484C250.559 430.022 251.096 429.661 251.721 429.4C252.352 429.133 253.049 429 253.811 429C254.331 429 254.849 429.068 255.363 429.205C255.884 429.342 256.359 429.544 256.789 429.811L256.359 430.963C255.969 430.702 255.552 430.517 255.109 430.406C254.667 430.296 254.24 430.24 253.83 430.24C253.264 430.24 252.756 430.338 252.307 430.533C251.864 430.722 251.486 430.992 251.174 431.344C250.861 431.689 250.62 432.105 250.451 432.594C250.288 433.076 250.207 433.609 250.207 434.195C250.207 434.723 250.288 435.217 250.451 435.68C250.614 436.142 250.848 436.546 251.154 436.891C251.467 437.229 251.844 437.496 252.287 437.691C252.73 437.887 253.228 437.984 253.781 437.984C254.309 437.984 254.794 437.893 255.236 437.711C255.686 437.529 256.115 437.268 256.525 436.93L257.121 437.828C256.672 438.245 256.148 438.583 255.549 438.844C254.956 439.104 254.305 439.234 253.596 439.234ZM268.225 439H266.379L262.678 434.674H261.223V439H259.719V429.225H261.223V433.395H262.492L265.744 429.225H267.443L263.83 433.814L268.225 439ZM274.318 429C274.865 429 275.334 429.085 275.725 429.254C276.115 429.417 276.434 429.654 276.682 429.967C276.936 430.273 277.121 430.65 277.238 431.1C277.355 431.549 277.414 432.057 277.414 432.623V439H276.516L276.184 437.428C275.891 437.662 275.594 437.89 275.295 438.111C275.002 438.326 274.689 438.518 274.357 438.688C274.032 438.85 273.68 438.98 273.303 439.078C272.932 439.182 272.518 439.234 272.062 439.234C271.691 439.234 271.346 439.176 271.027 439.059C270.708 438.941 270.432 438.779 270.197 438.57C269.963 438.355 269.777 438.105 269.641 437.818C269.51 437.532 269.445 437.223 269.445 436.891C269.445 436.311 269.579 435.807 269.846 435.377C270.119 434.941 270.526 434.566 271.066 434.254C271.607 433.935 272.281 433.668 273.088 433.453C273.895 433.238 274.839 433.062 275.92 432.926V432.604C275.92 431.829 275.764 431.253 275.451 430.875C275.145 430.497 274.667 430.309 274.016 430.309C273.684 430.309 273.365 430.341 273.059 430.406C272.759 430.471 272.466 430.562 272.18 430.68C271.893 430.79 271.607 430.924 271.32 431.08C271.04 431.236 270.757 431.409 270.471 431.598L270.031 430.475C270.318 430.279 270.627 430.094 270.959 429.918C271.298 429.742 271.649 429.586 272.014 429.449C272.385 429.312 272.762 429.205 273.146 429.127C273.537 429.042 273.928 429 274.318 429ZM270.959 436.559C270.959 436.988 271.099 437.337 271.379 437.604C271.659 437.87 272.046 438.004 272.541 438.004C272.88 438.004 273.202 437.958 273.508 437.867C273.814 437.776 274.104 437.659 274.377 437.516C274.657 437.366 274.924 437.197 275.178 437.008C275.432 436.819 275.679 436.627 275.92 436.432V433.902C275.035 434.02 274.276 434.15 273.645 434.293C273.02 434.43 272.508 434.602 272.111 434.811C271.714 435.012 271.421 435.257 271.232 435.543C271.05 435.823 270.959 436.161 270.959 436.559ZM279.982 429.225H281.486V432.936C281.486 433.248 281.532 433.538 281.623 433.805C281.714 434.072 281.844 434.303 282.014 434.498C282.189 434.693 282.401 434.846 282.648 434.957C282.902 435.068 283.192 435.123 283.518 435.123C283.83 435.123 284.136 435.09 284.436 435.025C284.735 434.954 285.028 434.863 285.314 434.752C285.607 434.641 285.891 434.511 286.164 434.361C286.438 434.212 286.701 434.059 286.955 433.902V429.225H288.459V439H286.955V435.025C286.688 435.208 286.405 435.387 286.105 435.562C285.806 435.732 285.49 435.885 285.158 436.021C284.826 436.152 284.478 436.259 284.113 436.344C283.755 436.422 283.381 436.461 282.99 436.461C282.489 436.461 282.049 436.38 281.672 436.217C281.294 436.048 280.979 435.816 280.725 435.523C280.477 435.23 280.292 434.885 280.168 434.488C280.044 434.085 279.982 433.648 279.982 433.18V429.225ZM295.637 439.234C294.947 439.234 294.309 439.111 293.723 438.863C293.143 438.609 292.639 438.258 292.209 437.809C291.786 437.353 291.454 436.812 291.213 436.188C290.979 435.556 290.861 434.863 290.861 434.107C290.861 433.359 290.979 432.672 291.213 432.047C291.454 431.422 291.786 430.885 292.209 430.436C292.639 429.98 293.143 429.628 293.723 429.381C294.309 429.127 294.947 429 295.637 429C296.327 429 296.965 429.127 297.551 429.381C298.137 429.628 298.641 429.98 299.064 430.436C299.494 430.885 299.829 431.422 300.07 432.047C300.311 432.672 300.432 433.359 300.432 434.107C300.432 434.863 300.311 435.556 300.07 436.188C299.829 436.812 299.494 437.353 299.064 437.809C298.641 438.258 298.137 438.609 297.551 438.863C296.965 439.111 296.327 439.234 295.637 439.234ZM295.646 437.984C296.141 437.984 296.59 437.893 296.994 437.711C297.398 437.522 297.743 437.258 298.029 436.92C298.316 436.575 298.537 436.165 298.693 435.689C298.85 435.214 298.928 434.687 298.928 434.107C298.928 433.521 298.85 432.994 298.693 432.525C298.537 432.05 298.312 431.643 298.02 431.305C297.733 430.966 297.388 430.706 296.984 430.523C296.581 430.341 296.132 430.25 295.637 430.25C295.142 430.25 294.693 430.341 294.289 430.523C293.885 430.706 293.54 430.966 293.254 431.305C292.967 431.643 292.746 432.05 292.59 432.525C292.434 432.994 292.355 433.521 292.355 434.107C292.355 434.687 292.434 435.217 292.59 435.699C292.746 436.174 292.967 436.581 293.254 436.92C293.547 437.258 293.895 437.522 294.299 437.711C294.702 437.893 295.152 437.984 295.646 437.984ZM311.33 439H309.484L305.783 434.674H304.328V439H302.824V429.225H304.328V433.395H305.598L308.85 429.225H310.549L306.936 433.814L311.33 439Z" fill="white"/>
</svg>
