<svg width="60" height="60" viewBox="0 0 60 60" fill="none" xmlns="http://www.w3.org/2000/svg">
<path fill-rule="evenodd" clip-rule="evenodd" d="M17.1343 30.7665C24.963 26.4829 33.2938 26.483 42.0973 31.062C38.6409 32.8049 35.0368 33.1004 31.0487 33.1004C26.6765 33.1004 21.9497 32.6572 17.1343 30.7665Z" fill="#BAC92C"/>
<path d="M31.0487 32.3611C26.7356 32.3611 22.0975 31.9179 17.4003 30.0863L16.839 31.4748C21.7725 33.395 26.6174 33.8677 31.0191 33.8677V32.3611H31.0487ZM41.7725 30.4113C38.4638 32.0657 35.0073 32.3611 31.0487 32.3611V33.8677C35.0664 33.8677 38.8182 33.5723 42.4519 31.7702L41.7725 30.4113ZM17.5184 31.4453C25.1107 27.2799 33.1757 27.2798 41.7725 31.7406L42.4814 30.4113C33.4711 25.7141 24.8744 25.7141 16.8094 30.1159L17.5184 31.4453ZM17.1639 30.7954V30.0568H13.1758L16.898 31.5043L17.1639 30.7954ZM42.127 31.0907L42.4519 31.7702L43.7813 31.1203L42.4814 30.4408L42.127 31.1203V31.0907ZM17.1639 30.7954V31.5339H17.3708L17.548 31.4453L17.1935 30.7954H17.1639Z" fill="#BAC92C"/>
<path d="M40.7679 13.7203C39.6748 12.834 38.4932 12.2136 37.1343 12.0658C35.7753 11.9181 34.3573 12.2136 32.8211 13.0408L33.4415 14.1634C34.7709 13.4248 35.9526 13.2181 36.9866 13.3362C38.0206 13.4544 38.9953 13.9271 39.9702 14.7247L40.7679 13.7498V13.7203ZM40.7679 5.56666L39.7044 14.1338L40.9747 14.2815L42.0382 5.71434L40.7679 5.56666ZM34.5346 5.27122C35.4208 4.44405 36.6912 4.08953 37.9024 4.23724C39.1136 4.38495 40.2362 5.00532 40.8566 5.9802L41.9201 5.3008C41.0633 3.94186 39.5567 3.17378 38.0501 2.99652C36.5139 2.81927 34.8891 3.23283 33.6779 4.35543L34.5346 5.27122ZM33.7664 13.6611L34.7414 4.85768L33.4711 4.70992L32.4962 13.5135L33.7664 13.6611ZM40.3542 14.1929L39.9408 14.6951L40.827 15.4337L40.9747 14.2815L40.3542 14.1929ZM41.4179 5.62571L42.0382 5.71434V5.47804L41.9496 5.27122L41.4179 5.62571ZM34.1209 4.79854L33.6779 4.32586L33.5005 4.47362V4.70992L34.0914 4.76897L34.1209 4.79854ZM33.146 13.6021L32.5257 13.5429L32.3781 14.7542L33.4415 14.1634L33.146 13.6021Z" fill="#1F1D1A"/>
<path d="M33.8846 10.5867C35.0958 10.0254 36.2185 9.78908 37.2524 9.90724C38.2864 10.0254 39.3205 10.4685 40.3249 11.3252L41.152 10.3504C39.9703 9.34593 38.7001 8.75513 37.3707 8.63696C36.0413 8.48925 34.6822 8.78464 33.3233 9.43456L33.8552 10.5867H33.8846Z" fill="#1F1D1A"/>
<path d="M26.8832 27.3978C26.7059 28.1068 26.9423 28.7568 27.4149 29.2295C27.8581 29.6726 28.5081 29.9385 29.1876 29.968L29.2761 28.6976C28.833 28.6976 28.5081 28.5204 28.3013 28.3136C28.1241 28.1363 28.065 27.9295 28.1241 27.6636L26.8832 27.3683V27.3978ZM29.0693 18.1512L26.8832 27.3978L28.1241 27.6932L30.3102 18.4466L29.0693 18.1512ZM43.1904 19.8942C43.2791 15.7583 40.3544 13.2767 37.1344 12.8926C33.9143 12.4791 30.3691 14.1039 29.0988 18.1216L30.3102 18.5057C31.3737 15.1379 34.2984 13.8085 36.9867 14.163C39.6455 14.5175 42.0088 16.4968 41.9201 19.8942H43.1904ZM43.1904 29.3771V19.8942H41.9201V29.3771H43.1904ZM40.3249 31.3564C40.9749 31.5041 41.6837 31.4155 42.2155 31.0905C42.7768 30.7656 43.1904 30.1452 43.1904 29.3771H41.9201C41.9201 29.6725 41.802 29.8498 41.5657 29.9975C41.3293 30.1452 40.9747 30.2043 40.5611 30.1157L40.2954 31.3564H40.3249ZM29.7193 18.3285L29.1284 18.1512V18.2103L29.7489 18.3579L29.7193 18.3285Z" fill="#1F1D1A"/>
<path d="M29.6601 27.7801C29.5124 28.4595 29.6601 29.0208 30.0146 29.464C30.3691 29.8776 30.8713 30.0844 31.3145 30.1435L31.4623 28.8731C31.2555 28.8731 31.0782 28.755 30.96 28.6368C30.8714 28.5482 30.8124 28.3709 30.8715 28.0755L29.6306 27.7801H29.6601ZM31.3736 18.622L29.6306 27.8096L30.8715 28.0459L32.6143 18.8584L31.3736 18.622ZM40.8271 19.3311C40.8271 15.4906 39.0841 13.009 36.7503 12.8023C34.4165 12.625 32.2008 14.7521 31.4032 18.5925L32.6439 18.8584C33.412 15.2543 35.3026 13.9545 36.6616 14.0726C38.0205 14.1908 39.5864 15.727 39.5864 19.3311H40.8567H40.8271ZM40.5316 28.814L40.8271 19.3311H39.5568L39.2613 28.755H40.5316V28.814ZM38.4638 31.0297C39.0546 30.9411 39.6158 30.7934 39.9998 30.3798C40.4134 29.9662 40.5022 29.4049 40.5022 28.814H39.2317C39.2317 29.2867 39.1431 29.4345 39.084 29.4935C38.9954 29.5822 38.8183 29.6708 38.2865 29.7594L38.4638 31.0297ZM30.251 27.9278L30.8715 28.0755L30.251 27.9573V27.9278Z" fill="#1F1D1A"/>
<path d="M32.4371 27.9592C32.3485 28.5501 32.4372 29.0228 32.5258 29.4069C32.644 29.7909 32.8212 30.0272 32.9099 30.1454L33.9733 29.4363C33.9733 29.4363 33.796 29.2 33.7369 28.9932C33.6779 28.816 33.6189 28.5205 33.678 28.1365L32.4371 27.9298V27.9592ZM33.7961 18.7126L32.4371 27.9592L33.678 28.1365L35.0368 18.8899L33.7961 18.7126ZM38.2865 19.008C38.4342 17.1764 38.375 15.7289 38.1682 14.7245C38.0796 14.2223 37.9319 13.7791 37.7546 13.4541C37.5774 13.1292 37.2525 12.8043 36.7798 12.7747C36.3072 12.7452 35.9527 13.011 35.6868 13.2769C35.4209 13.5723 35.1844 13.9564 34.9776 14.4291C34.5345 15.4039 34.1506 16.822 33.8256 18.6831L35.0664 18.8899C35.3913 17.0879 35.7753 15.7584 36.1298 14.9312C36.3071 14.5176 36.4845 14.2518 36.6322 14.1041C36.7799 13.9563 36.7798 14.0154 36.6911 14.0154C36.573 14.0154 36.573 13.9269 36.6911 14.0746C36.7798 14.2223 36.8685 14.4881 36.9571 14.9312C37.1343 15.7879 37.1933 17.0878 37.0456 18.8604L38.3159 18.949L38.2865 19.008ZM37.4593 28.4911L38.2865 19.008L37.0161 18.8899L36.189 28.3729L37.4593 28.4911ZM36.573 30.6476C36.898 30.3522 37.1638 30.0863 37.282 29.6727C37.4002 29.3182 37.4297 28.9342 37.4593 28.4911L36.189 28.4024C36.1594 28.9341 36.13 29.141 36.0709 29.2887C36.0413 29.3773 35.9821 29.4659 35.7162 29.7022L36.5435 30.6476H36.573ZM34.4459 18.8308L33.8256 18.7126L34.4459 18.8012V18.8308Z" fill="#1F1D1A"/>
<path d="M24.0768 28.5215C23.6337 28.6987 23.3086 28.9055 23.0723 29.1418C22.836 29.3782 22.7178 29.6441 22.7474 29.9395C22.7474 30.235 22.9542 30.4713 23.1314 30.6485C23.3382 30.8553 23.604 31.0325 23.8994 31.1802C24.4902 31.4757 25.2584 31.7415 25.9969 31.9188C26.7355 32.096 27.474 32.1847 28.0353 32.1552V31.5053C27.5331 31.5053 26.8536 31.4461 26.1446 31.2689C25.4356 31.0916 24.7267 30.8553 24.2245 30.5895C23.9586 30.4417 23.7517 30.3235 23.604 30.1758C23.4563 30.0281 23.4268 29.9395 23.3972 29.8509C23.3972 29.7918 23.3972 29.7032 23.5449 29.585C23.6926 29.4373 23.929 29.2896 24.3426 29.1124L24.0768 28.5215Z" fill="#1F1D1A"/>
<path d="M21.0634 28.9629C20.4725 29.1992 20.059 29.4652 19.7635 29.7606C19.4681 30.056 19.3204 30.3809 19.3499 30.7354C19.3794 31.0899 19.5862 31.3854 19.8521 31.6217C20.1179 31.8581 20.4725 32.0944 20.8566 32.3011C21.6247 32.7147 22.6291 33.0397 23.6335 33.2465C24.6084 33.4533 25.5832 33.5715 26.3218 33.5124L26.2628 32.8625C25.6129 32.9215 24.697 32.833 23.7516 32.6262C22.8063 32.4194 21.8609 32.1239 21.1519 31.7398C20.7974 31.5626 20.5021 31.3558 20.2953 31.1785C20.0885 30.9717 19.9999 30.8241 19.9999 30.7059C19.9999 30.5878 19.9998 30.44 20.2066 30.2627C20.4133 30.056 20.7385 29.8492 21.2998 29.6128L21.0338 29.022L21.0634 28.9629Z" fill="#1F1D1A"/>
<path d="M24.579 10.7361C22.0088 10.7066 19.7933 10.9724 18.1684 11.4155C17.3708 11.6223 16.6616 11.8882 16.1594 12.1836C15.6572 12.4495 15.2142 12.8041 15.0074 13.2472C14.8893 13.4835 14.8597 13.7494 14.9483 14.0152C15.0074 14.2811 15.1847 14.4879 15.3915 14.6652C15.7755 14.9901 16.3662 15.2265 17.1048 15.4037C18.641 15.7582 21.0635 15.9355 24.579 15.7287L24.5199 14.6357C21.0339 14.8129 18.7297 14.6357 17.3412 14.3402C16.6322 14.163 16.2481 13.9857 16.0709 13.838C15.9823 13.7789 15.9822 13.7199 15.9822 13.7199C15.9822 13.7199 15.9822 13.7199 15.9822 13.6903C16.0413 13.6017 16.1891 13.3949 16.6618 13.129C17.0754 12.8927 17.6957 12.6563 18.4342 12.4495C19.9409 12.0359 22.0383 11.7701 24.5199 11.8292V10.7361H24.579ZM23.7813 7.42743C20.3544 7.3388 17.8434 7.60465 16.2481 8.04778C15.4505 8.25458 14.8301 8.54999 14.387 8.87495C13.9734 9.19992 13.6484 9.70216 13.8257 10.293C13.9734 10.7952 14.4461 11.1497 14.9779 11.386C15.5392 11.6519 16.2481 11.8291 17.1639 11.9768C18.966 12.2427 21.477 12.2723 24.6675 11.8587L24.5199 10.7657C21.418 11.1793 18.9955 11.1497 17.3412 10.8838C16.514 10.7656 15.8936 10.5884 15.4504 10.3816C15.0073 10.1748 14.8891 9.99753 14.8891 9.96799C14.8891 9.93845 14.9482 9.87935 15.0664 9.76118C15.3027 9.55438 15.7754 9.34761 16.5139 9.14082C17.991 8.72723 20.3544 8.46135 23.7222 8.57952V7.48648L23.7813 7.42743ZM22.6291 3.58691C19.4386 3.82325 17.0457 4.23688 15.4504 4.73909C14.6528 4.97543 14.0324 5.24128 13.5893 5.5367C13.2052 5.80257 12.7621 6.24568 12.8507 6.80698C12.9098 7.07286 13.0575 7.3092 13.2348 7.45691C13.4121 7.60462 13.6485 7.75237 13.9144 7.87054C14.4166 8.07733 15.1255 8.25456 16.0413 8.40227C17.8138 8.66815 20.4136 8.72726 23.8405 8.52046L23.7813 7.42743C20.384 7.63422 17.8729 7.54557 16.189 7.30923C15.3323 7.19106 14.7415 7.04337 14.3574 6.86612C14.1506 6.77749 14.0324 6.71839 13.9734 6.65931C13.9143 6.60022 13.9142 6.60022 13.9438 6.65931C13.9438 6.77747 13.8552 6.7184 14.2097 6.48206C14.5052 6.27527 15.0368 6.03893 15.7754 5.83213C17.282 5.389 19.5864 4.97543 22.7178 4.73909L22.6291 3.64606V3.58691ZM24.638 11.2678L24.6971 11.7996L24.638 10.7065V11.2678ZM23.8109 7.95916V8.52046V7.42743V7.98873V7.95916Z" fill="#1F1D1A"/>
<path d="M26.0561 14.6656C25.0812 14.9019 23.9882 15.3746 22.7474 16.1722L23.3383 17.088C24.4904 16.3495 25.4947 15.9359 26.3514 15.7291L26.0857 14.6656H26.0561ZM22.5997 14.0452C23.4564 14.7542 24.4313 15.4928 26.0857 15.7291L26.2629 14.6361C24.904 14.4293 24.1063 13.8384 23.3087 13.1885L22.6291 14.0452H22.5997ZM26.1742 15.1974L26.2925 15.7291C26.5584 15.67 26.7059 15.4337 26.7059 15.1678C26.7059 14.902 26.4992 14.6951 26.2333 14.6656L26.1446 15.1974H26.1742Z" fill="#1F1D1A"/>
<path d="M10.6942 26.185C10.6942 25.3283 11.1374 24.4421 12.0532 23.5854C12.969 22.7287 14.3574 21.9015 16.1004 21.1925C19.5864 19.8041 24.4607 18.9177 29.8373 18.9177V17.6475C24.313 17.6475 19.2908 18.5337 15.6276 20.0108C13.796 20.7493 12.2598 21.6356 11.1963 22.6401C10.1033 23.6445 9.45346 24.8557 9.45346 26.185H10.7237H10.6942ZM29.8373 33.4524C24.4311 33.4524 19.5864 32.5661 16.1004 31.1776C14.3574 30.4686 12.969 29.671 12.0532 28.7848C11.1374 27.928 10.6942 27.0418 10.6942 26.185H9.42389C9.42389 27.5144 10.1033 28.6962 11.1668 29.7301C12.2598 30.7345 13.7665 31.6209 15.5981 32.3594C19.2613 33.8365 24.2834 34.7227 29.8078 34.7227V33.4524H29.8373ZM48.9807 26.185C48.9807 27.0418 48.5375 27.928 47.6217 28.7848C46.7059 29.6415 45.3174 30.4686 43.5744 31.1776C40.0885 32.5661 35.214 33.4524 29.8373 33.4524V34.7227C35.3617 34.7227 40.3838 33.8365 44.047 32.3594C45.8786 31.6209 47.4148 30.7345 48.4783 29.7301C49.5714 28.7257 50.2214 27.5144 50.2214 26.185H48.9511H48.9807ZM29.8373 18.9177C35.2435 18.9177 40.0885 19.8041 43.5744 21.1925C45.3174 21.9015 46.7059 22.6992 47.6217 23.5854C48.5375 24.4421 48.9807 25.3283 48.9807 26.185H50.2509C50.2509 24.8557 49.5714 23.674 48.5079 22.6401C47.4148 21.6356 45.9082 20.7493 44.0766 20.0108C40.4134 18.5337 35.3912 17.6475 29.8669 17.6475V18.9177H29.8373Z" fill="#1F1D1A"/>
<path d="M30.3101 49.9071C36.5434 49.8775 41.6837 48.1936 45.1992 44.3236C48.7147 40.4536 50.4873 34.5157 50.2509 26.1553H48.9806C49.217 34.3679 47.4444 39.9513 44.2538 43.4668C41.0633 46.9823 36.3071 48.5776 30.2805 48.6367V49.9071H30.3101ZM9.45346 26.8052C9.60117 35.461 11.7873 41.2808 15.5391 44.9145C19.2614 48.5481 24.4608 49.9071 30.3101 49.9071V48.6367C24.6085 48.6367 19.8226 47.3074 16.3958 43.9987C12.9984 40.69 10.8419 35.2542 10.6942 26.7756H9.42389L9.45346 26.8052Z" fill="#1F1D1A"/>
<path d="M37.4592 49.5535C37.7546 49.2285 37.9022 48.815 37.9318 48.4014H36.6615C36.6615 48.4014 36.6024 48.6082 36.5138 48.6968L37.4592 49.5535ZM22.4814 49.0808C22.6882 49.583 23.1018 49.9966 23.5744 50.292C24.0471 50.5874 24.638 50.8533 25.2879 51.0306C26.5878 51.4146 28.1829 51.5919 29.8077 51.6214C31.403 51.6214 33.0575 51.5033 34.4165 51.1783C35.0959 51.0306 35.7163 50.7943 36.248 50.5284C36.7503 50.2625 37.2229 49.908 37.5183 49.4648L36.4547 48.7854C36.3365 48.9627 36.1003 49.199 35.6867 49.4058C35.2732 49.6126 34.7709 49.7898 34.1505 49.9375C32.9097 50.2329 31.4031 50.3807 29.8669 50.3511C28.3307 50.3511 26.8537 50.1443 25.7015 49.7898C25.1107 49.6126 24.6379 49.4058 24.313 49.199C23.9585 48.9626 23.7812 48.7559 23.7221 48.5786L22.5405 49.0513L22.4814 49.0808ZM22.3633 48.4604C22.3633 48.4604 22.3633 48.6377 22.3633 48.7559C22.3633 48.874 22.4224 49.0808 22.5997 49.2876L23.4859 48.4014C23.4859 48.4014 23.5744 48.5195 23.5744 48.549V48.5786C23.5744 48.5786 23.5744 48.5195 23.5744 48.49H22.3041L22.3633 48.4604ZM36.9866 49.1399L36.5138 48.7263H36.4843V48.8149L37.016 49.1695L36.9866 49.1399ZM23.0723 48.8445L23.6631 48.6082L23.604 48.49L23.5155 48.4014L23.0723 48.8445Z" fill="#1F1D1A"/>
</svg>
