<svg width="63" height="64" viewBox="0 0 63 64" fill="none" xmlns="http://www.w3.org/2000/svg">
<path d="M57.7252 12.5532C56.0709 12.3169 50.7237 11.0762 48.2422 10.4854C44.6971 12.2579 37.932 15.8029 39.3796 15.8029C41.1521 15.8029 44.4017 19.9387 45.288 21.4158C46.1742 22.8929 49.4239 26.1426 51.7872 27.6197C56.2185 27.6197 58.2865 24.6655 59.1727 24.0747C60.059 23.4838 62.4224 19.6433 62.1269 17.5754C61.8315 15.5075 59.7636 12.8487 57.6956 12.5532H57.7252Z" fill="#FFFEF7"/>
<path d="M38.5817 15.803C38.4045 14.4736 39.0545 12.8193 40.1475 11.1354C41.2406 9.48103 42.6289 7.94478 43.722 6.91081L42.8358 5.99501C41.7132 7.05852 40.2065 8.68336 39.0839 10.4559C37.9613 12.1693 37.0456 14.1782 37.3114 16.0098L38.5817 15.8325V15.803ZM50.4577 5.22698C50.7235 5.64057 50.7235 6.17229 50.3985 6.94038C50.0736 7.70847 49.4531 8.5357 48.685 9.39241C47.1488 11.0763 45.1105 12.6125 44.0765 13.2624L44.7561 14.3554C45.9082 13.6464 48.0056 12.0512 49.66 10.2786C50.4871 9.39238 51.1963 8.41746 51.6098 7.47211C52.0234 6.52677 52.1711 5.46329 51.5803 4.54749L50.4872 5.22698H50.4577ZM51.8167 28.3583C55.1254 28.2401 58.0203 26.4086 59.9701 24.2225C60.945 23.1294 61.7426 21.9182 62.2153 20.7365C62.688 19.5844 62.9243 18.3731 62.747 17.3687L61.4768 17.6051C61.5949 18.2845 61.4769 19.2003 61.0337 20.2638C60.5906 21.2978 59.9111 22.3909 58.9953 23.3953C57.1933 25.4041 54.5935 26.9994 51.7279 27.1176L51.7871 28.3879L51.8167 28.3583ZM44.0765 13.2328C43.1311 13.7941 41.8018 14.444 40.5906 14.8872C39.9997 15.094 39.4385 15.2712 38.9954 15.3303C38.5227 15.4189 38.2863 15.3598 38.2272 15.3303L37.6364 16.4529C38.0795 16.6892 38.7 16.6597 39.2022 16.6007C39.7635 16.512 40.3838 16.3347 41.0338 16.0984C42.3041 15.6257 43.7221 14.9463 44.7265 14.3554L44.0765 13.2624V13.2328ZM43.7516 6.88133C45.1105 5.5224 46.6762 4.8429 48.0056 4.63611C48.6555 4.54748 49.2168 4.57699 49.66 4.69516C50.1031 4.81333 50.3691 5.02016 50.4872 5.19741L51.5803 4.51791C51.2258 3.95662 50.6644 3.6317 50.0145 3.45445C49.3645 3.27719 48.626 3.24766 47.8284 3.36582C46.2331 3.60216 44.4311 4.42935 42.8949 5.96553L43.7811 6.88133H43.7516ZM62.7766 17.3687C62.5698 16.2461 61.8608 15.2121 60.945 14.2373C60.0292 13.2624 58.8772 12.2579 57.6955 11.2831C56.5138 10.2786 55.3025 9.2742 54.2389 8.24023C53.1754 7.20626 52.3188 6.17233 51.7871 5.13836L50.6349 5.69967C51.2553 6.91089 52.2301 8.06297 53.3231 9.15603C54.4162 10.2195 55.6865 11.2536 56.8386 12.258C58.0203 13.2624 59.1134 14.2078 59.9701 15.1236C60.8268 16.0394 61.3291 16.8665 61.4768 17.6051L62.747 17.3687H62.7766ZM41.3882 17.93C41.8314 18.3731 42.5108 19.2003 43.3379 20.2047C44.1356 21.2091 45.081 22.3613 46.0559 23.4839C47.0308 24.6065 48.0352 25.6995 48.951 26.5858C49.4237 27.0289 49.8669 27.413 50.31 27.7084C50.7531 28.0038 51.1963 28.2401 51.6098 28.3583L51.9348 27.1176C51.6984 27.0585 51.403 26.9107 51.019 26.6744C50.6349 26.4085 50.2508 26.0836 49.8076 25.67C48.9214 24.8428 47.9762 23.8089 47.0013 22.6863C46.056 21.5637 45.1105 20.4411 44.3129 19.4367C43.5152 18.4322 42.7767 17.5755 42.304 17.0733L41.3882 17.9596V17.93ZM38.05 16.5711C39.5271 16.8961 40.5316 17.3096 41.477 18.0186L42.2449 16.9846C41.1223 16.1279 39.9111 15.6553 38.3453 15.3303L38.0796 16.5711H38.05ZM43.279 6.43822L43.722 6.91081L43.9288 6.73356V6.4677H43.279V6.43822ZM37.9319 15.8916L37.3114 15.9802L37.3706 16.3052L37.6659 16.4529L37.9615 15.8916H37.9319ZM43.279 6.43822L42.8358 5.99501L42.6585 6.17226V6.43822H43.3085H43.279ZM51.7871 27.738L51.6392 28.3583H51.7279H51.8167V27.7084L51.7871 27.738ZM41.8314 17.4869L42.2745 17.0438H42.2449L42.2155 16.9846L41.8314 17.4869Z" fill="#1F1D1A"/>
<path d="M60.8271 7.7088C60.8271 8.74277 60.3543 9.95394 59.793 10.9879C59.5271 11.4901 59.2613 11.9333 59.0545 12.2583C58.9658 12.4355 58.8478 12.5832 58.7887 12.6718C58.7591 12.7309 58.7295 12.79 58.7 12.8491C58.7 12.8491 58.6706 12.9082 58.641 12.9673C58.641 12.9968 58.6114 13.0854 58.6114 13.2036H59.8817V13.3808C59.8817 13.3808 59.8818 13.3513 59.9409 13.2922C60 13.2036 60.0884 13.0559 60.1771 12.9082C60.3839 12.5833 60.6793 12.1105 60.9452 11.5492C61.5065 10.4857 62.1269 9.03816 62.1269 7.67923H60.8567L60.8271 7.7088ZM54.9187 1.94808C55.2732 2.0367 55.8049 2.30261 56.4843 2.7162C57.1343 3.12978 57.8433 3.66151 58.5227 4.25235C59.1727 4.84319 59.7931 5.49312 60.2066 6.11351C60.6498 6.76343 60.8567 7.29521 60.8567 7.7088H62.1269C62.1269 6.91116 61.7428 6.11353 61.2701 5.40453C60.7679 4.66598 60.0886 3.957 59.3796 3.30707C58.6706 2.65715 57.9023 2.09583 57.1933 1.62316C56.4843 1.18003 55.8049 0.825531 55.2732 0.707363L54.9483 1.94808H54.9187ZM52.1417 5.93626C52.4372 5.16817 52.9393 4.016 53.5301 3.12974C53.8255 2.68661 54.1211 2.33211 54.387 2.12532C54.6528 1.91853 54.83 1.9186 54.8891 1.9186L55.214 0.677792C54.5937 0.530082 54.0324 0.766461 53.6188 1.09142C53.1757 1.41638 52.7916 1.88897 52.4667 2.39119C51.7872 3.39561 51.2554 4.6364 50.9304 5.46358L52.1417 5.90669V5.93626Z" fill="#1F1D1A"/>
<path fill-rule="evenodd" clip-rule="evenodd" d="M47.9467 10.1606C40.5612 8.0927 41.6544 9.42208 37.873 14.2965C39.3501 15.7736 43.4859 14.2965 47.9467 10.1606Z" fill="#FFFEF7"/>
<path fill-rule="evenodd" clip-rule="evenodd" d="M19.0544 32.6699C25.4355 29.6566 32.2893 29.5975 39.5862 32.6699C36.7206 33.7925 33.7073 34.0288 30.4872 34.0879C26.9421 34.0879 23.0426 33.8515 19.0544 32.6699Z" fill="#FFFEF7"/>
<path d="M30.4876 33.3504C26.9721 33.3504 23.1613 33.1141 19.2617 31.9619L18.8185 33.4094C22.8953 34.6502 26.913 34.8865 30.4581 34.8865V33.38L30.4876 33.3504ZM39.3207 31.9619C36.6028 33.0254 33.7077 33.2618 30.4876 33.3504V34.8571C33.7668 34.7684 36.8982 34.5616 39.882 33.38L39.3207 31.9915V31.9619ZM19.3798 33.3504C25.5541 30.4553 32.1715 30.3667 39.2911 33.3504L39.882 31.9619C32.4078 28.8009 25.3474 28.86 18.73 31.9619L19.3798 33.3208V33.3504ZM39.5866 32.6709L39.8524 33.38L41.5659 32.7005L39.882 31.9915L39.5866 32.6709Z" fill="#FFFEF7"/>
<path d="M13.0871 27.4412C13.0871 26.7322 13.4417 25.9937 14.2393 25.2551C15.037 24.5166 16.2186 23.8075 17.7253 23.2167C20.7385 22.0055 24.9336 21.2374 29.6012 21.2374V19.9671C24.8154 19.9671 20.4432 20.7352 17.2527 22.035C15.6574 22.685 14.328 23.4531 13.3827 24.3393C12.4373 25.2256 11.8464 26.2891 11.8464 27.4708H13.1167L13.0871 27.4412ZM29.6012 33.645C24.9336 33.645 20.709 32.8769 17.7253 31.6657C16.2186 31.0748 15.037 30.3658 14.2689 29.6273C13.4713 28.8887 13.1167 28.1502 13.1167 27.4412H11.8464C11.8464 28.6229 12.4373 29.6568 13.3827 30.5726C14.328 31.4589 15.6574 32.227 17.2527 32.8769C20.4432 34.1472 24.8154 34.9449 29.6012 34.9449V33.6746V33.645ZM46.0265 27.4412C46.0265 28.1502 45.672 28.8887 44.8744 29.6273C44.0767 30.3658 42.9246 31.0748 41.418 31.6657C38.4047 32.8769 34.2393 33.6155 29.6012 33.6155V34.8857C34.3575 34.8857 38.7001 34.1177 41.8906 32.8179C43.4859 32.1679 44.8152 31.3998 45.7606 30.5136C46.7059 29.6273 47.2968 28.5638 47.2968 27.3821H46.0265V27.4412ZM29.6012 21.2374C34.2393 21.2374 38.4343 22.0055 41.418 23.2167C42.9246 23.8075 44.1063 24.5166 44.8744 25.2551C45.672 25.9937 46.0265 26.7322 46.0265 27.4412H47.2968C47.2968 26.2595 46.7059 25.2255 45.7606 24.3097C44.8152 23.4235 43.4859 22.6554 41.8906 22.0055C38.7001 20.7352 34.3575 19.9375 29.6012 19.9375V21.2079V21.2374ZM29.6012 20.5874H30.251V19.9375H29.6012V20.5874ZM29.6012 20.5874H28.9512V21.2374H29.6012V20.5874Z" fill="#1F1D1A"/>
<path d="M29.9852 48.0039C35.3914 47.9743 39.8522 46.5268 42.9246 43.159C45.9674 39.7912 47.5036 34.6509 47.3263 27.4131H46.056C46.2333 34.5032 44.7266 39.289 41.9792 42.3023C39.2614 45.3156 35.1846 46.704 29.9852 46.7336V48.0039ZM11.9055 27.9744C12.0237 35.4781 13.9143 40.5298 17.1639 43.6907C20.4135 46.8517 24.904 48.0039 29.9852 48.0039V46.7336C25.0812 46.7336 20.9452 45.611 18.0501 42.775C15.1255 39.9389 13.294 35.2713 13.1758 27.9744H11.9055Z" fill="#1F1D1A"/>
<path d="M36.2185 47.7376C36.2185 47.7376 36.4548 47.4127 36.5139 47.2354C36.5729 47.0582 36.6321 46.7922 36.6321 46.5264H35.3619C35.3619 46.5264 35.3618 46.7332 35.3027 46.7922C35.3027 46.8218 35.3027 46.8514 35.2732 46.8514C35.2732 46.8514 35.2732 46.8513 35.3027 46.7922L36.2185 47.7081V47.7376ZM23.1314 47.2354C23.3087 47.7081 23.6928 48.0626 24.1064 48.3285C24.52 48.5944 25.0516 48.8012 25.6129 48.9784C26.7355 49.3034 28.1535 49.4806 29.542 49.5101C30.9305 49.5101 32.3486 49.4215 33.5303 49.1261C34.1211 48.9784 34.6823 48.8011 35.1255 48.5648C35.5686 48.3284 35.9822 48.0331 36.2481 47.6195L35.1846 46.9104C35.1846 46.9104 34.8891 47.2354 34.5346 47.4127C34.1801 47.5899 33.7369 47.7376 33.2052 47.8558C32.1417 48.0921 30.8418 48.2103 29.5124 48.2103C28.183 48.2103 26.9128 48.033 25.938 47.7376C25.4357 47.5899 25.0516 47.4127 24.7562 47.2354C24.4608 47.0582 24.3131 46.8809 24.254 46.7332L23.0723 47.2059L23.1314 47.2354ZM23.0133 46.7036C23.0133 46.7036 23.0133 46.8514 23.0133 46.9696C23.0133 47.0582 23.0723 47.2945 23.2495 47.4717L24.1653 46.5559C24.1653 46.5559 24.254 46.6741 24.254 46.7036C24.254 46.7332 24.254 46.7628 24.254 46.7628C24.254 46.7628 24.254 46.7627 24.254 46.7036H22.9838H23.0133ZM35.7459 47.2945L35.3027 46.8514L35.2436 46.9104V46.9696L35.7459 47.3241V47.2945ZM23.7223 46.999L24.313 46.7628L24.254 46.6446L24.1653 46.5559L23.7223 46.999Z" fill="#1F1D1A"/>
<path d="M39.3796 13.7346C36.898 16.1275 29.6011 22.1244 29.2171 30.5439C29.2171 30.8393 30.0443 30.928 30.1329 30.3076C30.4283 24.0742 38.7887 14.2958 40.2658 14.3549C44.6971 12.2574 41.1521 11.9621 39.3796 13.7346Z" fill="white"/>
<path d="M40.5907 15.0036C41.7133 14.4718 42.4518 14.0287 42.8063 13.5855C42.954 13.4083 43.2496 13.0242 43.1314 12.5515C42.9837 12.0198 42.5109 11.8721 42.3041 11.813C41.8315 11.7244 41.1815 11.8131 40.6202 12.0494C40.0294 12.2562 39.3795 12.6402 38.8478 13.172L39.9112 14.2355C40.2658 13.881 40.7088 13.6151 41.152 13.4673C41.3588 13.3787 41.5656 13.3492 41.7133 13.3197C41.8905 13.3197 41.9792 13.3197 41.9792 13.3197C41.9792 13.3197 41.9496 13.3197 41.8609 13.2606C41.7723 13.2015 41.6838 13.1129 41.6247 12.9356C41.5952 12.7879 41.6247 12.6698 41.6247 12.6107C41.6247 12.5811 41.6543 12.5516 41.6247 12.6107C41.5656 12.6698 41.4178 12.8175 41.1224 12.9948C40.827 13.172 40.443 13.4083 39.8817 13.6447L40.5317 15.0036H40.5907ZM30.8714 30.3063C30.9305 28.8883 31.4622 27.2044 32.2894 25.4615C33.1165 23.7185 34.2097 21.946 35.3323 20.3802C36.4549 18.785 37.6365 17.426 38.6114 16.4511C39.0841 15.9489 39.5271 15.5944 39.8521 15.3581C40.0294 15.2399 40.1475 15.1513 40.2362 15.1218C40.3248 15.1218 40.3543 15.0627 40.2362 15.1218L40.2953 13.6151C40.0294 13.6151 39.7636 13.7037 39.5863 13.7924C39.3795 13.881 39.1727 14.0287 38.9659 14.1764C38.5523 14.4718 38.0797 14.9149 37.5479 15.4171C36.514 16.4511 35.3026 17.8987 34.121 19.5235C32.9393 21.1483 31.7873 23.0094 30.9306 24.841C30.0738 26.6726 29.4238 28.5634 29.3647 30.2473L30.8714 30.3063ZM28.4785 30.4836C28.4785 30.9562 28.8035 31.2221 29.0102 31.3403C29.2466 31.4585 29.4829 31.488 29.7192 31.4585C29.9556 31.4585 30.2214 31.3698 30.4282 31.1631C30.6645 30.9563 30.8123 30.6904 30.8714 30.3359L29.3647 30.1586C29.3647 30.1586 29.3944 30.07 29.4535 30.0109C29.5125 29.9813 29.542 29.9518 29.5716 29.9518C29.5716 29.9518 29.6306 29.9518 29.6897 29.9518C29.7487 29.9518 29.9852 30.129 29.9852 30.454H28.4785V30.4836ZM38.8478 13.1424C37.6366 14.2946 35.1255 16.4511 32.9098 19.3757C30.6646 22.3004 28.6558 26.0227 28.4785 30.454L29.9852 30.5131C30.1624 26.525 31.9939 23.0686 34.121 20.2916C36.248 17.5147 38.6409 15.4762 39.9112 14.2355L38.8774 13.1424H38.8478ZM40.2657 14.2945V15.0331C40.2657 15.0331 40.4725 15.0331 40.5907 14.974L40.2657 14.2945ZM30.1329 30.2473L30.8714 30.3359C30.8714 30.3359 30.8714 30.3063 30.8714 30.2767H30.1329V30.2473Z" fill="#FFFEF7"/>
</svg>
