<svg width="61" height="64" viewBox="0 0 61 64" fill="none" xmlns="http://www.w3.org/2000/svg">
<path fill-rule="evenodd" clip-rule="evenodd" d="M50.4282 11.7866C43.1313 11.1958 37.3411 12.9092 33.5892 17.8132C39.2908 17.9018 44.9334 15.4203 50.4282 11.7866Z" fill="#DDEDF7"/>
<path d="M33.5595 18.549C39.4974 18.6377 45.2877 16.038 50.8121 12.4043L49.9848 11.134C44.5491 14.7085 39.0543 17.1015 33.5595 17.0129V18.5195V18.549ZM50.4576 11.0453C43.013 10.425 36.9274 12.1975 32.9688 17.3378L34.1504 18.2536C37.6954 13.645 43.1903 11.9316 50.3395 12.5224L50.4576 11.0159V11.0453ZM33.5595 17.8105L32.9688 17.3378C32.7915 17.5741 32.7619 17.8696 32.8801 18.1355C32.9982 18.4014 33.2641 18.549 33.5595 18.549V17.8105ZM50.3984 11.7839L50.8121 12.4043C51.078 12.2271 51.1961 11.9021 51.137 11.5772C51.0484 11.2522 50.7825 11.0454 50.4576 11.0159L50.3984 11.7544V11.7839Z" fill="#DDEDF7"/>
<path fill-rule="evenodd" clip-rule="evenodd" d="M19.6454 34.6513C26.0265 31.638 32.8803 31.5789 40.1772 34.6513C37.3116 35.7739 34.2983 36.0102 31.0782 36.0693C27.5331 36.0693 23.6336 35.833 19.6454 34.6513Z" fill="#BAC92C"/>
<path d="M31.0783 35.3299C27.5628 35.3299 23.752 35.0936 19.8524 33.9414L19.4092 35.389C23.486 36.6298 27.5037 36.8661 31.0488 36.8661V35.3595L31.0783 35.3299ZM39.9114 33.9414C37.1935 35.0049 34.2984 35.2413 31.0783 35.3299V36.8366C34.3575 36.7479 37.4889 36.5411 40.4727 35.3595L39.9114 33.971V33.9414ZM19.9705 35.3299C26.1448 32.4348 32.7622 32.3461 39.8818 35.3299L40.4727 33.9414C32.9985 30.7804 25.9381 30.8395 19.3207 33.9414L19.9705 35.3004V35.3299ZM40.1773 34.6505L40.4431 35.3595L42.1566 34.68L40.4727 33.971L40.1773 34.6505Z" fill="#BAC92C"/>
<path d="M13.6778 29.3914C13.6778 28.6824 14.0323 27.9438 14.83 27.2052C15.6276 26.4667 16.8093 25.7577 18.3159 25.1668C21.3292 23.9556 25.5242 23.1875 30.1918 23.1875V21.9173C25.406 21.9173 21.0338 22.6853 17.8433 23.9852C16.248 24.6351 14.9185 25.4032 13.9731 26.2894C13.0278 27.1757 12.4371 28.2392 12.4371 29.4209H13.7074L13.6778 29.3914ZM30.1918 35.5951C25.5242 35.5951 21.2996 34.8271 18.3159 33.6159C16.8093 33.025 15.6276 32.316 14.8595 31.5775C14.0619 30.8389 13.7074 30.1004 13.7074 29.3914H12.4371C12.4371 30.5731 13.0278 31.607 13.9731 32.5228C14.9185 33.4091 16.248 34.1772 17.8433 34.8271C21.0338 36.0974 25.406 36.895 30.1918 36.895V35.6247V35.5951ZM46.6172 29.3914C46.6172 30.1004 46.2626 30.8389 45.465 31.5775C44.6674 32.316 43.5153 33.025 42.0086 33.6159C38.9953 34.8271 34.8299 35.5656 30.1918 35.5656V36.8359C34.9481 36.8359 39.2907 36.0678 42.4812 34.768C44.0765 34.118 45.4059 33.3499 46.3512 32.4637C47.2966 31.5774 47.8874 30.5139 47.8874 29.3322H46.6172V29.3914ZM30.1918 23.1875C34.8299 23.1875 39.0249 23.9556 42.0086 25.1668C43.5153 25.7577 44.6969 26.4667 45.465 27.2052C46.2626 27.9438 46.6172 28.6824 46.6172 29.3914H47.8874C47.8874 28.2097 47.2966 27.1757 46.3512 26.2599C45.4059 25.3737 44.0765 24.6056 42.4812 23.9557C39.2907 22.6854 34.9481 21.8877 30.1918 21.8877V23.158V23.1875ZM30.1918 22.5376H30.8417V21.8877H30.1918V22.5376ZM30.1918 22.5376H29.5418V23.1875H30.1918V22.5376Z" fill="#1F1D1A"/>
<path d="M30.5761 49.9531C35.9823 49.9235 40.4429 48.4759 43.5153 45.1081C46.5581 41.7404 48.0944 36.6001 47.9172 29.3623H46.6469C46.8242 36.4524 45.3175 41.2382 42.5701 44.2515C39.8522 47.2648 35.7755 48.6532 30.5761 48.6828V49.9531ZM12.4962 29.9236C12.6144 37.4273 14.5052 42.479 17.7548 45.64C21.0044 48.801 25.4949 49.9531 30.5761 49.9531V48.6828C25.6721 48.6828 21.5361 47.5602 18.641 44.7242C15.7163 41.8881 13.8848 37.2205 13.7667 29.9236H12.4962Z" fill="#1F1D1A"/>
<path d="M36.8095 49.6868C36.8095 49.6868 37.0457 49.3618 37.1048 49.1846C37.1639 49.0073 37.2231 48.7415 37.2231 48.4756H35.9526C35.9526 48.4756 35.9527 48.6824 35.8937 48.7415C35.8937 48.771 35.8936 48.8005 35.8641 48.8005C35.8641 48.8005 35.8641 48.8005 35.8937 48.7415L36.8095 49.6572V49.6868ZM23.7224 49.1846C23.8996 49.6572 24.2835 50.0117 24.6971 50.2776C25.1107 50.5435 25.6425 50.7503 26.2038 50.9275C27.3264 51.2525 28.7445 51.4298 30.1329 51.4594C31.5214 51.4594 32.9394 51.3707 34.121 51.0753C34.7119 50.9276 35.2733 50.7503 35.7164 50.514C36.1595 50.2777 36.5731 49.9822 36.839 49.5686L35.7754 48.8596C35.7754 48.8596 35.48 49.1846 35.1255 49.3618C34.771 49.5391 34.3279 49.6868 33.7961 49.805C32.7326 50.0413 31.4328 50.1595 30.1034 50.1595C28.774 50.1595 27.5036 49.9822 26.5287 49.6868C26.0265 49.5391 25.6426 49.3618 25.3472 49.1846C25.0517 49.0073 24.9041 48.8301 24.845 48.6824L23.6632 49.1551L23.7224 49.1846ZM23.6041 48.6528C23.6041 48.6528 23.6041 48.8005 23.6041 48.9187C23.6041 49.0073 23.6632 49.2437 23.8405 49.421L24.7563 48.5052C24.7563 48.5052 24.845 48.6233 24.845 48.6528C24.845 48.6824 24.845 48.7119 24.845 48.7119C24.845 48.7119 24.845 48.7119 24.845 48.6528H23.5745H23.6041ZM36.3367 49.2437L35.8937 48.8005L35.8345 48.8596V48.9187L36.3367 49.2732V49.2437ZM24.3131 48.9483L24.9039 48.7119L24.845 48.5938L24.7563 48.5052L24.3131 48.9483Z" fill="#1F1D1A"/>
<path fill-rule="evenodd" clip-rule="evenodd" d="M56.0411 1.41595L60.3245 9.77629C60.7677 10.6921 60.4722 11.726 59.586 12.2578L56.5137 14.0008C55.5979 14.5325 54.6231 14.1485 54.0323 13.3214L47.4147 5.13818C46.7352 4.39963 48.0056 2.65668 48.9214 2.12493L51.9347 0.559205C52.8505 0.0274497 55.6274 0.559198 56.0705 1.475L56.0411 1.41595Z" fill="white"/>
<path d="M43.3381 4.9297C48.6852 1.03016 54.4755 -0.476528 56.1889 1.56187C57.991 3.65935 55.0663 8.47473 49.6601 12.4038C48.0057 13.615 47.0308 14.2059 45.3765 14.974C41.7723 16.5397 35.4504 18.5781 33.5597 17.8395C33.3233 16.6283 35.1255 13.8514 37.1639 11.3108C37.5479 10.6313 38.5819 9.27238 39.35 8.4452C40.5612 7.1749 41.8905 5.99318 43.3381 4.98875V4.9297Z" fill="white"/>
<path d="M39.8227 8.83194C41.0044 7.59118 42.3043 6.43909 43.7223 5.4642L42.9837 4.43021C41.5066 5.46418 40.1477 6.6459 38.9069 7.97529L39.8523 8.86151L39.8227 8.83194ZM37.7253 11.5498C38.0798 10.9295 39.0842 9.62964 39.8227 8.80246L38.8775 7.94572C38.1094 8.80243 37.0163 10.1909 36.6027 10.9295L37.7253 11.5498ZM34.1803 17.6651C34.1803 17.6651 34.1802 17.281 34.3279 16.8379C34.4757 16.4243 34.712 15.9221 35.0665 15.3608C35.7164 14.2382 36.6618 12.9383 37.6662 11.668L36.6619 10.8703C35.6279 12.1702 34.6529 13.5292 33.9735 14.7109C33.619 15.3017 33.3236 15.8925 33.1464 16.3947C32.9691 16.8969 32.8509 17.4287 32.9396 17.9014L34.2098 17.6651H34.1803ZM45.1108 14.3268C43.3383 15.0949 40.8863 16.0107 38.6411 16.6015C37.5185 16.8969 36.4845 17.1333 35.5982 17.2219C34.6824 17.3401 34.0916 17.281 33.7962 17.1628L33.3236 18.3445C33.944 18.6103 34.8301 18.5808 35.7755 18.4627C36.7208 18.3445 37.8435 18.1081 38.9956 17.7832C41.2999 17.1628 43.811 16.247 45.6426 15.4494L45.1404 14.2677L45.1108 14.3268ZM49.2762 11.8453C47.6514 13.027 46.7061 13.6178 45.1108 14.3268L45.6426 15.4789C47.356 14.7108 48.3604 14.0905 50.0443 12.8497L49.2762 11.8157V11.8453ZM55.7163 1.9487C56.0117 2.3032 56.1594 2.80538 56.0708 3.48485C55.9822 4.16432 55.6573 5.02108 55.096 5.93688C53.9734 7.79803 51.935 9.92505 49.2762 11.8453L50.0147 12.8793C52.7621 10.9 54.9187 8.65475 56.1595 6.58681C56.7799 5.55284 57.1935 4.54842 57.3117 3.63261C57.4299 2.68727 57.2525 1.80096 56.6617 1.09196L55.6869 1.91913L55.7163 1.9487ZM43.7223 5.43463C46.3515 3.5144 49.0398 2.21453 51.285 1.62369C52.4076 1.32827 53.3826 1.23969 54.1507 1.29877C54.9188 1.3874 55.4209 1.62374 55.7163 1.9487L56.6912 1.12153C56.1004 0.442062 55.2437 0.117115 54.2688 0.0284886C53.2939 -0.0601373 52.1713 0.0580162 50.9601 0.382978C48.5377 1.00336 45.6722 2.42133 42.9543 4.40064L43.7223 5.43463ZM58.8477 17.9014C60.2658 15.7152 60.9454 13.2928 60.6795 10.6045C60.4432 7.9457 59.2909 5.05058 57.1934 1.91913L56.1299 2.6282C58.1683 5.64148 59.2023 8.32977 59.4091 10.7227C59.6158 13.086 59.0546 15.2426 57.7843 17.1924L58.8477 17.9014ZM51.8463 22.894L58.7001 18.0786L57.9615 17.0446L51.1078 21.86L51.8463 22.894ZM40.3251 20.4715C43.8996 23.1894 48.5672 24.1052 51.6986 22.9826L51.2556 21.7713C48.6559 22.7167 44.4608 22.0077 41.1226 19.4671L40.3546 20.5011L40.3251 20.4715ZM33.9143 18.4922C36.6617 18.9354 38.6115 19.5262 40.384 20.5306L41.0045 19.408C39.0251 18.315 36.9278 17.6946 34.0917 17.2219L33.8849 18.4922H33.9143ZM43.3382 4.93247L43.7223 5.4642L43.9882 5.28696V4.96195H43.3382V4.93247ZM37.164 11.2544L37.6662 11.6385H37.6958V11.5498L37.1345 11.2248L37.164 11.2544ZM33.5598 17.7832L32.9396 17.9014L32.9985 18.2558L33.3236 18.374L33.5598 17.7832ZM56.1891 1.50559L55.6869 1.91913L56.1595 1.50559H56.1891ZM43.3382 4.87333L42.9543 4.37116L42.6884 4.54841V4.87333H43.3382ZM58.316 17.5173L58.6705 18.0491L58.7592 17.99L58.8184 17.9014L58.2864 17.5469L58.316 17.5173ZM51.4623 22.3326L51.6986 22.9235H51.7874L51.8463 22.8349L51.4918 22.3031L51.4623 22.3326ZM40.7091 19.9398L41.0932 19.4376H41.0636L41.034 19.3785L40.7091 19.9398Z" fill="#1F1D1A"/>
<path fill-rule="evenodd" clip-rule="evenodd" d="M36.2188 15.1526C33.7372 17.5455 30.1923 24.0152 29.8378 32.4347C29.8378 32.7301 30.6649 32.8187 30.7536 32.1983C31.049 25.9649 37.4596 15.5662 38.8776 15.6548C39.4684 15.6548 36.9278 15.6548 36.2483 15.123L36.2188 15.1526Z" fill="#DDEDF7"/>
<path d="M38.848 16.4222C38.848 16.4222 38.907 16.4222 38.9365 16.4222C38.9365 16.4222 38.9366 16.4222 38.9957 16.4222C38.9957 16.4222 38.9957 16.4222 39.0548 16.4222C39.0548 16.4222 39.0842 16.4222 39.1138 16.4222C39.1138 16.4222 39.2025 16.3927 39.2616 16.3632C39.3503 16.3041 39.5865 16.0973 39.6751 15.8905C39.6751 15.5951 39.4979 15.152 39.3797 15.0633C39.3206 15.0338 39.232 14.9747 39.2025 14.9747H39.1433C39.0843 14.9747 39.0548 14.9747 39.0548 14.9747C39.0548 14.9747 38.9367 14.9747 38.8776 14.9747C38.7299 14.9747 38.4344 14.9746 38.139 14.9156C37.8436 14.886 37.4891 14.827 37.2232 14.7679C37.0755 14.7383 36.9572 14.7088 36.8686 14.6793C36.8095 14.6793 36.78 14.6498 36.7505 14.6202H36.7209L35.8051 15.8019C36.1005 16.0382 36.5436 16.1564 36.8686 16.245C37.2231 16.3336 37.6368 16.3927 37.9618 16.4222C38.3163 16.4518 38.6116 16.4814 38.7889 16.4814C38.8184 16.4814 38.8774 16.4814 38.907 16.4814C38.9365 16.4814 38.9365 16.4814 38.907 16.4814C38.907 16.4814 38.9071 16.4814 38.848 16.4814H38.7889C38.7593 16.4814 38.6707 16.4222 38.6116 16.3927C38.4934 16.304 38.2867 15.8609 38.3163 15.5655C38.4049 15.3587 38.6411 15.1224 38.7297 15.0929C38.7593 15.0929 38.848 15.0633 38.8776 15.0338H38.9365C38.9365 15.0338 38.9661 15.0338 38.9957 15.0338V16.5404L38.848 16.4222ZM31.4921 32.2568C31.6398 29.3026 33.2349 25.2848 35.037 21.9466C35.9232 20.2922 36.839 18.8447 37.6367 17.8107C38.0207 17.3085 38.3753 16.9245 38.6412 16.6586C38.7889 16.5405 38.8774 16.4518 38.9365 16.4222C39.0252 16.3632 38.9662 16.4222 38.848 16.4222L38.9365 14.9156C38.6411 14.9156 38.3752 15.0338 38.198 15.1224C38.0207 15.2405 37.8139 15.3883 37.6367 15.536C37.2822 15.861 36.8687 16.3336 36.4551 16.8653C35.6279 17.9584 34.6529 19.4946 33.7371 21.1785C31.9055 24.5759 30.1627 28.8299 30.015 32.1386L31.5215 32.1976L31.4921 32.2568ZM29.0992 32.434C29.0992 32.9067 29.4241 33.1725 29.6309 33.2907C29.8673 33.4088 30.1036 33.4384 30.3399 33.4089C30.5762 33.4089 30.8421 33.3202 31.0489 33.1134C31.2852 32.9066 31.433 32.6408 31.4921 32.2863L29.9854 32.109C29.9854 32.109 30.0149 32.0204 30.0739 31.9613C30.133 31.9318 30.1627 31.9022 30.1922 31.9022C30.1922 31.9022 30.2512 31.9022 30.3103 31.9022C30.3694 31.9022 30.6057 32.0795 30.6057 32.4045H29.0992V32.434ZM35.7166 14.5906C33.0873 17.1608 29.4832 23.8077 29.0992 32.3749L30.6057 32.434C30.9602 24.1623 34.4462 17.8993 36.78 15.6541L35.7461 14.5611L35.7166 14.5906ZM36.2483 15.1224L36.7209 14.5316C36.4845 14.3543 36.1892 14.3248 35.9234 14.443C35.6575 14.5611 35.5097 14.827 35.5097 15.1224H36.2483ZM30.7535 32.1976L31.4921 32.2863C31.4921 32.2863 31.4921 32.2568 31.4921 32.2272H30.7535V32.1976ZM36.2187 15.0929L36.7505 15.6246C36.7505 15.6246 36.9868 15.2997 36.9868 15.0929H36.2483H36.2187Z" fill="#DDEDF7"/>
</svg>
