<svg width="60" height="65" viewBox="0 0 60 65" fill="none" xmlns="http://www.w3.org/2000/svg">
<path d="M10.2218 29.2059C10.2218 28.3787 10.6352 27.522 11.551 26.6653C12.4668 25.8086 13.8259 25.0109 15.5688 24.3019C19.0548 22.9134 23.9292 22.0272 29.3353 22.0272V20.5205C23.7814 20.5205 18.7003 21.4068 15.0075 22.8839C13.1464 23.6225 11.6102 24.5087 10.5171 25.5427C9.42405 26.5766 8.71509 27.7879 8.71509 29.1468H10.2218V29.2059ZM29.3353 36.4141C23.9292 36.4141 19.0548 35.5279 15.5688 34.1098C13.8259 33.4008 12.4668 32.6032 11.551 31.7169C10.6352 30.8602 10.2218 30.0036 10.2218 29.1764H8.71509C8.71509 30.5353 9.42405 31.776 10.5171 32.81C11.6102 33.844 13.1464 34.7598 15.0075 35.4983C18.7003 36.9754 23.7814 37.8912 29.3353 37.8912V36.3845V36.4141ZM48.4491 29.2059C48.4491 30.033 48.0355 30.8898 47.1197 31.7465C46.2039 32.6032 44.8448 33.4304 43.1018 34.1394C39.6159 35.5574 34.7711 36.4437 29.3353 36.4437V37.9503C34.8892 37.9503 39.9704 37.0345 43.6631 35.5574C45.5243 34.8188 47.0605 33.9031 48.1536 32.8691C49.2466 31.8352 49.9556 30.5944 49.9556 29.2354H48.4491V29.2059ZM29.3353 22.0567C34.7415 22.0567 39.6159 22.9429 43.1018 24.3019C44.8448 24.9813 46.2039 25.8086 47.1197 26.6653C48.0355 27.522 48.4491 28.3787 48.4491 29.2059H49.9556C49.9556 27.8469 49.2466 26.6062 48.1536 25.6017C47.0605 24.5678 45.5243 23.6815 43.6631 22.943C39.9704 21.4659 34.8892 20.5796 29.3353 20.5796V22.0862V22.0567Z" fill="#1F1D1A"/>
<path d="M29.7784 53.1047C36.0708 53.0752 41.2701 51.3913 44.8151 47.4918C48.3602 43.5922 50.1328 37.5952 49.926 29.1758H48.4193C48.6557 37.418 46.883 42.9718 43.6925 46.4873C40.5315 49.9733 35.8049 51.5685 29.7488 51.6276V53.1343L29.7784 53.1047ZM8.80344 29.8257C8.95115 38.5406 11.1373 44.4194 14.9186 48.0826C18.6705 51.7458 23.8995 53.1047 29.7784 53.1047V51.5981C24.0767 51.5981 19.3501 50.2983 15.9527 46.9896C12.5849 43.6809 10.4282 38.2747 10.2805 29.7666H8.77386L8.80344 29.8257Z" fill="#1F1D1A"/>
<path d="M37.1048 52.6927C37.4002 52.3677 37.5774 51.9246 37.6069 51.4519L36.1003 51.3929C36.1003 51.3929 36.0708 51.5996 35.9822 51.6587L37.1048 52.6631V52.6927ZM21.8612 52.161C22.068 52.7223 22.511 53.1359 23.0132 53.4608C23.5154 53.7858 24.1064 54.0221 24.7858 54.2289C26.1152 54.6129 27.74 54.8197 29.3648 54.8197C30.9896 54.8197 32.644 54.672 34.0029 54.3471C34.6824 54.1698 35.3323 53.963 35.8641 53.6971C36.3958 53.4312 36.8684 53.0768 37.1933 52.6041L35.9526 51.7769C35.8344 51.9542 35.6276 52.1609 35.2141 52.3677C34.83 52.5745 34.2984 52.7518 33.678 52.8995C32.4372 53.1949 30.9306 53.3426 29.3944 53.3131C27.8582 53.3131 26.381 53.1063 25.2289 52.7813C24.6676 52.6041 24.195 52.4268 23.8405 52.1905C23.486 51.9837 23.3382 51.7769 23.2792 51.5997L21.8906 52.161H21.8612ZM21.7429 51.511C21.7429 51.511 21.7429 51.7178 21.7429 51.836C21.7429 51.9541 21.8021 52.22 22.0089 52.4268L23.0723 51.3633C23.0723 51.3633 23.1904 51.511 23.1904 51.5405C23.1904 51.5701 23.1904 51.5996 23.1904 51.6291C23.1904 51.6291 23.1904 51.5701 23.1904 51.5405H21.6838L21.7429 51.511ZM36.5435 52.1905L35.9822 51.6883H35.9526L35.923 51.7769L36.5435 52.1905ZM22.5702 51.895L23.2792 51.6291L23.22 51.4815L23.1019 51.3633L22.5702 51.895Z" fill="#1F1D1A"/>
<path d="M39.3795 24.4207C41.1815 21.9982 42.8948 19.6348 44.9628 17.5669L44.1948 16.7989C42.0678 18.9259 40.2951 21.3778 38.4931 23.7707L39.3795 24.4207ZM37.666 22.914C34.9777 24.0366 33.3233 25.1592 32.4666 26.1636C32.053 26.6658 31.7871 27.1681 31.7576 27.6407C31.7281 28.1725 31.9643 28.6157 32.4074 28.8815C32.821 29.1179 33.3234 29.177 33.8551 29.0884C34.3869 28.9997 34.9777 28.7929 35.6276 28.4384C36.8684 27.7294 38.2568 26.4296 39.4384 24.3616L38.4931 23.8298C37.4 25.75 36.1594 26.9022 35.0959 27.5225C34.5641 27.818 34.0914 27.9657 33.7369 28.0248C33.3528 28.0839 33.1165 28.0248 32.9983 27.9657C32.9392 27.9362 32.9393 27.9067 32.9098 27.8771C32.9098 27.8771 32.9098 27.818 32.9098 27.7294C32.9098 27.5816 33.0278 27.2863 33.3528 26.8727C33.6778 26.4887 34.2095 26.0159 35.0071 25.5137C35.8048 25.0115 36.8092 24.4798 38.1386 23.9185L37.7251 22.914H37.666ZM43.279 16.0603C41.152 18.2464 39.3794 20.8165 37.4592 23.0912L38.2864 23.8003C40.2953 21.4074 41.9495 19.0145 44.047 16.8284L43.2495 16.0603H43.279ZM57.3409 1.31881L43.279 16.0603L44.0766 16.8284L58.1386 2.08693L57.3409 1.31881ZM59.3203 2.50057L58.109 1.28933L57.3409 2.05736L58.5522 3.2686L59.3203 2.50057ZM44.9628 17.5669L59.3203 3.2686L58.5522 2.50057L44.1948 16.7989L44.9628 17.5669ZM38.9363 24.0957L38.4931 23.7707V23.8298L38.9658 24.0957H38.9363ZM37.8728 23.4163L38.0796 23.9185L38.1977 23.8594L38.2864 23.7707L37.8728 23.4163ZM57.7249 1.6733L58.109 1.28933L57.7249 0.905273L57.3409 1.31881L57.7249 1.70287V1.6733ZM58.9363 2.88454L59.3203 3.2686L59.7044 2.88454L59.3203 2.50057L58.9363 2.88454Z" fill="#1F1D1A"/>
<path d="M39.557 24.5387C41.3886 22.1162 43.0724 19.7529 45.1403 17.7145L44.0769 16.6509C41.9203 18.8075 40.1478 21.2595 38.3753 23.6524L39.557 24.5387ZM37.6072 22.7366C34.8893 23.8592 33.2055 25.0113 32.3488 26.0453C31.9056 26.5475 31.6397 27.1088 31.5807 27.6405C31.5511 28.2314 31.817 28.7632 32.3192 29.0586C32.7623 29.3245 33.3531 29.3835 33.8848 29.2949C34.4461 29.2063 35.0665 28.9995 35.7164 28.6155C36.9867 27.8769 38.4049 26.5475 39.5866 24.4501L38.2867 23.7115C37.1937 25.6022 35.9825 26.7248 34.9485 27.3156C34.4463 27.611 34.0031 27.7588 33.6486 27.7883C33.2941 27.8474 33.1168 27.7883 33.0578 27.7292C33.0578 27.7292 33.0578 27.7292 33.0578 27.6997C33.0578 27.6406 33.0577 27.5814 33.1463 27.4337C33.2054 27.3156 33.3237 27.1384 33.4714 26.9611C33.7963 26.5771 34.2985 26.1339 35.0962 25.6317C35.8642 25.1295 36.8982 24.5977 38.198 24.066L37.6367 22.6775L37.6072 22.7366ZM43.1315 15.9124C41.0045 18.0985 39.2025 20.6982 37.3118 22.9434L38.464 23.9183C40.4728 21.5254 42.127 19.1325 44.2245 16.9759L43.1611 15.9419L43.1315 15.9124ZM57.1935 1.17095L43.1315 15.9124L44.2245 16.9464L58.2865 2.20494L57.1935 1.17095ZM59.4683 2.35262L58.257 1.14138L57.1935 2.20494L58.4048 3.41617L59.4683 2.35262ZM45.1109 17.6849L59.4683 3.3866L58.4048 2.32304L44.0473 16.6214L45.1109 17.6849ZM38.9366 24.066L38.3457 23.6229V23.7115L38.9957 24.0956L38.9366 24.066ZM37.8731 23.3865L38.1685 24.066L38.3457 24.0069L38.464 23.8592L37.9027 23.3865H37.8731ZM57.7252 1.64364L58.257 1.1119L57.7252 0.580078L57.1935 1.14138L57.7252 1.64364ZM58.9366 2.85487L59.4683 3.3866L60 2.85487L59.4683 2.32304L58.9366 2.85487Z" fill="#1F1D1A"/>
<path fill-rule="evenodd" clip-rule="evenodd" d="M32.9395 27.0182C32.6441 26.575 33.0871 26.1023 33.3234 25.9546C33.3234 25.5705 33.4712 25.1275 33.7666 24.8911C33.8552 24.448 34.0621 24.3003 34.3575 24.2116C34.5052 23.8276 34.8006 23.6208 35.096 23.6799C35.3914 23.7685 35.5391 23.9753 35.6278 24.2116C35.8641 24.2116 36.0119 24.3594 36.071 24.5957C36.3073 24.6843 36.5139 24.7434 36.6617 25.0388C37.0457 25.1274 37.4003 25.4819 37.6366 25.7774C36.898 26.4568 36.2777 26.9886 35.4505 27.284C34.0325 27.8158 33.1167 27.3726 32.8804 26.9886L32.9395 27.0182Z" fill="#BAC92C"/>
<path d="M35.3915 27.0499C34.712 27.2862 34.2099 27.3157 33.8259 27.2271C33.4418 27.1385 33.2645 26.9612 33.2054 26.8726L32.7032 27.168C32.8805 27.4634 33.2349 27.6998 33.7371 27.7884C34.2394 27.9066 34.8598 27.877 35.6279 27.5816L35.4211 27.0203L35.3915 27.0499ZM37.489 25.6022C36.7209 26.2817 36.1596 26.784 35.4211 27.0499L35.6279 27.6112C36.5141 27.2862 37.1641 26.7248 37.9027 26.0454L37.489 25.6022ZM36.6618 25.366C36.6618 25.366 36.9277 25.4545 37.0754 25.6022C37.2231 25.7204 37.3708 25.8682 37.4595 26.0159L37.9321 25.6614C37.8139 25.4841 37.6367 25.3068 37.4595 25.1591C37.2822 25.0114 37.0459 24.8637 36.7801 24.8046L36.6618 25.3955V25.366ZM36.0119 24.8933C36.2483 24.9819 36.3369 25.0115 36.4256 25.1887L36.9573 24.9228C36.7505 24.5093 36.4255 24.391 36.1892 24.332L36.0119 24.8933ZM35.6574 24.5388C35.6574 24.5388 35.7164 24.5388 35.746 24.5388C35.746 24.5388 35.8051 24.5978 35.8347 24.6865L36.396 24.5092C36.3074 24.2138 36.071 23.9184 35.6574 23.9184V24.5092V24.5388ZM35.0666 24.007C35.2438 24.0366 35.3324 24.1547 35.3915 24.332L35.9528 24.1547C35.8642 23.8593 35.6574 23.5344 35.2142 23.4457L35.0666 24.0365V24.007ZM34.6529 24.3615C34.7711 24.0366 34.9779 24.007 35.0666 24.007L35.2142 23.4162C34.712 23.298 34.2985 23.682 34.1212 24.1251L34.6825 24.3615H34.6529ZM34.0621 24.9819C34.0916 24.8046 34.1508 24.7161 34.1803 24.657C34.2394 24.5979 34.2986 24.5683 34.4167 24.5388L34.2689 23.9479C34.0916 24.007 33.9144 24.0661 33.7371 24.2138C33.5894 24.3615 33.4713 24.5978 33.4418 24.8637L34.0327 24.9523L34.0621 24.9819ZM33.619 25.9863C33.619 25.6613 33.7667 25.3364 33.944 25.1887L33.5895 24.716C33.1759 25.0114 33.0282 25.5727 33.0282 26.0159H33.619V25.9863ZM33.2054 26.8726C33.2054 26.8726 33.1463 26.6658 33.2054 26.5476C33.2645 26.3999 33.4121 26.2817 33.5008 26.2522L33.1758 25.75C33.1758 25.75 32.8214 26.0159 32.7032 26.2817C32.5555 26.5476 32.4965 26.8726 32.7032 27.2271L33.2054 26.9021V26.8726ZM32.969 27.0499L33.235 26.9021L33.1463 26.7544H32.969V27.0499ZM35.5392 27.3452L35.4506 27.0499L35.5687 27.3452H35.5392ZM37.7254 25.8386L37.9321 26.0749L38.1389 25.8977L37.9616 25.6909L37.7254 25.8681V25.8386ZM36.7505 25.1001L36.4845 25.2478L36.5437 25.366H36.6913L36.7505 25.1001ZM36.1596 24.657L35.8643 24.7456L35.9232 24.8933L36.0711 24.9523L36.1596 24.657ZM35.7164 24.2729L35.4211 24.3615L35.4802 24.5683H35.687V24.2729H35.7164ZM34.4461 24.2729L34.5053 24.5683H34.6529L34.7121 24.391L34.4461 24.2729ZM33.8554 24.9523L34.0327 25.1887L34.1212 25.1296V25.0115L33.8554 24.9523ZM33.4122 26.0159L33.5895 26.2522L33.7371 26.1636V26.0159H33.4418H33.4122ZM33.0282 27.0793L32.7918 27.2566L32.8805 27.4044H33.0282V27.1089V27.0793Z" fill="#BAC92C"/>
<path fill-rule="evenodd" clip-rule="evenodd" d="M33.9143 29.1162C34.062 29.1162 34.1507 29.2049 34.1507 29.3526C34.1507 29.5003 34.062 29.5889 33.9143 29.5889C33.8553 29.5889 33.7962 29.5889 33.7667 29.5298C33.7371 29.4708 33.7075 29.4412 33.7075 29.3821C33.7075 29.323 33.7076 29.2639 33.7667 29.2344C33.8257 29.2049 33.8553 29.1754 33.9143 29.1754V29.1162Z" fill="#BAC92C"/>
<path d="M34.0027 29.4129C34.0027 29.4129 33.9731 29.4129 33.9436 29.4129V28.7334C33.7663 28.7334 33.6186 28.7925 33.5299 28.9106L34.0027 29.3833V29.4129ZM34.0027 29.3538V29.4129L33.5299 28.9402C33.5299 28.9402 33.3822 29.1766 33.3527 29.3243H34.0323L34.0027 29.3538ZM34.0027 29.2947C34.0027 29.2947 34.0027 29.3243 34.0027 29.3538H33.3231C33.3231 29.5311 33.3822 29.6788 33.5004 29.7674L33.9731 29.2947H34.0027ZM33.9436 29.2947H34.0027L33.5299 29.7674C33.5299 29.7674 33.7663 29.9151 33.914 29.9446V29.2652L33.9436 29.2947ZM33.855 29.4129C33.855 29.4129 33.8549 29.4129 33.8844 29.3538C33.9435 29.2948 33.9731 29.3243 33.9436 29.3243V30.0038C33.9436 30.0038 34.239 29.9742 34.3572 29.856C34.4754 29.7378 34.5049 29.5606 34.5049 29.4425H33.8255L33.855 29.4129ZM33.9731 29.5311C33.9731 29.5311 33.9731 29.5311 33.914 29.5015C33.8549 29.4424 33.8844 29.4129 33.8844 29.4425H34.564C34.564 29.4425 34.5345 29.147 34.4163 29.0288C34.2982 28.9107 34.1209 28.8812 34.0027 28.8812V29.5606L33.9731 29.5311Z" fill="#BAC92C"/>
<path fill-rule="evenodd" clip-rule="evenodd" d="M35.1842 28.6729C35.1842 28.6729 35.3025 28.6728 35.3321 28.7319C35.3616 28.7614 35.391 28.8206 35.391 28.8797C35.391 29.0274 35.3026 29.116 35.1548 29.116C35.0071 29.116 34.9185 29.0274 34.9185 28.8797C34.9185 28.8206 34.9183 28.7614 34.9774 28.7319C35.007 28.7024 35.0662 28.6729 35.1253 28.6729H35.1842Z" fill="#BAC92C"/>
<path d="M35.2734 28.9676C35.2734 28.9676 35.2438 28.9676 35.2143 28.9676V28.2881C35.037 28.2881 34.8893 28.3472 34.8006 28.4653L35.2734 28.938V28.9676ZM35.2734 28.9084V28.9676L34.8006 28.4949C34.8006 28.4949 34.6529 28.7313 34.6234 28.879H35.303L35.2734 28.9084ZM35.1553 28.8198C35.1553 28.8198 35.1552 28.8198 35.2143 28.8494C35.2733 28.9085 35.2438 28.938 35.2438 28.9084H34.5644C34.5644 28.9084 34.5939 29.2039 34.7121 29.3221C34.8303 29.4402 34.978 29.4697 35.1257 29.4697V28.7903L35.1553 28.8198ZM35.037 28.938C35.037 28.938 35.037 28.938 35.0666 28.879C35.1257 28.8199 35.1553 28.8494 35.1257 28.8494V29.5289C35.1257 29.5289 35.421 29.4993 35.5392 29.3811C35.6573 29.263 35.687 29.0858 35.687 28.9676H35.0074L35.037 28.938ZM35.037 29.0266C35.037 29.0266 35.037 28.9971 35.037 28.9676H35.7164C35.7164 28.7903 35.6573 28.6426 35.5392 28.554L35.0666 29.0266H35.037ZM35.0962 29.0266H35.037L35.5098 28.554C35.5098 28.554 35.2734 28.4063 35.1257 28.3767V29.0562L35.0962 29.0266Z" fill="#BAC92C"/>
<path fill-rule="evenodd" clip-rule="evenodd" d="M35.8047 28.3784C35.8047 28.3784 35.9229 28.3784 35.9524 28.4375C35.982 28.4966 36.0116 28.5261 36.0116 28.5852C36.0116 28.6443 36.0115 28.7033 35.9524 28.7329C35.8933 28.7624 35.8638 28.792 35.8047 28.792C35.657 28.792 35.5684 28.7033 35.5684 28.5556C35.5684 28.4079 35.657 28.3193 35.8047 28.3193V28.3784Z" fill="#BAC92C"/>
<path d="M35.8938 28.5848C35.8938 28.5848 35.8938 28.5847 35.8642 28.6438C35.8051 28.7029 35.7755 28.6734 35.8051 28.6734V27.9939C35.8051 27.9939 35.5096 28.0235 35.3914 28.1417C35.2733 28.2598 35.2438 28.437 35.2438 28.5552H35.9232L35.8938 28.5848ZM35.7755 28.4666C35.7755 28.4666 35.7756 28.4666 35.8346 28.4961C35.8937 28.5552 35.8642 28.5847 35.8642 28.5552H35.1846C35.1846 28.5552 35.2143 28.8507 35.3325 28.9688C35.4507 29.087 35.6278 29.1165 35.7459 29.1165V28.4371L35.7755 28.4666ZM35.687 28.4666C35.687 28.4666 35.7164 28.4666 35.7459 28.4666V29.1461C35.9232 29.1461 36.0709 29.087 36.1596 28.9688L35.687 28.4961V28.4666ZM35.687 28.5257V28.4666L36.1596 28.9393C36.1596 28.9393 36.3073 28.7029 36.3368 28.5552H35.6574L35.687 28.5257ZM35.687 28.5848C35.687 28.5848 35.687 28.5553 35.687 28.5257H36.3664C36.3664 28.3485 36.3073 28.2007 36.1891 28.1121L35.7164 28.5848H35.687ZM35.7459 28.5848H35.687L36.1596 28.1121C36.1596 28.1121 35.9232 27.9644 35.7755 27.9348V28.6143L35.7459 28.5848Z" fill="#BAC92C"/>
<path fill-rule="evenodd" clip-rule="evenodd" d="M36.6911 28.8809C36.8388 28.8809 36.9275 28.9694 36.9275 29.1172C36.9275 29.2649 36.8388 29.3535 36.6911 29.3535C36.632 29.3535 36.573 29.3535 36.5435 29.2944C36.5139 29.2353 36.4843 29.2058 36.4843 29.1467C36.4843 29.0876 36.4844 29.0285 36.5435 28.999C36.573 28.9694 36.632 28.9399 36.6911 28.9399V28.8809Z" fill="#BAC92C"/>
<path d="M36.7799 29.2048C36.7799 29.2048 36.7503 29.2048 36.7207 29.2048V28.5254C36.5435 28.5254 36.3957 28.5845 36.3071 28.7026L36.7799 29.1753V29.2048ZM36.7799 29.1457V29.2048L36.3071 28.7321C36.3071 28.7321 36.1594 28.9685 36.1299 29.1162H36.8094L36.7799 29.1457ZM36.7799 29.0867C36.7799 29.0867 36.7799 29.1162 36.7799 29.1457H36.1003C36.1003 29.323 36.1594 29.4707 36.2775 29.5593L36.7503 29.0867H36.7799ZM36.7207 29.0867H36.7799L36.3071 29.5593C36.3071 29.5593 36.5434 29.707 36.6912 29.7365V29.0571L36.7207 29.0867ZM36.6322 29.2048C36.6322 29.2048 36.632 29.2048 36.6616 29.1457C36.7207 29.0867 36.7503 29.1162 36.7207 29.1162V29.7957C36.7207 29.7957 37.0162 29.7661 37.1344 29.6479C37.2525 29.5297 37.282 29.3525 37.282 29.2344H36.6026L36.6322 29.2048ZM36.7503 29.323C36.7503 29.323 36.7502 29.323 36.6912 29.2934C36.6321 29.2343 36.6616 29.2048 36.6616 29.2344H37.3412C37.3412 29.2344 37.3115 28.9389 37.1933 28.8207C37.0752 28.7026 36.9276 28.6731 36.7799 28.6731V29.3526L36.7503 29.323Z" fill="#BAC92C"/>
<path fill-rule="evenodd" clip-rule="evenodd" d="M36.1596 29.8555C36.1596 29.8555 36.2777 29.8555 36.3073 29.9146C36.3368 29.9737 36.3664 30.0032 36.3664 30.0623C36.3664 30.21 36.2777 30.2986 36.13 30.2986C36.0709 30.2986 36.0119 30.2986 35.9824 30.2395C35.9528 30.21 35.9232 30.1509 35.9232 30.0919C35.9232 30.0032 36.071 29.8555 36.1596 29.8555Z" fill="#BAC92C"/>
<path d="M36.2774 30.0919V30.1805C36.2774 30.1805 36.2479 30.1805 36.1888 30.1805V29.501C36.1888 29.501 35.982 29.5601 35.9525 29.5896C35.8934 29.6191 35.8639 29.6487 35.8048 29.7078C35.7457 29.7669 35.7162 29.7964 35.6867 29.8555C35.6867 29.885 35.598 29.9737 35.598 30.0919H36.2774ZM36.2774 30.0032C36.2774 30.0032 36.2774 30.0327 36.2774 30.0623H35.598C35.598 30.2395 35.657 30.3872 35.7752 30.4758L36.248 30.0032H36.2774ZM36.2184 30.0032H36.2774L35.8048 30.4758C35.8048 30.4758 36.0411 30.6236 36.1888 30.6532V29.9737L36.2184 30.0032ZM36.1297 30.1213C36.1297 30.1213 36.1297 30.1214 36.1593 30.0623C36.2184 30.0032 36.2479 30.0327 36.2184 30.0327V30.7122C36.2184 30.7122 36.5139 30.6827 36.632 30.5645C36.7502 30.4464 36.7797 30.2691 36.7797 30.1509H36.1001L36.1297 30.1213ZM36.1297 30.21C36.1297 30.21 36.1297 30.1804 36.1297 30.1509H36.8093C36.8093 29.9737 36.7502 29.8259 36.632 29.7373L36.1593 30.21H36.1297ZM36.1888 30.21H36.1297L36.6025 29.7373C36.6025 29.7373 36.3661 29.5896 36.2184 29.56V30.2395L36.1888 30.21Z" fill="#BAC92C"/>
<path fill-rule="evenodd" clip-rule="evenodd" d="M34.653 30.0918C34.8007 30.0918 34.8894 30.1804 34.8894 30.3281C34.8894 30.3872 34.8893 30.4462 34.8302 30.4758C34.7711 30.5053 34.7416 30.5349 34.6826 30.5349C34.5939 30.5349 34.4462 30.3871 34.4462 30.2985C34.4462 30.2394 34.4462 30.1804 34.5053 30.1508C34.5349 30.1213 34.5939 30.0918 34.653 30.0918Z" fill="#BAC92C"/>
<path d="M34.7414 30.4178C34.7414 30.4178 34.7118 30.4178 34.6822 30.4178V29.7383C34.505 29.7383 34.3572 29.7974 34.2686 29.9156L34.7414 30.3882V30.4178ZM34.7414 30.3587V30.4178L34.2686 29.9451C34.2686 29.9451 34.1209 30.1814 34.0914 30.3292H34.771L34.7414 30.3587ZM34.6231 30.2701H34.7118C34.7118 30.2701 34.7118 30.2996 34.7118 30.3587H34.0324C34.0324 30.3587 34.0914 30.5655 34.1209 30.595C34.1505 30.6541 34.18 30.6837 34.239 30.7428C34.2686 30.7723 34.3278 30.8313 34.3869 30.8609C34.4164 30.8609 34.5049 30.9495 34.6231 30.9495V30.2701ZM34.5346 30.2701C34.5346 30.2701 34.5642 30.2701 34.5937 30.2701V30.9495C34.771 30.9495 34.9185 30.8904 35.0072 30.7723L34.5346 30.2996V30.2701ZM34.5346 30.3292V30.2701L35.0072 30.7428C35.0072 30.7428 35.1549 30.5064 35.1844 30.3587H34.505L34.5346 30.3292ZM34.6527 30.4178C34.6527 30.4178 34.6528 30.4178 34.5937 30.3882C34.5346 30.3291 34.5641 30.2996 34.5641 30.3292H35.2436C35.2436 30.3292 35.214 30.0338 35.0959 29.9156C34.9777 29.7974 34.8004 29.7679 34.6822 29.7679V30.4474L34.6527 30.4178Z" fill="#BAC92C"/>
<path fill-rule="evenodd" clip-rule="evenodd" d="M35.0366 29.9453C35.0366 29.9453 35.1548 29.9454 35.1843 30.0045C35.2138 30.0635 35.2434 30.093 35.2434 30.1521C35.2434 30.2408 35.0957 30.3884 35.007 30.3884C34.948 30.3884 34.8889 30.3885 34.8594 30.3294C34.8298 30.2703 34.8002 30.2408 34.8002 30.1817C34.8002 30.034 34.8889 29.9453 35.0366 29.9453Z" fill="#BAC92C"/>
<path d="M35.1552 30.1817C35.1552 30.1817 35.1552 30.1817 35.1257 30.2407C35.0666 30.2998 35.037 30.2703 35.0665 30.2703V29.5908C35.0665 29.5908 34.7711 29.6203 34.6529 29.7385C34.5347 29.8567 34.5052 30.034 34.5052 30.1521H35.1846L35.1552 30.1817ZM35.1552 30.0931C35.1552 30.0931 35.1552 30.1226 35.1552 30.1521H34.4756C34.4756 30.3294 34.5347 30.4771 34.6529 30.5658L35.1257 30.0931H35.1552ZM35.0961 30.0931H35.1552L34.6825 30.5658C34.6825 30.5658 34.9188 30.7135 35.0665 30.743V30.0635L35.0961 30.0931ZM35.0074 30.2112V30.1226C35.0074 30.1226 35.037 30.1226 35.0961 30.1226V30.8021C35.0961 30.8021 35.3029 30.743 35.3325 30.7134C35.3916 30.6839 35.4211 30.6543 35.4802 30.5952C35.5097 30.5657 35.5687 30.5066 35.5983 30.4476C35.5983 30.418 35.687 30.3293 35.687 30.2112H35.0074ZM35.0074 30.2998C35.0074 30.2998 35.0074 30.2703 35.0074 30.2407H35.687C35.687 30.0635 35.6279 29.9158 35.5097 29.8272L35.037 30.2998H35.0074ZM35.0665 30.2998H35.0074L35.4802 29.8272C35.4802 29.8272 35.2438 29.6794 35.0961 29.6499V30.3294L35.0665 30.2998Z" fill="#BAC92C"/>
<path fill-rule="evenodd" clip-rule="evenodd" d="M36.2483 31.8936C36.2483 31.8936 36.3665 31.8935 36.396 31.9526C36.4256 31.9821 36.455 32.0413 36.455 32.1004C36.455 32.189 36.3074 32.3367 36.2188 32.3367C36.1597 32.3367 36.1006 32.3367 36.0711 32.2776C36.0416 32.2481 36.012 32.189 36.012 32.1299C36.012 31.9822 36.1006 31.8936 36.2483 31.8936Z" fill="#BAC92C"/>
<path d="M36.3661 32.129C36.3661 32.129 36.366 32.1289 36.3365 32.188C36.2774 32.2471 36.2478 32.2176 36.2773 32.2176V31.5381C36.2773 31.5381 35.9821 31.5676 35.8639 31.6858C35.7457 31.8039 35.716 31.9812 35.716 32.0994H36.3956L36.3661 32.129ZM36.3661 32.0403C36.3661 32.0403 36.3661 32.0698 36.3661 32.0994H35.6866C35.6866 32.2766 35.7457 32.4243 35.8639 32.5129L36.3365 32.0403H36.3661ZM36.3069 32.0403H36.3661L35.8935 32.5129C35.8935 32.5129 36.1296 32.6606 36.2773 32.6902V32.0108L36.3069 32.0403ZM36.2184 32.1584V32.0698C36.2184 32.0698 36.2478 32.0698 36.3069 32.0698V32.7493C36.3069 32.7493 36.5138 32.6902 36.5433 32.6607C36.6024 32.6312 36.6319 32.6016 36.691 32.5425C36.7205 32.513 36.7797 32.4539 36.8093 32.3948C36.8093 32.3653 36.8978 32.2766 36.8978 32.1584H36.2184ZM36.2184 32.2471C36.2184 32.2471 36.2184 32.2176 36.2184 32.188H36.8978C36.8978 32.0108 36.8387 31.863 36.7205 31.7744L36.248 32.2471H36.2184ZM36.2773 32.2471H36.2184L36.691 31.7744C36.691 31.7744 36.4546 31.6267 36.3069 31.5971V32.2766L36.2773 32.2471Z" fill="#BAC92C"/>
<path fill-rule="evenodd" clip-rule="evenodd" d="M34.1505 31.6885C34.1505 31.6885 34.2686 31.6885 34.2982 31.7476C34.3277 31.7772 34.3573 31.8362 34.3573 31.8953C34.3573 31.9839 34.2096 32.1317 34.1209 32.1317C34.0619 32.1317 34.0028 32.1316 33.9733 32.0725C33.9437 32.043 33.9141 31.9839 33.9141 31.9249C33.9141 31.7772 34.0028 31.6885 34.1505 31.6885Z" fill="#BAC92C"/>
<path d="M34.239 31.8955C34.239 31.8955 34.2392 31.8954 34.2096 31.9545C34.1506 32.0136 34.121 31.9841 34.1505 31.9841V31.3047C34.1505 31.3047 33.855 31.3342 33.7369 31.4524C33.6187 31.5705 33.5892 31.7182 33.5892 31.8659H34.2686L34.239 31.8955ZM34.239 31.8069C34.239 31.8069 34.239 31.8364 34.239 31.8659H33.5596C33.5596 32.0432 33.6187 32.1909 33.7369 32.2795L34.2096 31.8069H34.239ZM34.1801 31.8069H34.239L33.7664 32.2795C33.7664 32.2795 34.0028 32.4272 34.1505 32.4568V31.7773L34.1801 31.8069ZM34.0914 31.925V31.8364C34.0914 31.8364 34.121 31.8364 34.1801 31.8364V32.5158C34.1801 32.5158 34.3869 32.4567 34.4165 32.4272C34.4755 32.3977 34.5051 32.3682 34.5641 32.3091C34.5937 32.2796 34.6527 32.2204 34.6822 32.1613C34.6822 32.1318 34.771 32.0432 34.771 31.925H34.0914ZM34.0914 32.0137C34.0914 32.0137 34.0914 31.9841 34.0914 31.9545H34.771C34.771 31.7773 34.7119 31.6296 34.5937 31.541L34.1209 32.0137H34.0914ZM34.1505 32.0137H34.0914L34.5641 31.541C34.5641 31.541 34.3278 31.3933 34.1801 31.3637V32.0432L34.1505 32.0137Z" fill="#BAC92C"/>
<path fill-rule="evenodd" clip-rule="evenodd" d="M34.5938 33.6377C34.5938 33.6377 34.7119 33.6378 34.7415 33.6968C34.771 33.7264 34.8004 33.7854 34.8004 33.8445C34.8004 33.9922 34.7119 34.0808 34.5642 34.0808C34.5052 34.0808 34.4461 34.0808 34.4166 34.0218C34.387 33.9922 34.3574 33.9332 34.3574 33.8741C34.3574 33.7855 34.5052 33.6377 34.5938 33.6377Z" fill="#BAC92C"/>
<path d="M34.7118 33.8419V33.9305C34.7118 33.9305 34.6822 33.9305 34.6231 33.9305V33.251C34.6231 33.251 34.4164 33.3101 34.3869 33.3396C34.3278 33.3691 34.2981 33.3987 34.239 33.4578C34.2095 33.4873 34.1505 33.5465 34.1209 33.6056C34.1209 33.6351 34.0324 33.7237 34.0324 33.8419H34.7118ZM34.7118 33.7532C34.7118 33.7532 34.7118 33.7827 34.7118 33.8123H34.0324C34.0324 33.9895 34.0915 34.1373 34.2097 34.2259L34.6822 33.7532H34.7118ZM34.6527 33.7532H34.7118L34.239 34.2259C34.239 34.2259 34.4754 34.3736 34.6231 34.4032V33.7237L34.6527 33.7532ZM34.5641 33.8714C34.5641 33.8714 34.5642 33.8714 34.5937 33.8123C34.6528 33.7532 34.6822 33.7828 34.6527 33.7828V34.4622C34.6527 34.4622 34.9481 34.4327 35.0663 34.3145C35.1845 34.1964 35.214 34.0191 35.214 33.9009H34.5346L34.5641 33.8714ZM34.5641 33.96C34.5641 33.96 34.5641 33.9304 34.5641 33.9009H35.2436C35.2436 33.7237 35.1845 33.576 35.0663 33.4874L34.5937 33.96H34.5641ZM34.6231 33.96H34.5641L35.0367 33.4874C35.0367 33.4874 34.8004 33.3397 34.6527 33.3101V33.9895L34.6231 33.96Z" fill="#BAC92C"/>
</svg>
