<svg width="231" height="231" viewBox="0 0 231 231" fill="none" xmlns="http://www.w3.org/2000/svg">
<g opacity="0.4">
<path d="M99.8886 15.3618L78.5559 107.162L61.4782 44.6871L99.8886 15.3618Z" stroke="#232323" stroke-width="2.87503" stroke-miterlimit="10"/>
<path d="M3 89.2798L5.70245 11.6826L61.4782 44.688L3 89.2798Z" stroke="#232323" stroke-width="2.87503" stroke-miterlimit="10"/>
<path d="M99.8886 15.3627L5.70245 11.6826L61.4782 44.688L99.8886 15.3627Z" stroke="#232323" stroke-width="2.87503" stroke-miterlimit="10"/>
<path d="M15.3626 131.082L107.191 152.444L44.688 169.521L15.3626 131.082Z" stroke="#232323" stroke-width="2.87503" stroke-miterlimit="10"/>
<path d="M89.2797 228L11.7114 225.268L44.688 169.521L89.2797 228Z" stroke="#232323" stroke-width="2.87503" stroke-miterlimit="10"/>
<path d="M15.3626 131.082L11.7113 225.268L44.688 169.521L15.3626 131.082Z" stroke="#232323" stroke-width="2.87503" stroke-miterlimit="10"/>
<path d="M131.111 215.637L152.444 123.809L169.522 186.312L131.111 215.637Z" stroke="#232323" stroke-width="2.87503" stroke-miterlimit="10"/>
<path d="M228 141.721L225.297 219.289L169.522 186.312L228 141.721Z" stroke="#232323" stroke-width="2.87503" stroke-miterlimit="10"/>
<path d="M131.111 215.638L225.297 219.289L169.522 186.312L131.111 215.638Z" stroke="#232323" stroke-width="2.87503" stroke-miterlimit="10"/>
<path d="M215.637 99.8885L123.809 78.5557L186.312 61.478L215.637 99.8885Z" stroke="#232323" stroke-width="2.87503" stroke-miterlimit="10"/>
<path d="M141.72 3L219.289 5.70253L186.312 61.4782L141.72 3Z" stroke="#232323" stroke-width="2.87503" stroke-miterlimit="10"/>
<path d="M215.637 99.8887L219.289 5.70264L186.312 61.4783L215.637 99.8887Z" stroke="#232323" stroke-width="2.87503" stroke-miterlimit="10"/>
<path d="M124.61 151.03C144.284 145.996 156.154 125.966 151.12 106.292C146.087 86.6168 126.057 74.7476 106.382 79.7809C86.7074 84.8142 74.8382 104.844 79.8715 124.519C84.9049 144.194 104.935 156.063 124.61 151.03Z" stroke="#232323" stroke-width="2.87503" stroke-miterlimit="10"/>
<path d="M141.72 3L78.5558 107.162" stroke="#232323" stroke-width="2.87503" stroke-miterlimit="10"/>
<path d="M3 89.2788L107.191 152.443" stroke="#232323" stroke-width="2.87503" stroke-miterlimit="10"/>
<path d="M89.2797 228L152.444 123.809" stroke="#232323" stroke-width="2.87503" stroke-miterlimit="10"/>
<path d="M228 141.72L123.809 78.5552" stroke="#232323" stroke-width="2.87503" stroke-miterlimit="10"/>
</g>
</svg>
