<svg width="229" height="221" viewBox="0 0 229 221" fill="none" xmlns="http://www.w3.org/2000/svg">
<g opacity="0.4">
<path d="M112.917 133.544C112.917 133.544 72.0685 150.18 55.7815 172.622C39.4655 195.063 43.4719 207.286 53.8654 214.834C61.9073 220.67 71.4008 222.005 82.8394 211.96" stroke="#232323" stroke-width="2.90967" stroke-miterlimit="10"/>
<path d="M112.917 133.544C112.917 133.544 116.11 177.528 132.426 199.97C148.742 222.412 161.604 222.383 171.997 214.834C180.039 208.999 184.22 200.376 178.21 186.412" stroke="#232323" stroke-width="2.90967" stroke-miterlimit="10"/>
<path d="M130.104 124.37C130.104 124.37 133.297 168.354 149.613 190.796C165.929 213.237 178.79 213.208 189.184 205.66C197.226 199.824 201.406 191.202 195.397 177.238" stroke="#232323" stroke-width="2.90967" stroke-miterlimit="10"/>
<path d="M130.104 124.371C130.104 124.371 172.926 134.909 199.316 126.345C225.706 117.78 229.655 105.529 225.677 93.3063C222.6 83.8709 215.69 77.1934 200.564 78.616" stroke="#232323" stroke-width="2.90967" stroke-miterlimit="10"/>
<path d="M126.707 105.181C126.707 105.181 169.529 115.719 195.919 107.155C222.309 98.5903 226.258 86.3388 222.28 74.1163C219.203 64.6808 212.293 58.0035 197.168 59.426" stroke="#232323" stroke-width="2.90967" stroke-miterlimit="10"/>
<path d="M126.707 105.181C126.707 105.181 149.962 67.7293 149.962 39.9746C149.962 12.22 139.539 4.70068 126.707 4.70068C116.778 4.70068 108.3 9.2007 104.962 24.0651" stroke="#232323" stroke-width="2.90967" stroke-miterlimit="10"/>
<path d="M107.401 102.48C107.401 102.48 130.655 65.0286 130.655 37.274C130.655 9.51929 120.233 2 107.401 2C97.4717 2 88.9943 6.49992 85.6556 21.3643" stroke="#232323" stroke-width="2.90967" stroke-miterlimit="10"/>
<path d="M107.401 102.48C107.401 102.48 78.9782 68.7739 52.588 60.2094C26.1978 51.6449 15.8044 59.2223 11.856 71.4448C8.7786 80.8802 10.4625 90.3448 23.5559 98.0963" stroke="#232323" stroke-width="2.90967" stroke-miterlimit="10"/>
<path d="M98.8652 120.015C98.8652 120.015 70.4428 86.309 44.0526 77.7446C17.6624 69.1801 7.26896 76.7575 3.3206 88.98C0.2432 98.4154 1.92706 107.88 15.0205 115.631" stroke="#232323" stroke-width="2.90967" stroke-miterlimit="10"/>
<path d="M98.8653 120.015C98.8653 120.015 58.0171 136.65 41.7301 159.092C25.4141 181.534 29.4205 193.757 39.814 201.305C47.8559 207.14 57.3494 208.476 68.788 198.431" stroke="#232323" stroke-width="2.90967" stroke-miterlimit="10"/>
<path d="M14.9915 115.602L23.5269 98.0664" stroke="#232323" stroke-width="2.90967" stroke-miterlimit="10"/>
<path d="M85.6556 21.3359L104.962 24.0359" stroke="#232323" stroke-width="2.90967" stroke-miterlimit="10"/>
<path d="M197.168 59.4248L200.564 78.615" stroke="#232323" stroke-width="2.90967" stroke-miterlimit="10"/>
<path d="M195.397 177.237L178.181 186.382" stroke="#232323" stroke-width="2.90967" stroke-miterlimit="10"/>
<path d="M68.788 198.431L82.8105 211.96" stroke="#232323" stroke-width="2.90967" stroke-miterlimit="10"/>
<path d="M14.9915 115.602L104.962 24.0352" stroke="#232323" stroke-width="2.90967" stroke-miterlimit="10"/>
<path d="M85.6556 21.3359L200.565 78.6162" stroke="#232323" stroke-width="2.90967" stroke-miterlimit="10"/>
<path d="M197.168 59.4248L178.181 186.382" stroke="#232323" stroke-width="2.90967" stroke-miterlimit="10"/>
<path d="M195.397 177.237L68.788 198.431" stroke="#232323" stroke-width="2.90967" stroke-miterlimit="10"/>
<path d="M82.8104 211.959L23.5269 98.0664" stroke="#232323" stroke-width="2.90967" stroke-miterlimit="10"/>
</g>
</svg>
