<svg width="231" height="223" viewBox="0 0 231 223" fill="none" xmlns="http://www.w3.org/2000/svg">
<g opacity="0.4">
<path d="M82.6852 158.253L103.651 143.736C127.593 127.168 111.026 89.7336 82.6852 96.2813V158.22V158.253Z" stroke="#232323" stroke-width="3.30693" stroke-miterlimit="10"/>
<path d="M82.6852 2L17.2081 32.6883C-5.5105 43.3366 -1.97211 76.6704 22.4661 82.3252L82.7183 96.2805V2H82.6852Z" stroke="#232323" stroke-width="3.30693" stroke-miterlimit="10"/>
<path d="M82.6852 97.4703L103.651 82.953C127.593 66.3853 111.026 28.9509 82.6852 35.4986V97.4373V97.4703Z" stroke="#232323" stroke-width="3.30693" stroke-miterlimit="10"/>
<path d="M82.6852 123.562L17.2081 154.25C-5.5105 164.898 -1.97211 198.232 22.4661 203.887L82.7183 217.842V123.562H82.6852Z" stroke="#232323" stroke-width="3.30693" stroke-miterlimit="10"/>
<path d="M82.6852 219L103.651 204.482C127.593 187.915 111.026 150.48 82.6852 157.028V218.967V219Z" stroke="#232323" stroke-width="3.30693" stroke-miterlimit="10"/>
<path d="M82.6852 62.7812L17.2081 93.4695C-5.5105 104.118 -1.97211 137.452 22.4661 143.106L82.7183 157.062V62.7812H82.6852Z" stroke="#232323" stroke-width="3.30693" stroke-miterlimit="10"/>
<path d="M147.666 158.253L126.7 143.736C102.758 127.168 119.326 89.7336 147.666 96.2813V158.22V158.253Z" stroke="#232323" stroke-width="3.30693" stroke-miterlimit="10"/>
<path d="M147.666 2L213.143 32.6883C235.862 43.3366 232.324 76.6704 207.885 82.3252L147.633 96.2805V2H147.666Z" stroke="#232323" stroke-width="3.30693" stroke-miterlimit="10"/>
<path d="M147.666 97.4703L126.7 82.953C102.758 66.3853 119.326 28.9509 147.666 35.4986V97.4373V97.4703Z" stroke="#232323" stroke-width="3.30693" stroke-miterlimit="10"/>
<path d="M147.666 123.562L213.143 154.25C235.862 164.898 232.324 198.232 207.885 203.887L147.633 217.842V123.562H147.666Z" stroke="#232323" stroke-width="3.30693" stroke-miterlimit="10"/>
<path d="M147.666 219L126.7 204.482C102.758 187.915 119.326 150.48 147.666 157.028V218.967V219Z" stroke="#232323" stroke-width="3.30693" stroke-miterlimit="10"/>
<path d="M147.666 62.7812L213.143 93.4695C235.862 104.118 232.324 137.452 207.885 143.106L147.633 157.062V62.7812H147.666Z" stroke="#232323" stroke-width="3.30693" stroke-miterlimit="10"/>
</g>
</svg>
