<svg width="35" height="12" viewBox="0 0 35 12" fill="none" xmlns="http://www.w3.org/2000/svg">
<path d="M15.4038 11.6873H12.6127L14.3571 0.966949H17.1485L15.4038 11.6873ZM10.2647 0.966949L7.60381 8.34052L7.28894 6.7527L7.28923 6.75328L6.35007 1.9322C6.35007 1.9322 6.23651 0.966949 5.02608 0.966949H0.627118L0.5755 1.14847C0.5755 1.14847 1.92071 1.42835 3.49505 2.37381L5.91993 11.6876H8.828L13.2685 0.966949H10.2647ZM32.2179 11.6873H34.7807L32.5463 0.966662H30.3026C29.2666 0.966662 29.0142 1.76559 29.0142 1.76559L24.8515 11.6873H27.761L28.3429 10.0949H31.891L32.2179 11.6873ZM29.1467 7.89517L30.6132 3.88334L31.4382 7.89517H29.1467ZM25.0698 3.54496L25.4681 1.24282C25.4681 1.24282 24.239 0.775391 22.9577 0.775391C21.5727 0.775391 18.2835 1.38075 18.2835 4.32438C18.2835 7.09395 22.1439 7.12837 22.1439 8.58312C22.1439 10.0379 18.6812 9.77721 17.5385 8.85985L17.1235 11.2669C17.1235 11.2669 18.3698 11.8723 20.2739 11.8723C22.1786 11.8723 25.052 10.8861 25.052 8.20201C25.052 5.41466 21.1569 5.15514 21.1569 3.94328C21.1571 2.73112 23.8754 2.88683 25.0698 3.54496Z" fill="#2566AF"/>
</svg>
