<svg width="16" height="16" viewBox="0 0 16 16" fill="none" xmlns="http://www.w3.org/2000/svg">
<path d="M4.93993 9.10227C5.99743 9.10227 6.84493 9.95802 6.84493 11.023V13.5798C6.84493 14.6373 5.99743 15.4998 4.93993 15.4998H2.40493C1.35493 15.4998 0.499933 14.6373 0.499933 13.5798V11.023C0.499933 9.95802 1.35493 9.10227 2.40493 9.10227H4.93993ZM13.595 9.10227C14.645 9.10227 15.5 9.95802 15.5 11.023V13.5798C15.5 14.6373 14.645 15.4998 13.595 15.4998H11.06C10.0025 15.4998 9.15501 14.6373 9.15501 13.5798V11.023C9.15501 9.95802 10.0025 9.10227 11.06 9.10227H13.595ZM4.93993 0.5C5.99743 0.5 6.84493 1.3625 6.84493 2.42075V4.9775C6.84493 6.0425 5.99743 6.8975 4.93993 6.8975H2.40493C1.35493 6.8975 0.499933 6.0425 0.499933 4.9775V2.42075C0.499933 1.3625 1.35493 0.5 2.40493 0.5H4.93993ZM13.595 0.5C14.645 0.5 15.5 1.3625 15.5 2.42075V4.9775C15.5 6.0425 14.645 6.8975 13.595 6.8975H11.06C10.0025 6.8975 9.15501 6.0425 9.15501 4.9775V2.42075C9.15501 1.3625 10.0025 0.5 11.06 0.5H13.595Z" fill="#456039"/>
</svg>
