<svg width="41" height="13" viewBox="0 0 41 13" fill="none" xmlns="http://www.w3.org/2000/svg">
<g clip-path="url(#clip0_397_1187)">
<path fill-rule="evenodd" clip-rule="evenodd" d="M11.4442 0.625977V0.63095C11.4392 0.63095 9.87264 0.625977 9.4549 2.1229C9.07196 3.4955 7.99278 7.28507 7.96294 7.38951H7.66455C7.66455 7.38951 6.5605 3.5154 6.1726 2.11793C5.75485 0.621004 4.18332 0.625977 4.18332 0.625977H0.602631V12.0146H4.18332V5.25104H4.33252H4.48171L6.57045 12.0146H9.05704L11.1458 5.25601H11.4442V12.0146H15.0249V0.625977H11.4442Z" fill="#4DB45E"/>
<path fill-rule="evenodd" clip-rule="evenodd" d="M24.5237 0.625977C24.5237 0.625977 23.4743 0.720467 22.982 1.81954L20.4457 7.38951H20.1473V0.625977H16.5666V12.0146H19.9484C19.9484 12.0146 21.0474 11.9151 21.5398 10.821L24.0264 5.25104H24.3248V12.0146H27.9054V0.625977H24.5237Z" fill="#4DB45E"/>
<path fill-rule="evenodd" clip-rule="evenodd" d="M29.497 5.79785V12.0143H33.0777V8.38391H36.9568C38.6476 8.38391 40.0799 7.30473 40.612 5.79785H29.497Z" fill="#4DB45E"/>
<path fill-rule="evenodd" clip-rule="evenodd" d="M36.9568 0.625977H28.9947C29.3926 2.79428 31.0188 4.5349 33.1225 5.10184C33.5999 5.23114 34.1022 5.30077 34.6194 5.30077H40.7563C40.811 5.04216 40.8359 4.77858 40.8359 4.50506C40.8359 2.36162 39.1002 0.625977 36.9568 0.625977Z" fill="url(#paint0_linear_397_1187)"/>
</g>
<defs>
<linearGradient id="paint0_linear_397_1187" x1="28.9957" y1="2.96337" x2="40.8359" y2="2.96337" gradientUnits="userSpaceOnUse">
<stop offset="0.3" stop-color="#00B4E6"/>
<stop offset="1" stop-color="#088CCB"/>
</linearGradient>
<clipPath id="clip0_397_1187">
<rect width="40.2331" height="11.3886" fill="white" transform="translate(0.602722 0.62793)"/>
</clipPath>
</defs>
</svg>
