<svg width="16" height="17" viewBox="0 0 16 17" fill="none" xmlns="http://www.w3.org/2000/svg">
<path fill-rule="evenodd" clip-rule="evenodd" d="M7.51985 0.5C11.6662 0.5 15.0389 3.8727 15.0389 8.01907C15.0389 9.97532 14.2882 11.7595 13.0597 13.0986L15.477 15.5109C15.7033 15.7371 15.704 16.1031 15.4778 16.3294C15.3651 16.4436 15.216 16.5 15.0678 16.5C14.9203 16.5 14.7721 16.4436 14.6586 16.3309L12.212 13.8912C10.925 14.9219 9.2932 15.5389 7.51985 15.5389C3.37347 15.5389 0 12.1655 0 8.01907C0 3.8727 3.37347 0.5 7.51985 0.5ZM7.51985 1.65821C4.01203 1.65821 1.15821 4.51125 1.15821 8.01907C1.15821 11.5269 4.01203 14.3807 7.51985 14.3807C11.0269 14.3807 13.8807 11.5269 13.8807 8.01907C13.8807 4.51125 11.0269 1.65821 7.51985 1.65821Z" fill="black"/>
</svg>
