<svg width="15" height="19" viewBox="0 0 15 19"  xmlns="http://www.w3.org/2000/svg">
<path  clip-rule="evenodd" d="M14.5579 15.3827C14.5579 18.4119 10.4037 18.762 7.27985 18.762L7.0563 18.7618C5.06603 18.757 0 18.6313 0 15.3643C0 12.3969 3.98719 12.0003 7.08729 11.9854L7.50339 11.9851C9.49353 11.9899 14.5579 12.1156 14.5579 15.3827ZM7.27985 13.3635C3.36375 13.3635 1.37859 14.0362 1.37859 15.3643C1.37859 16.7043 3.36375 17.3834 7.27985 17.3834C11.195 17.3834 13.1793 16.7107 13.1793 15.3827C13.1793 14.0427 11.195 13.3635 7.27985 13.3635ZM7.27985 0.5C9.97085 0.5 12.1591 2.68919 12.1591 5.38019C12.1591 8.07119 9.97085 10.2595 7.27985 10.2595H7.25044C4.56496 10.2512 2.38955 8.06108 2.39871 5.37744C2.39871 2.68919 4.58793 0.5 7.27985 0.5ZM7.27985 1.81241C5.31215 1.81241 3.71113 3.41249 3.71113 5.38019C3.70472 7.34146 5.29377 8.94062 7.2532 8.94797L7.27985 9.60418V8.94797C9.24663 8.94797 10.8467 7.34697 10.8467 5.38019C10.8467 3.41249 9.24663 1.81241 7.27985 1.81241Z" />
</svg>
