<svg width="20" height="20" viewBox="0 0 20 20"  xmlns="http://www.w3.org/2000/svg">
<path   clip-rule="evenodd" d="M5.44303 16.5685C6.11982 16.5685 6.67055 17.1183 6.67055 17.795C6.67055 18.4718 6.11982 19.0226 5.44303 19.0226C4.76624 19.0226 4.21646 18.4718 4.21646 17.795C4.21646 17.1183 4.76624 16.5685 5.44303 16.5685ZM16.1355 16.5685C16.8132 16.5685 17.3639 17.1183 17.3639 17.795C17.3639 18.4718 16.8132 19.0226 16.1355 19.0226C15.4587 19.0226 14.9089 18.4718 14.9089 17.795C14.9089 17.1183 15.4587 16.5685 16.1355 16.5685ZM1.39005 0.508993L3.36166 0.850232C3.6792 0.906157 3.92091 1.16967 3.9484 1.49195L4.17116 4.14698L4.99947 4.14734C5.13463 4.1474 5.26837 4.14746 5.40068 4.14752L6.92138 4.14824C7.0426 4.1483 7.16246 4.14837 7.28098 4.14843L8.96006 4.14935C9.06554 4.14941 9.16976 4.14947 9.27273 4.14953L10.4494 4.15028C10.5426 4.15035 10.6346 4.15041 10.7255 4.15047L11.7604 4.15124C11.8421 4.1513 11.9227 4.15136 12.0022 4.15143L12.9045 4.1522C12.9755 4.15227 13.0454 4.15233 13.1144 4.1524L13.7074 4.15299C13.7704 4.15305 13.8323 4.15312 13.8933 4.15319L14.5801 4.15398C14.6337 4.15405 14.6863 4.15412 14.7381 4.15418L15.318 4.15499C15.363 4.15506 15.4071 4.15513 15.4504 4.1552L15.819 4.15581C15.8576 4.15588 15.8954 4.15595 15.9325 4.15602L16.3431 4.15685C16.3745 4.15692 16.4052 4.15699 16.4352 4.15706L16.6879 4.15769C16.714 4.15776 16.7396 4.15783 16.7645 4.1579L17.0354 4.15876C17.0557 4.15883 17.0754 4.1589 17.0946 4.15897L17.2537 4.15962C17.2699 4.1597 17.2855 4.15977 17.3007 4.15984L17.4616 4.16072C17.4733 4.16079 17.4846 4.16086 17.4955 4.16094L17.5832 4.1616C17.5918 4.16168 17.6001 4.16175 17.6081 4.16183L17.6712 4.1625C17.6773 4.16257 17.6831 4.16265 17.6887 4.16272L17.7316 4.1634C17.7357 4.16348 17.7395 4.16356 17.7431 4.16363L17.7703 4.16432C17.7727 4.1644 17.775 4.16447 17.7772 4.16455L17.7969 4.16548L17.8003 4.16571C17.8095 4.16657 17.8122 4.16689 17.8122 4.16689C18.3402 4.24367 18.8046 4.5195 19.1212 4.94416C19.4378 5.36786 19.5705 5.89015 19.4947 6.41338L18.5952 12.6296C18.4255 13.8126 17.398 14.7046 16.2036 14.7046H5.85176C4.60339 14.7046 3.5465 13.7301 3.44507 12.4837L2.57681 2.15737L1.14834 1.91092C0.760657 1.84267 0.501884 1.47584 0.568236 1.08815C0.636484 0.700466 1.0109 0.448328 1.39005 0.508993ZM4.8093 5.56914L4.29059 5.56882L4.86217 12.3671C4.90387 12.8903 5.33137 13.2827 5.85366 13.2827H16.2017C16.6956 13.2827 17.1174 12.9149 17.1875 12.4268L18.088 6.20959C18.1089 6.06172 18.0719 5.91385 17.9819 5.79441C17.8928 5.67403 17.762 5.5963 17.6141 5.57545C17.6073 5.57571 17.5909 5.57595 17.5654 5.57617L17.4623 5.57676C17.4408 5.57685 17.4171 5.57693 17.3913 5.57701L16.8543 5.57782C16.809 5.57786 16.7619 5.57788 16.713 5.57791L15.4504 5.57786C15.38 5.57783 15.3082 5.5778 15.2352 5.57777L13.7943 5.57689C13.7079 5.57683 13.6207 5.57676 13.5325 5.5767L12.7172 5.57604C12.6243 5.57597 12.5308 5.57589 12.4366 5.57581L11.573 5.57505C11.4754 5.57496 11.3774 5.57487 11.279 5.57478L10.6841 5.57423C10.5843 5.57414 10.4842 5.57405 10.3839 5.57396L9.4761 5.57311C9.37488 5.57301 9.2736 5.57292 9.17232 5.57282L8.56506 5.57226C8.464 5.57216 8.36305 5.57207 8.26228 5.57198L7.66017 5.57143C7.56032 5.57134 7.46076 5.57125 7.36154 5.57117L6.47953 5.57041C6.38291 5.57033 6.28682 5.57025 6.19131 5.57017L5.07666 5.56932C4.98671 5.56926 4.89757 5.5692 4.8093 5.56914Z" />
</svg>
