<svg width="18" height="18" viewBox="0 0 18 18"  xmlns="http://www.w3.org/2000/svg">
<path   clip-rule="evenodd" d="M9.16433 1.67463C10.5316 0.810191 12.3479 0.571379 13.917 1.07423C17.3302 2.17496 18.3897 5.89589 17.4421 8.85667C15.9797 13.5068 9.73446 16.9755 9.46958 17.1209C9.3754 17.1731 9.27113 17.1991 9.16686 17.1991C9.06258 17.1991 8.95916 17.1739 8.86498 17.1226C8.60178 16.9788 2.4019 13.5614 0.890817 8.85751L0.889976 8.85667C-0.0585474 5.89505 0.99761 2.17327 4.40742 1.07423C6.00847 0.556243 7.75332 0.784124 9.16433 1.67463ZM4.79423 2.27502C2.03527 3.16468 1.34238 6.13218 2.09161 8.47238C3.27054 12.1403 7.92822 15.1062 9.16601 15.8403C10.408 15.0986 15.0993 12.1 16.2404 8.47574C16.9897 6.13302 16.2942 3.16552 13.5311 2.27502C12.1924 1.84533 10.6308 2.10684 9.55282 2.94101C9.32747 3.11423 9.01465 3.11759 8.78761 2.94605C7.64569 2.0875 6.15395 1.83608 4.79423 2.27502Z" />
</svg>
