<svg width="14" height="15" viewBox="0 0 14 15" fill="none" xmlns="http://www.w3.org/2000/svg">
<path d="M7 0.5C10.871 0.5 14 3.6367 14 7.5C14 11.3647 10.871 14.5 7 14.5C3.136 14.5 0 11.3647 0 7.5C0 3.6367 3.136 0.5 7 0.5ZM7 9.5517C6.664 9.5517 6.391 9.8247 6.391 10.1607C6.391 10.4967 6.664 10.7767 7.007 10.7767C7.343 10.7767 7.616 10.4967 7.616 10.1607C7.616 9.8247 7.343 9.5517 7 9.5517ZM7 4.231C6.664 4.231 6.384 4.5117 6.384 4.847V7.941C6.384 8.2777 6.664 8.55 7 8.55C7.336 8.55 7.609 8.2777 7.609 7.941V4.847C7.609 4.5117 7.336 4.231 7 4.231Z" fill="white"/>
</svg>
