<svg width="46" height="46" viewBox="0 0 46 46"  xmlns="http://www.w3.org/2000/svg">
<path d="M40.1664 15.9322L42.4931 12.7828C42.5705 12.673 42.6018 12.5373 42.5803 12.4047C42.5588 12.2721 42.4862 12.1532 42.3781 12.0735C42.27 11.9938 42.1349 11.9596 42.0019 11.9783C41.8689 11.9969 41.7485 12.0669 41.6664 12.1733L39.3397 15.3226C39.2979 15.3767 39.2674 15.4387 39.2499 15.5048C39.2324 15.5709 39.2283 15.6399 39.2378 15.7076C39.2472 15.7753 39.2702 15.8405 39.3052 15.8992C39.3402 15.958 39.3866 16.0092 39.4416 16.0498C39.4967 16.0903 39.5593 16.1195 39.6257 16.1356C39.6922 16.1517 39.7612 16.1543 39.8288 16.1434C39.8963 16.1324 39.9609 16.1081 40.0189 16.0718C40.0769 16.0356 40.127 15.9881 40.1664 15.9322ZM44.7945 31.5794C43.1945 30.889 41.1164 30.739 39.3178 31.1308C40.6863 27.6897 40.9945 23.9705 40.0774 20.6753C40.0592 20.6098 40.0281 20.5486 39.9861 20.4952C39.944 20.4418 39.8918 20.3972 39.8325 20.3641C39.7731 20.331 39.7078 20.31 39.6403 20.3022C39.5727 20.2945 39.5043 20.3003 39.439 20.3191C35.1651 21.5602 31.9527 23.4787 29.8322 26.0191C28.7609 22.5233 26.6952 19.3178 24.1438 16.6541L24.1308 16.6363V12.8486C25.3788 12.2801 25.4651 10.5698 24.1308 10.1993V7.69106C28.1705 7.16435 30.4267 3.04449 29.9596 1.36572C30.0562 0.886268 29.5007 0.56024 29.1281 0.86846C26.624 2.96572 23.9089 3.52462 22.5609 3.26572C19.7733 2.73627 18.6246 1.63695 17.2493 1.11161C16.9788 1.0075 16.6205 1.15271 16.5945 1.4712C16.176 2.40956 18.3596 7.56709 23.1034 7.74517V10.2233C21.5842 10.6986 21.7541 12.6527 23.1034 12.9685V16.7013C20.4027 19.8404 18.076 23.3 16.9185 27.2787C14.7377 24.4143 11.2356 22.276 6.68972 21.0842C6.62405 21.0671 6.55563 21.0631 6.48842 21.0725C6.4212 21.082 6.35653 21.1046 6.29813 21.1392C6.23973 21.1738 6.18876 21.2196 6.14816 21.274C6.10757 21.3284 6.07816 21.3903 6.06163 21.4561C5.29588 24.5123 5.5767 27.9027 6.76506 31.0794C4.93561 30.6959 2.81095 30.8828 1.19656 31.6198C1.09489 31.6663 1.01114 31.7447 0.957992 31.8431C0.904849 31.9415 0.885209 32.0545 0.902044 32.165C0.919167 32.2733 0.94451 32.3794 0.965743 32.4869C0.857524 32.8719 1.28355 34.1109 1.35889 34.3452C2.35204 37.4191 4.53835 40.1938 7.38835 42.0404C12.3383 45.2479 18.9705 45.4226 22.0705 44.4801C32.9336 47.2561 41.9753 42.202 44.6103 34.7486C44.8568 34.0527 45.0438 33.3102 45.0171 32.5822C45.0466 32.428 45.0788 32.2746 45.0993 32.1185C45.114 32.0076 45.0921 31.895 45.037 31.7977C44.9818 31.7004 44.8972 31.6238 44.7945 31.5794ZM22.3699 4.27462C24.1815 4.61983 26.6644 3.78558 28.4096 2.66983C26.2541 7.11298 21.0274 7.6801 18.2226 2.74243C18.7068 3.01914 20.9178 3.9986 22.3692 4.27462H22.3699ZM44.0178 32.378C43.4075 35.6157 40.6925 38.4116 39.5185 39.4917C37.5219 41.3274 34.9048 42.6452 31.9486 43.3027C29.8938 43.7602 27.7171 43.7006 25.5746 43.4828C31.2596 41.2582 36.1336 37.8616 38.7883 32.339C40.374 31.7993 42.4349 31.8157 44.0178 32.378ZM38.3603 21.7541C37.8269 22.7957 37.0692 23.7061 36.1418 24.4198C35.7555 24.7143 35.9603 25.3424 36.4548 25.3424C36.563 25.3424 36.6726 25.3082 36.7657 25.2369C37.8553 24.3985 38.7372 23.3204 39.3431 22.0863C40.1342 26.3876 38.85 31.2863 35.8555 35.1431C33.6157 38.028 30.3068 40.3794 26.0267 42.1767C27.0726 41.2054 27.9568 39.9459 28.4596 39.1082C30.4486 35.789 31.1836 31.6287 30.1616 27.2589C31.9123 24.8753 34.6637 23.0308 38.3603 21.7541ZM23.6164 17.678C26.0253 21.1041 28.6349 26.6109 28.9973 31.2404C29.3883 36.2397 25.7938 40.5952 23.6788 42.6979C22.9822 39.7612 23.0589 36.6941 23.9014 33.7959C23.9395 33.6651 23.9241 33.5245 23.8586 33.405C23.7931 33.2856 23.6828 33.197 23.552 33.1589C23.4213 33.1207 23.2807 33.1361 23.1612 33.2016C23.0417 33.2671 22.9532 33.3774 22.9151 33.5082C22.0576 36.4597 21.9495 39.5784 22.6007 42.5821C20.2925 40.7924 17.8822 37.5328 17.4329 34.6876C16.4205 28.2897 19.4041 22.6548 23.6164 17.678ZM6.77876 23.2082C7.17912 24.5658 7.94491 25.7872 8.99245 26.739C9.0904 26.828 9.21369 26.8712 9.33698 26.8712C9.80547 26.8712 10.0288 26.2911 9.6815 25.9767C8.65958 25.0527 7.9315 23.776 7.63698 22.4267C10.7137 23.3952 14.3938 25.2068 16.5925 28.565C16.1433 30.6304 16.0841 32.7615 16.4178 34.8486C16.8493 37.5794 18.8109 40.5095 20.9212 42.4965C16.2692 40.8349 13.0472 38.726 10.6582 35.8089C7.65136 32.1363 6.23218 27.4363 6.77876 23.2082ZM7.26437 32.2705C9.91369 38.0993 14.7555 41.4541 20.8342 43.5609C15.8733 43.8561 10.4151 42.7678 6.62876 39.4226C5.43424 38.3678 2.66506 35.628 1.98903 32.402C3.57396 31.802 5.66232 31.7472 7.26437 32.2705ZM7.44793 17.639C7.53541 17.6389 7.62141 17.6164 7.69778 17.5738C7.77414 17.5311 7.83835 17.4696 7.88431 17.3952C7.93027 17.3208 7.95647 17.2358 7.96041 17.1485C7.96435 17.0611 7.94591 16.9741 7.90684 16.8959L6.01369 13.1054C5.98388 13.0446 5.94231 12.9902 5.89138 12.9454C5.84045 12.9007 5.78116 12.8664 5.71694 12.8447C5.65272 12.823 5.58484 12.8142 5.5172 12.8188C5.44956 12.8235 5.38351 12.8414 5.32286 12.8717C5.2622 12.902 5.20814 12.944 5.16379 12.9953C5.11944 13.0465 5.08567 13.1061 5.06445 13.1705C5.04322 13.2349 5.03495 13.3028 5.04011 13.3704C5.04527 13.438 5.06376 13.5039 5.09451 13.5644L6.98766 17.3548C7.03035 17.4403 7.09604 17.5122 7.17735 17.5624C7.25866 17.6126 7.35237 17.6391 7.44793 17.639Z" />
<path d="M13.6396 15.4956C13.7058 15.4822 13.7687 15.4559 13.8247 15.4182C13.8807 15.3805 13.9287 15.3321 13.966 15.2758C14.0032 15.2195 14.029 15.1564 14.0419 15.0901C14.0548 15.0238 14.0545 14.9556 14.041 14.8895L13.356 11.5217C13.3273 11.3889 13.2479 11.2726 13.1346 11.1976C13.0214 11.1227 12.8833 11.0949 12.7499 11.1203C12.6163 11.1475 12.499 11.2267 12.4238 11.3403C12.3485 11.454 12.3214 11.5929 12.3485 11.7265L13.0334 15.0943C13.0468 15.1605 13.0732 15.2233 13.1109 15.2793C13.1486 15.3353 13.197 15.3834 13.2533 15.4206C13.3096 15.4579 13.3727 15.4837 13.439 15.4966C13.5053 15.5095 13.5734 15.5091 13.6396 15.4956ZM32.7054 14.0956C33.1171 12.5538 33.6777 11.0557 34.3793 9.62236C34.4311 9.50114 34.4345 9.36465 34.3886 9.24107C34.3427 9.11748 34.2511 9.01624 34.1327 8.95823C34.0143 8.90022 33.8782 8.88989 33.7524 8.92935C33.6266 8.96882 33.5208 9.05507 33.4567 9.17031C32.7261 10.6639 32.1423 12.2248 31.7136 13.8313C31.6949 13.8968 31.6894 13.9655 31.6975 14.0332C31.7056 14.1009 31.7271 14.1663 31.7608 14.2256C31.7944 14.2849 31.8395 14.3369 31.8935 14.3786C31.9474 14.4203 32.0092 14.4508 32.075 14.4684C32.1409 14.486 32.2096 14.4903 32.2772 14.4811C32.3447 14.4718 32.4098 14.4492 32.4685 14.4146C32.5272 14.38 32.5785 14.334 32.6193 14.2794C32.6601 14.2247 32.6895 14.1625 32.706 14.0963L32.7054 14.0956Z" />
</svg>
