<svg width="32" height="48" viewBox="0 0 32 48"  xmlns="http://www.w3.org/2000/svg">
<path d="M5.19114 27.3089C5.04408 28.4119 5.55878 29.4413 6.07349 30.4707C5.19114 33.6324 5.70584 37.0883 6.66173 40.2501C7.39702 42.9707 8.57349 45.6913 11.147 46.8677C11.4411 47.0148 11.7353 47.0148 12.0294 46.9413C12.6176 47.0148 12.9117 46.2795 12.397 45.9119C7.98526 42.9707 7.32349 37.8236 7.32349 32.456C7.54408 32.8236 7.8382 33.1177 8.20584 33.4119C9.30878 34.5148 11.9558 35.8383 13.2794 34.8089C14.3823 36.0589 16.6617 35.4707 17.25 33.4854C17.397 32.9707 17.397 32.1619 17.397 32.0148C17.25 29.7354 16.6617 23.5589 15.1911 21.7207C15.1911 21.5736 14.75 18.0442 13.7941 15.0295L14.3088 14.956C15.0441 14.8089 14.8235 13.706 14.0882 13.853L13.4264 14.0001C12.9853 12.6766 12.1764 10.4707 11.4411 7.97068C12.25 7.82362 13.5735 7.16186 12.9853 6.50009C12.7647 6.2795 12.4705 6.20598 12.1764 6.42656C11.8823 6.72068 11.4411 6.86774 11.0735 6.94127C10.4853 5.0295 10.0441 3.48539 10.3382 2.52951C10.7794 1.13245 12.5441 0.764799 13.7941 2.0148C14.5294 2.75009 14.3823 2.75009 19.4558 15.6177C17.8382 17.1619 17.25 19.5883 17.6911 22.1619C18.1323 24.5883 19.3823 26.7942 20.2647 29.0001C20.4853 29.6619 21.5882 29.2942 21.2941 28.6324C20.4853 26.353 19.2353 24.2207 18.7941 21.9413C18.3529 19.6619 18.9411 17.2354 20.8529 15.9119C20.7058 18.4854 20.6323 18.9266 20.8529 19.5148C21.147 20.6913 22.1764 21.353 23.647 20.8383C24.3088 23.853 25.4117 25.3236 27.4705 28.1913C30.7058 32.5295 29.9706 32.1619 30.4853 32.9707C30.3382 34.6619 29.897 35.7648 29.1617 37.3824C27.0294 42.0148 28.1323 41.9413 27.3235 44.2942C27.0294 45.2501 26.2205 46.353 24.897 46.5736C24.1617 46.7207 24.3823 47.7501 25.0441 47.6766C26.0735 47.5295 26.8823 46.9413 27.4705 46.2795C28.7941 44.8089 28.9411 42.8236 29.5294 40.8383C30.1911 38.5589 31.3676 36.5001 31.7353 34.1472C32.25 31.1324 31.3676 28.0442 31.0735 25.0295C30.2647 17.7501 32.4706 7.16186 31.0735 3.48539C30.1911 0.176564 26.0735 0.250093 24.9706 4.44127C23.8676 8.7795 23.5735 10.9119 23.1323 14.7354C22.397 14.2942 21.6617 14.3677 20.9264 14.7354C20.9264 14.1472 19.0882 10.2501 17.0294 5.25009C16 2.75009 14.5294 -0.191083 11.8823 0.250093C10.7794 0.397152 9.89702 1.20598 9.52937 2.30892C8.57349 5.32362 12.8382 12.7501 14.0882 20.9854C12.6176 20.3972 10.9264 21.0589 9.82349 22.0883C9.16173 22.6766 8.79408 23.706 9.23525 25.0295C7.02937 24.4413 5.41173 25.6913 5.19114 27.3089ZM26.6617 3.04421C27.0294 2.60303 27.7647 2.23539 28.4264 2.38245C29.6029 2.60303 29.8235 4.00009 29.897 4.88245C30.3382 11.7207 28.5 18.6324 29.4558 25.5442C29.5294 26.2795 29.6764 27.0883 29.8235 27.8236C29.9706 28.7795 30.1911 29.6619 30.2647 30.5442C29.6764 29.5148 28.9411 28.5589 28.2058 27.603C25.1911 23.5589 24.6764 22.5295 24.0147 17.0883C24.0147 16.7942 23.9411 16.5001 23.8676 16.1324C23.9411 15.9119 23.7941 16.7207 24.2353 13.4854C25.2647 13.853 26.2206 13.1177 25.7794 12.5295C25.6323 12.3089 25.2647 12.2354 25.0441 12.3824C24.897 12.456 24.6764 12.5295 24.4558 12.3089C24.6764 10.7648 24.897 9.36774 25.2647 7.67656C26.4411 7.97068 26.4411 7.97068 26.5882 7.97068C27.25 7.97068 27.3235 7.0148 26.7353 6.86774L25.5588 6.57362C25.7794 4.80892 25.9264 3.7795 26.6617 3.04421ZM23.2058 19.6619C23.1323 19.7354 23.0588 19.8089 23.0588 19.956C21.0735 20.6913 21.8823 17.8972 21.8823 15.6177C22.9117 15.6177 22.7647 17.0148 23.2058 19.6619ZM11.6617 34.1472C11.5147 33.706 11.147 33.853 11.0735 33.1913C11 32.8236 11.147 32.3824 11.5147 32.3824C12.1764 32.3824 12.5441 32.9707 12.6911 33.0442C12.8382 34.0001 12.5441 34.2942 11.6617 34.1472ZM15.1911 34.3677C14.75 34.5148 14.1617 34.4413 13.9411 34.1472C13.8676 34.0736 13.7941 34.0001 13.7205 34.0001C13.7941 33.6324 13.7941 33.3383 13.7205 32.9707C13.7941 32.8236 13.7941 32.6766 13.7205 32.5295C13.7205 32.3824 13.7941 31.8677 13.8676 31.7207C14.0147 31.4266 15.0441 31.4266 14.9705 31.4266C15.4117 31.4266 16 32.0148 16.147 32.3824C16.2206 33.1913 16 34.0736 15.1911 34.3677ZM10.2647 22.8972C11.5147 21.7207 13.4264 21.353 14.3823 22.8236C15.4117 24.2942 15.8529 28.9266 16.0735 30.6913C15.0441 30.103 13.7206 30.3972 13.1323 30.9854C12.7647 30.2501 11.5147 27.0883 10.4853 25.9854C10.4117 25.6177 9.23526 23.853 10.2647 22.8972ZM9.45584 26.5736C10.4853 27.456 11.9558 31.206 12.1029 31.4266C10.6323 30.9854 9.74996 32.2354 9.97055 33.4854C9.52937 33.2648 9.16173 32.9707 8.86761 32.7501C7.8382 31.7942 6.07349 28.9266 6.29408 27.5295C6.44114 26.0589 8.20584 25.3972 9.45584 26.5736Z" />
<path d="M20.1176 31.059C18.4264 35.1031 19.0882 40.1031 21.8823 43.4854C22.3235 44.0737 23.2058 43.3384 22.7646 42.8237C20.2646 39.7354 19.6029 35.1766 21.147 31.5001C21.4411 30.7649 20.4117 30.3237 20.1176 31.059ZM0.558755 20.1031C1.95581 21.206 4.08817 22.3825 4.52934 22.3825C5.11758 22.3825 5.26464 21.5737 4.74993 21.3531C3.49993 20.8384 2.32346 20.1766 1.22052 19.2943C0.632284 18.7796 -0.0294802 19.6619 0.558755 20.1031ZM5.19111 16.206C4.82346 15.5443 3.86758 16.059 4.23523 16.7207L5.63228 19.3678C5.99993 20.0296 6.95581 19.5149 6.58817 18.8531L5.19111 16.206ZM9.45581 18.1913C9.45581 16.9413 9.60287 15.6913 9.82346 14.4413C9.97052 13.706 8.86758 13.4854 8.72052 14.2207C8.49993 15.5443 8.35287 16.8678 8.35287 18.1178C8.35287 18.9266 9.45581 18.9266 9.45581 18.1913Z" />
</svg>
