<svg width="50" height="48" viewBox="0 0 50 48"  xmlns="http://www.w3.org/2000/svg">
<path d="M28.6894 27.3257C27.9849 27.1666 27.447 27.2802 27.0758 27.2272C26.8864 27.2045 26.7349 27.1666 26.5985 27.0984C26.5682 27.0833 26.4697 26.9924 26.3561 26.803C26.1061 26.409 25.8864 25.9999 25.7349 25.606C25.5834 25.2121 25.5152 24.8181 25.5758 24.5378C25.5985 24.3939 25.6591 24.2878 25.7425 24.1818C25.8334 24.0606 26.0303 23.8712 26.197 23.6969C26.5303 23.3333 26.9925 22.9166 27.1667 22.1287C27.2425 21.7424 27.1667 21.3181 27.0152 21.0075C26.8712 20.6893 26.6743 20.4469 26.4849 20.2348C26.2879 20.0227 26.0834 19.8484 25.9015 19.6969L25.3788 19.2499C25.0152 18.9621 24.6515 18.5454 23.9091 18.3484C23.5379 18.2575 23.1364 18.3181 22.8258 18.4318C22.5228 18.5454 22.2803 18.6969 22.0606 18.8484C21.6061 19.1742 21.3031 19.5075 21.0152 19.7348C20.7197 19.9696 20.5228 20.0454 20.3864 20.0075C20.2728 20.0151 19.8712 19.7802 19.5758 19.5757C18.9773 19.1742 18.4849 18.6136 18.4394 18.2045C18.4015 17.9772 18.4621 17.5984 18.4318 17.0909C18.4167 16.8409 18.3561 16.5302 18.197 16.2424C18.0379 15.9545 17.8106 15.7196 17.5531 15.5757C17.0909 15.303 16.6743 15.2121 16.2803 15.159C15.8864 15.106 15.5076 15.0984 15.1288 15.1136C14.3788 15.159 13.6591 15.2802 12.9394 15.606C12.5834 15.7651 12.2121 15.9999 11.894 16.3636C11.7349 16.5681 11.5985 16.7878 11.5303 17.0681C11.447 17.3257 11.4546 17.6818 11.5303 17.9242C11.6894 18.4318 11.9394 18.7196 12.0985 18.9545C12.2728 19.1893 12.3182 19.356 12.3031 19.3106C12.2955 19.356 12.2955 19.356 12.25 19.4166C12.2046 19.4696 12.0834 19.553 11.9318 19.6363L11.394 19.9242C11.2955 19.9772 11.1894 20.0378 11.0834 20.106L10.8031 20.303C10.5076 20.5227 10.2273 20.6969 9.98488 20.7727C9.7273 20.8484 9.57579 20.8333 9.37124 20.7575C8.93185 20.5833 8.46215 19.9772 7.7576 19.4545C7.40154 19.1969 6.89397 18.9545 6.34851 18.9545C5.80306 18.9469 5.34094 19.1515 4.99245 19.3484C4.28791 19.7575 3.73488 20.2499 3.25003 20.856C3.01518 21.1666 2.80306 21.5075 2.67427 21.9393C2.64397 22.0454 2.62124 22.1666 2.59851 22.2878C2.59094 22.4166 2.58336 22.5454 2.59094 22.6666C2.61366 22.8939 2.65912 23.1212 2.75003 23.3484C2.93942 23.803 3.29548 24.1363 3.61366 24.3409C3.93942 24.553 4.2576 24.6818 4.53791 24.803C4.82579 24.9166 5.08336 25.0151 5.30306 25.1212C5.41669 25.1742 5.5076 25.2272 5.59851 25.2802L5.70457 25.356C5.7273 25.3712 5.7273 25.3863 5.74245 25.3939C5.75003 25.4015 5.75003 25.409 5.75003 25.4166C5.7576 25.4015 5.73488 25.6287 5.7273 25.7575C5.70457 26.0454 5.68185 26.3181 5.64397 26.5681C5.58336 27.0681 5.43942 27.5454 5.26518 27.7575C5.16669 27.8636 5.13639 27.8863 4.99245 27.9242C4.84094 27.9545 4.68942 27.9545 4.50003 27.9242C4.12882 27.8787 3.61366 27.5909 2.86366 27.7121C2.50003 27.7803 2.18942 27.9696 1.96972 28.1666C1.74245 28.356 1.55306 28.5984 1.41669 28.8409C1.13639 29.3333 1.04548 29.8333 1.0076 30.2878C0.962149 31.2045 1.03791 31.9696 1.41669 32.7878C1.59851 33.1893 2.0076 33.5681 2.43185 33.7121C2.84094 33.8484 3.197 33.8484 3.50003 33.8636C4.10609 33.8636 4.55306 33.8636 4.86366 34.0075C5.17427 34.1287 5.42427 34.409 5.62124 34.6893C5.81821 34.9696 5.95457 35.2727 6.06063 35.5378C6.27276 36.0757 6.35609 36.5303 6.37882 36.8409C6.39397 37.1515 6.34094 37.3181 6.28033 37.4469C6.13639 37.7121 6.12124 37.7878 6.18185 37.8484C6.2273 37.8939 6.30306 37.9772 6.62882 37.7272C6.78791 37.5984 6.99245 37.2954 7.03791 36.8636C7.08336 36.4393 7.05306 35.9242 6.87124 35.2651C6.77275 34.9393 6.64397 34.5757 6.42427 34.1893C6.18185 33.8181 5.87124 33.3712 5.29548 33.0909C4.17427 32.5227 2.68185 33.0833 2.447 32.2499C2.25003 31.8181 2.15912 31.0606 2.2273 30.3939C2.26518 30.0606 2.34851 29.7196 2.5076 29.4696C2.64397 29.2196 2.93185 28.9999 3.09851 28.9848C3.28033 28.9318 3.67427 29.0909 4.26518 29.2272C4.56063 29.2878 4.91669 29.3106 5.26518 29.2348C5.62124 29.1818 6.06821 28.9242 6.30306 28.6212C6.78791 27.9999 6.90154 27.3712 7.00003 26.7727C7.04548 26.4696 7.07579 26.1742 7.09851 25.8787C7.10609 25.7196 7.13639 25.659 7.13639 25.3409C7.12882 25.0606 7.04548 24.7727 6.86366 24.553C6.63639 24.303 6.54548 24.2424 6.37124 24.1136C6.21972 24.0151 6.06063 23.9242 5.91669 23.856C5.62124 23.7121 5.33336 23.606 5.07579 23.4924C4.55306 23.2803 4.14397 23.0378 4.06063 22.7878C4.03033 22.7272 4.02275 22.6439 4.0076 22.553C4.0076 22.4848 4.01518 22.4242 4.03791 22.3333C4.09094 22.1515 4.21972 21.9318 4.38639 21.7196C4.74677 21.2668 5.19194 20.8886 5.697 20.606C5.95457 20.4621 6.15912 20.3939 6.33336 20.4015C6.50003 20.4015 6.68185 20.4696 6.90912 20.6363C7.13639 20.7954 7.38639 21.0378 7.66669 21.303C7.95457 21.5681 8.28791 21.8712 8.78791 22.0984C9.27276 22.3257 9.947 22.3484 10.4394 22.1742C10.947 22.0075 11.3409 21.7424 11.6894 21.4848L11.9015 21.3333C11.9621 21.2954 12.0379 21.2499 12.1137 21.2045L12.6591 20.9166C12.8637 20.803 13.0985 20.6666 13.3409 20.409C13.5834 20.1666 13.7728 19.7651 13.7879 19.3939C13.8106 18.7348 13.4849 18.3484 13.3182 18.0833C13.1288 17.8181 12.9849 17.5984 12.9621 17.4999C12.947 17.4469 12.947 17.4696 12.9697 17.4318C12.9697 17.3939 13.0076 17.3484 13.0455 17.2954C13.1515 17.1818 13.3258 17.0454 13.5606 16.9469C14.0228 16.7348 14.6212 16.6212 15.2046 16.5909C15.5 16.5757 15.7955 16.5833 16.0758 16.6212C16.3561 16.6515 16.6212 16.7424 16.75 16.8181C16.894 16.9166 16.9015 16.9242 16.9394 17.1818C16.9697 17.4393 16.894 17.8409 16.9621 18.4015C17.0606 18.9999 17.3409 19.4469 17.6591 19.8333C17.9773 20.2121 18.3485 20.5151 18.7349 20.7802C18.9318 20.909 19.1288 21.0302 19.3334 21.1439C19.5152 21.2499 19.8561 21.409 20.1894 21.4469C20.5303 21.4999 20.9091 21.4318 21.2046 21.3106C21.5 21.1818 21.7349 21.0151 21.9318 20.856C22.3334 20.5303 22.6288 20.2121 22.9091 20.0151C23.0606 19.909 23.2046 19.8257 23.3258 19.7803C23.447 19.7424 23.5076 19.7348 23.5834 19.7499C23.7425 19.7727 24.0758 20.0227 24.4167 20.3181L24.9622 20.7802C25.1364 20.9242 25.2955 21.0606 25.4167 21.1969C25.5455 21.3257 25.644 21.4621 25.697 21.5833C25.75 21.6969 25.7576 21.7651 25.7425 21.856C25.7273 22.0303 25.4849 22.356 25.1591 22.6893C24.9925 22.8712 24.8334 23.0151 24.6212 23.2802C24.4015 23.553 24.2425 23.909 24.1818 24.2499C24.0606 24.9469 24.2197 25.553 24.4167 26.0833C24.6212 26.6136 24.894 27.0833 25.1818 27.5378C25.3334 27.7651 25.5455 28.0909 25.9697 28.3106C26.2879 28.4696 26.6364 28.553 26.947 28.5757C27.5758 28.6212 28.0682 28.5378 28.3637 28.6212C28.644 28.6893 28.8788 28.8787 29.0228 29.2121C29.3334 29.9015 29.3485 30.9848 29.0228 31.606C28.947 31.7575 28.8485 31.8636 28.7576 31.909C28.6743 31.9621 28.5606 31.9848 28.3712 31.9696C28.1818 31.9621 27.9394 31.909 27.644 31.8712C27.3561 31.8333 26.9621 31.8106 26.5606 31.9696C26.1591 32.1136 25.8485 32.5075 25.7349 32.659L25.4925 32.9621L25.3712 33.1136L25.2121 33.3333C25.0076 33.6439 24.894 34.0757 24.9318 34.4621C24.9697 34.856 25.1212 35.1742 25.2803 35.4469C25.6061 35.9848 26 36.3636 26.3409 36.7424C26.5228 36.9393 26.7046 37.1212 26.8334 37.2803C26.9621 37.4545 26.9621 37.4696 26.9697 37.5681C26.947 37.8257 26.7046 38.3636 26.4925 38.7348C26.2652 39.1363 25.9849 39.5151 25.6743 39.8181C25.3561 40.1287 25.0303 40.3257 24.7046 40.3484C24.4015 40.3863 24.0909 40.2424 23.7576 39.9545C23.4243 39.6742 23.1061 39.2954 22.7197 38.9242C22.5834 38.7878 22.1894 38.4015 21.7728 38.4015C21.5606 38.3863 21.3561 38.4393 21.1667 38.5303C21 38.606 20.894 38.6742 20.8031 38.7272C20.4091 38.9393 19.9394 39.1363 19.4925 39.4015C19.2652 39.5378 19.0379 39.6818 18.8182 39.8863C18.6061 40.0757 18.3788 40.3712 18.2879 40.6969C18.0985 41.356 18.2652 41.9015 18.3485 42.3484C18.447 42.803 18.5303 43.2045 18.4167 43.4772C18.2425 44.0757 17.4167 44.4393 16.6364 44.4772C15.8561 44.5378 15.0076 44.3484 14.5379 43.8939C14.3182 43.6893 14.2046 43.3712 14.1667 43.0227C14.1288 42.6742 14.1818 42.2954 14.2273 41.8787C14.2652 41.4772 14.3106 40.9696 14.0379 40.4999C13.7652 40.0378 13.3334 39.8181 12.9546 39.659C12.5758 39.5302 12.1515 39.409 11.7197 39.4469C11.6137 39.4621 11.5 39.4696 11.394 39.4848L11.0909 39.5984C10.8788 39.659 10.7349 39.803 10.5606 39.909C9.947 40.409 9.60609 41.0151 9.21215 41.4848C8.83336 41.9621 8.40912 42.3181 7.93185 42.2196C7.447 42.1666 7.01518 41.8106 6.62882 41.5303C5.83336 40.909 5.2576 40.2651 5.21215 39.5833C5.12124 38.909 5.57579 38.4999 5.81821 38.2348C6.08336 37.9772 6.23488 37.8409 6.21972 37.8181C6.20457 37.803 6.03033 37.8939 5.71972 38.1212C5.56821 38.2348 5.38639 38.4015 5.20457 38.6287C5.01518 38.8636 4.89397 39.2196 4.90912 39.6136C4.91669 39.9999 5.06821 40.4318 5.33336 40.8106C5.59851 41.1969 5.95457 41.5378 6.33336 41.8787C6.75003 42.2045 7.16669 42.6212 7.85609 42.7424C8.01518 42.7803 8.20457 42.7499 8.37882 42.7424C8.54548 42.6893 8.73488 42.6363 8.87882 42.5454C9.18185 42.3636 9.43942 42.1212 9.65154 41.8636C10.0909 41.3636 10.4546 40.7954 10.9546 40.4242C11.447 40.0454 12.0379 40.0454 12.6894 40.3181C12.9925 40.4545 13.2728 40.6287 13.3864 40.856C13.5152 41.0757 13.5076 41.409 13.4546 41.7954C13.4091 42.1818 13.3334 42.6136 13.3637 43.0909C13.394 43.553 13.5531 44.0909 13.9394 44.4848C14.7121 45.2272 15.7197 45.4015 16.6894 45.3712C17.1818 45.3484 17.6818 45.2499 18.1667 45.0151C18.644 44.7878 19.1212 44.3712 19.3182 43.7803C19.5379 43.1742 19.3864 42.606 19.3031 42.159C19.2046 41.7045 19.144 41.2802 19.2425 41.0151C19.3106 40.7727 19.6212 40.5227 20.0076 40.3106C20.394 40.0909 20.8334 39.9166 21.3031 39.6742C21.4318 39.606 21.5303 39.553 21.5909 39.5227C21.6212 39.5075 21.6591 39.4999 21.6894 39.4999C21.7728 39.5227 21.7576 39.5151 21.9697 39.7196C22.2955 40.0378 22.6137 40.4318 23.0379 40.803C23.4318 41.1742 24.0834 41.5606 24.8031 41.4924C25.5 41.4469 26.0758 41.053 26.4773 40.6666C26.9015 40.2651 27.2349 39.8181 27.5152 39.3409C27.6591 39.0984 27.7879 38.8484 27.894 38.5984C28 38.3409 28.1288 38.0681 28.1667 37.6742C28.1818 37.4696 28.1515 37.2348 28.0758 37.0303C27.9925 36.8257 27.8864 36.6818 27.7955 36.5454C27.5985 36.2954 27.4243 36.1212 27.2576 35.9318C26.9091 35.5454 26.5682 35.1818 26.3637 34.8333C26.2652 34.659 26.2046 34.4924 26.197 34.3712C26.1894 34.2499 26.2121 34.1515 26.2955 34.0303L26.3637 33.9393L26.4849 33.7878L26.7349 33.4924C26.9394 33.2424 26.9773 33.2272 27.0682 33.1818C27.2197 33.0909 27.6743 33.2196 28.3182 33.2878C28.6364 33.3181 29.0682 33.2803 29.4318 33.0681C29.7955 32.8712 30.0455 32.5606 30.2121 32.2575C30.5379 31.6439 30.6212 31.0378 30.6364 30.4469C30.6364 29.8484 30.5531 29.2651 30.2955 28.6666C30 28.0833 29.4091 27.4924 28.6894 27.3257Z" />
<path d="M11.5151 35.1818C12.7245 36.2466 14.2904 36.8172 15.9014 36.7802C17.3181 36.7272 18.4772 36.1439 19.2499 35.4848C19.9085 34.9331 20.4473 34.2524 20.8332 33.4848C21.1514 32.856 21.3029 32.3105 21.3863 31.8712C21.5378 30.9772 21.462 30.5075 21.3711 30.2727C21.2878 30.0378 21.1893 30.0227 21.0832 30.0302C20.9772 30.0302 20.8787 30.053 20.7878 30.2651C20.6969 30.4772 20.606 30.8787 20.3635 31.606C20.2347 31.9621 20.0529 32.4015 19.7499 32.8939C19.4469 33.3863 19.0226 33.9318 18.3938 34.4166C17.7651 34.9015 16.9166 35.2954 15.8635 35.3257C14.8257 35.3409 13.5529 34.9924 12.5075 34.0757C11.3787 33.106 10.3181 31.0833 10.856 29.0302C10.9999 28.5302 11.2044 28.0454 11.5075 27.606C11.8257 27.1818 12.1817 26.7727 12.6363 26.4621C13.5151 25.803 14.606 25.4469 15.6514 25.3863C16.7044 25.3105 17.712 25.6212 18.5075 26.0757C19.3105 26.5378 19.8787 27.1893 20.2423 27.8105C20.9772 29.0605 20.9393 30.0605 21.0908 30.0378C21.1438 30.0378 21.1741 29.803 21.1817 29.3636C21.1893 29.1439 21.1287 28.8787 21.0908 28.5681C21.0075 28.2727 20.9393 27.909 20.7575 27.5454C20.3701 26.6715 19.7487 25.9217 18.962 25.3787C18.0757 24.7651 16.9014 24.3181 15.6363 24.3333C14.3787 24.3333 13.0454 24.6893 11.9317 25.4469C11.356 25.8105 10.8711 26.303 10.4469 26.8409C10.0429 27.3937 9.7355 28.011 9.53778 28.6666C9.35596 29.3181 9.28778 29.9924 9.31051 30.6363C9.36354 31.2802 9.4696 31.909 9.69687 32.4772C10.0687 33.5159 10.6936 34.4454 11.5151 35.1818ZM48.7272 11.7348C48.5226 11.2196 48.0151 10.7196 47.3938 10.5757C46.7878 10.4393 46.3635 10.5378 46.0832 10.4924C45.9469 10.4772 45.8408 10.4469 45.7575 10.409C45.7651 10.4166 45.7044 10.3712 45.6135 10.2196C45.4166 9.90903 45.2499 9.59085 45.1363 9.28782C45.0226 8.98479 44.9772 8.69691 45.015 8.51509C45.0302 8.42418 45.0681 8.356 45.1211 8.29539C45.1817 8.21964 45.3408 8.06054 45.4696 7.92418C45.7347 7.62873 46.1287 7.28782 46.2802 6.59842C46.3484 6.25751 46.2802 5.8863 46.1438 5.61357C46.0226 5.34085 45.856 5.1363 45.6969 4.95448C45.5302 4.78024 45.3711 4.6363 45.2196 4.51509L44.8105 4.15903C44.5226 3.93176 44.2272 3.58327 43.5757 3.40903C43.2499 3.33327 42.8938 3.37873 42.6287 3.47721C42.3711 3.5757 42.1666 3.70448 41.9847 3.8257C41.606 4.09842 41.3635 4.37115 41.1438 4.53782C40.9166 4.71964 40.8029 4.74236 40.7575 4.72721C40.7044 4.71206 40.6893 4.71964 40.5454 4.6363C40.4166 4.56812 40.2954 4.49236 40.1741 4.40903C39.712 4.106 39.356 3.6666 39.3332 3.4166C39.3029 3.27267 39.3484 2.96963 39.3257 2.53782C39.3105 2.3257 39.2575 2.05297 39.1211 1.80297C38.9772 1.55297 38.7802 1.34085 38.5605 1.21963C38.159 0.97721 37.8105 0.909028 37.4847 0.863574C37.159 0.818119 36.8484 0.810544 36.5378 0.825695C35.9241 0.863574 35.3332 0.962059 34.7347 1.23479C34.4393 1.37115 34.1287 1.56054 33.8484 1.87873C33.5681 2.19691 33.3787 2.77267 33.5302 3.24994C33.6741 3.71963 33.8863 3.93176 34.0075 4.12873C34.0681 4.21206 34.1211 4.29539 34.1287 4.31812C34.1287 4.3257 34.106 4.34085 33.9317 4.45448L33.5075 4.68176C33.4241 4.72721 33.3332 4.77267 33.2499 4.83327L33.0226 4.99994C32.7878 5.17418 32.5832 5.30297 32.4166 5.356C32.2347 5.40903 32.1666 5.40145 32.0302 5.34842C31.7347 5.24236 31.356 4.77267 30.7802 4.33327C30.4847 4.11357 30.0529 3.90145 29.5832 3.90145C29.1135 3.89388 28.712 4.06812 28.4241 4.22721C27.8408 4.56054 27.3863 4.96206 26.9923 5.46206C26.8029 5.71964 26.6211 5.99994 26.4999 6.36357C26.4393 6.54539 26.409 6.75751 26.4166 6.98479C26.4393 7.18176 26.4696 7.37115 26.5454 7.56812C26.6969 7.96206 27.0075 8.26509 27.2802 8.43933C27.5529 8.62115 27.8181 8.73479 28.0454 8.8257C28.2726 8.9166 28.4847 8.99236 28.6514 9.0757C28.8332 9.15145 28.9544 9.24994 28.9317 9.23479C28.9393 9.24236 28.9393 9.24994 28.9469 9.25751V9.27267L28.9317 9.43176C28.9166 9.66661 28.8938 9.87873 28.8711 10.0757C28.8257 10.4696 28.712 10.8333 28.606 10.9696C28.5454 11.0378 28.5529 11.0378 28.4772 11.0605C28.3787 11.0833 28.2802 11.0908 28.1438 11.0681C27.8711 11.0454 27.462 10.803 26.8029 10.8939C26.4848 10.9469 26.212 11.106 26.0151 11.2727C25.8257 11.4318 25.659 11.6363 25.5378 11.8408C25.2954 12.2575 25.2196 12.6742 25.1893 13.0454C25.1514 13.803 25.212 14.4166 25.5226 15.106C25.6741 15.4469 26.0302 15.7802 26.3863 15.9015C26.7423 16.0302 27.0378 16.0302 27.2878 16.0378C27.7802 16.0378 28.1135 16.0378 28.3408 16.1363C28.7878 16.3181 29.0908 16.8939 29.2575 17.2878C29.4317 17.7045 29.4999 18.0605 29.5226 18.2954C29.5454 18.5302 29.5151 18.6439 29.4696 18.7575C29.3711 18.9696 29.3635 19.053 29.4241 19.106C29.4772 19.159 29.5378 19.2348 29.8181 19.0378C29.9544 18.9393 30.1363 18.6742 30.1741 18.3257C30.2196 17.9772 30.1969 17.553 30.0529 17.0227C29.9772 16.7575 29.8787 16.4621 29.6893 16.1439C29.5075 15.8333 29.2423 15.4621 28.7575 15.2196C28.2802 14.9772 27.7423 14.9772 27.3181 14.9469C27.106 14.9318 26.909 14.909 26.7954 14.856C26.6817 14.803 26.6287 14.7499 26.5529 14.5908C26.4166 14.2802 26.3408 13.6742 26.4014 13.1742C26.4317 12.9166 26.4999 12.6666 26.6135 12.4924C26.712 12.3181 26.9166 12.1742 26.9923 12.1818C27.0832 12.1515 27.3938 12.2651 27.8938 12.3787C28.1438 12.4242 28.4544 12.4393 28.7499 12.3787C29.0681 12.3257 29.4544 12.0908 29.6438 11.8257C30.0454 11.2878 30.1363 10.7727 30.2196 10.2878C30.2575 10.0454 30.2802 9.80297 30.3029 9.56812L30.3181 9.37873C30.3257 9.26509 30.3332 9.15145 30.3181 9.04539C30.2999 8.81999 30.2126 8.60569 30.0681 8.43176C29.9393 8.28024 29.7347 8.11357 29.6211 8.04539C29.4923 7.96206 29.3635 7.89388 29.2423 7.83327C28.9999 7.71964 28.7726 7.62873 28.5681 7.54539C28.1514 7.37873 27.8863 7.18933 27.856 7.06054C27.8408 7.03024 27.8408 6.97721 27.8257 6.9166C27.8332 6.89388 27.8332 6.856 27.8484 6.79539C27.8863 6.67418 27.9772 6.50751 28.106 6.356C28.356 6.03782 28.7347 5.71964 29.106 5.50751C29.3029 5.40145 29.4393 5.36357 29.5302 5.37115C29.6287 5.37115 29.7348 5.40903 29.9014 5.53024C30.0681 5.65145 30.2651 5.84085 30.4923 6.05297C30.7272 6.26509 30.9999 6.52267 31.4241 6.71206C31.8408 6.90903 32.4317 6.91661 32.8408 6.77267C33.2726 6.6363 33.5984 6.40903 33.8787 6.20448L34.0378 6.09085L34.1969 5.99994L34.6287 5.77267C34.8029 5.6666 34.9847 5.5757 35.2196 5.3257C35.4696 5.06054 35.606 4.74236 35.6287 4.4166C35.6363 4.17418 35.5908 3.93933 35.4847 3.71206C35.3938 3.51509 35.3029 3.39388 35.2272 3.28024C35.0757 3.06812 34.9696 2.8863 34.9696 2.87115C34.9696 2.87115 34.9772 2.86357 34.9999 2.83327C35.0605 2.77266 35.1817 2.67418 35.356 2.59842C35.6969 2.43933 36.159 2.34842 36.6135 2.3257C36.8408 2.31054 37.0681 2.31812 37.2802 2.34842C37.4923 2.37115 37.6893 2.43933 37.7575 2.48479C37.8332 2.54539 37.8029 2.47721 37.8408 2.65903C37.8635 2.84085 37.8029 3.15903 37.8635 3.64388C38.0681 4.6666 38.7347 5.20448 39.3408 5.64388C39.4999 5.74994 39.659 5.84842 39.8257 5.94691C39.9696 6.03024 40.2726 6.17418 40.5605 6.20448C40.8635 6.24994 41.1969 6.18933 41.4469 6.08327C41.7044 5.97721 41.8938 5.83327 42.0605 5.70448C42.3938 5.43933 42.6211 5.18176 42.8332 5.03782C42.9469 4.95448 43.0529 4.90145 43.1287 4.86357C43.2044 4.84085 43.2196 4.84085 43.2499 4.84842C43.3105 4.84842 43.5832 5.03024 43.8484 5.27267L44.2802 5.64388C44.4166 5.75751 44.5378 5.86357 44.6287 5.96206C44.7196 6.06054 44.7954 6.15903 44.8257 6.23479C44.856 6.31054 44.856 6.3257 44.856 6.36357C44.856 6.43933 44.6893 6.68933 44.4317 6.94691C44.2954 7.09085 44.1741 7.20448 43.9923 7.43176C43.8029 7.6666 43.6666 7.96964 43.6135 8.26509C43.5075 8.86357 43.6514 9.37115 43.8105 9.80297C43.9772 10.2424 44.1969 10.6212 44.4317 10.9848C44.5529 11.1666 44.7423 11.4621 45.1135 11.6515C45.3863 11.7878 45.6817 11.856 45.9469 11.8787C46.4696 11.9166 46.8635 11.856 47.0529 11.909C47.2272 11.9545 47.3787 12.0681 47.4847 12.303C47.7196 12.803 47.7272 13.659 47.4923 14.0908C47.4393 14.1893 47.3787 14.2575 47.3332 14.2802C47.2954 14.303 47.2423 14.3257 47.0984 14.3181C46.962 14.3105 46.7726 14.2727 46.5226 14.2424C46.2878 14.2121 45.9469 14.1893 45.5908 14.3333C45.2423 14.4621 44.962 14.8105 44.8787 14.9166L44.6817 15.159L44.5832 15.2802L44.4469 15.4696C44.2726 15.7348 44.1666 16.1136 44.2044 16.4545C44.2347 16.7954 44.3635 17.0681 44.4999 17.2878C44.7726 17.7348 45.0908 18.0378 45.3635 18.3409C45.5075 18.4924 45.6514 18.6439 45.7499 18.7651C45.8408 18.8863 45.8181 18.8636 45.8257 18.9242C45.8181 19.053 45.6287 19.5151 45.462 19.7878C45.2878 20.0984 45.0681 20.3939 44.8332 20.6287C44.5908 20.8636 44.356 21.0075 44.1363 21.0227C43.9317 21.0454 43.7272 20.9621 43.462 20.7348C43.2044 20.5151 42.9469 20.2196 42.6363 19.9242C42.4847 19.7196 42.159 19.4545 41.8408 19.4545C41.6741 19.4393 41.515 19.4772 41.3635 19.5378C41.2044 19.5984 41.0454 19.6969 40.9999 19.7196C40.6969 19.8863 40.3181 20.0454 39.9544 20.2575C39.7726 20.3636 39.5832 20.4924 39.3938 20.659C39.212 20.8181 39.0226 21.0757 38.9393 21.3484C38.7802 21.909 38.9166 22.3636 38.9923 22.7196C39.0757 23.0833 39.1287 23.3863 39.0529 23.5681C38.9469 23.9848 38.3332 24.2727 37.7196 24.303C37.1211 24.3484 36.4544 24.2045 36.1135 23.8712C35.9544 23.7272 35.8711 23.4999 35.8408 23.2272C35.8105 22.9621 35.8484 22.6666 35.8863 22.3333C35.9166 22.0151 35.9544 21.5833 35.7272 21.1893C35.4999 20.7954 35.1287 20.6136 34.8257 20.4924C34.5226 20.3863 34.1666 20.2878 33.8105 20.3257C33.4393 20.3333 33.1135 20.5227 32.856 20.7121C32.356 21.1287 32.0832 21.6136 31.7726 21.9848C31.4696 22.3636 31.159 22.6287 30.8029 22.5605C30.4393 22.5227 30.0908 22.2499 29.7878 22.0302C29.1514 21.5378 28.6969 21.0378 28.659 20.5075C28.5832 19.9848 28.9317 19.659 29.1211 19.4469C29.3332 19.2424 29.4469 19.1212 29.4317 19.106C29.4166 19.0909 29.2726 19.159 29.0226 19.3333C28.9014 19.4242 28.7499 19.553 28.606 19.7348C28.4469 19.9242 28.3484 20.2121 28.3635 20.5302C28.3711 20.8484 28.4847 21.1969 28.7044 21.5075C28.9166 21.8181 29.2044 22.0984 29.5075 22.3712C29.8408 22.6287 30.1741 22.9696 30.7423 23.0757C30.8787 23.106 31.0302 23.0833 31.1817 23.0757C31.3181 23.0378 31.4772 22.9924 31.5984 22.9166C31.8484 22.7651 32.0605 22.5681 32.2272 22.3636C32.5832 21.9621 32.8787 21.5151 33.2575 21.2272C33.6363 20.9469 34.0605 20.9469 34.5757 21.159C35.0908 21.3939 35.2423 21.6136 35.1363 22.2575C35.0605 22.8333 34.8711 23.7424 35.5378 24.4621C36.1817 25.0833 36.9999 25.2196 37.7954 25.2045C38.1969 25.1893 38.606 25.106 39.0075 24.9166C39.4014 24.7272 39.8105 24.3787 39.9772 23.8787C40.1666 23.3636 40.0302 22.8939 39.9696 22.5302C39.8938 22.1666 39.8484 21.8409 39.9166 21.6666C39.9544 21.5151 40.1817 21.3333 40.4847 21.1666C40.7878 20.9999 41.1287 20.8636 41.515 20.6666C41.6438 20.5984 41.6514 20.5908 41.6741 20.5833C41.6969 20.5757 41.7272 20.5681 41.7575 20.5681C41.7878 20.5681 41.8105 20.5833 41.8332 20.5984C41.8635 20.6287 41.8484 20.606 41.9241 20.6893C42.1817 20.9393 42.4317 21.2575 42.7802 21.5605C43.0984 21.8636 43.659 22.1969 44.265 22.1363C44.856 22.0984 45.3408 21.7651 45.6741 21.4469C46.0226 21.1212 46.2954 20.7575 46.5226 20.3636C46.6363 20.1666 46.7423 19.9621 46.8332 19.7575C46.9241 19.5454 47.0226 19.3333 47.0605 18.9696C47.0681 18.7878 47.0454 18.5984 46.9847 18.4242C46.9166 18.2424 46.8105 18.0984 46.7347 17.9999C46.5681 17.7954 46.4317 17.6515 46.3029 17.4999C46.0226 17.1893 45.7575 16.9015 45.606 16.6439C45.5302 16.5151 45.4923 16.4015 45.4923 16.3257C45.4923 16.2499 45.4999 16.2121 45.5529 16.1363C45.5681 16.1136 45.5832 16.0984 45.5984 16.0757L45.6969 15.9545L45.8938 15.7196C46.0605 15.5151 46.0681 15.5302 46.106 15.5075C46.1514 15.4545 46.5075 15.5378 47.0454 15.606C47.3105 15.6287 47.6817 15.5984 48.0075 15.4166C48.3257 15.2424 48.5378 14.9772 48.6817 14.7196C48.962 14.2045 49.0302 13.7045 49.0378 13.2121C49.0151 12.7196 48.9469 12.2348 48.7272 11.7348Z"  />
<path d="M33.5832 17.0833C34.5756 17.9607 35.8652 18.4267 37.1893 18.3863C38.3559 18.3409 39.3105 17.856 39.9393 17.3181C40.5832 16.7727 40.9696 16.1893 41.2196 15.6742C41.4772 15.159 41.5908 14.7121 41.6514 14.356C41.765 13.6287 41.6817 13.2424 41.5984 13.053C41.515 12.8636 41.4166 12.856 41.3105 12.856C41.2044 12.856 41.1059 12.8787 41.015 13.0454C40.9241 13.2121 40.8408 13.5227 40.6287 14.0833C40.409 14.6212 40.0453 15.4848 39.0756 16.2424C38.5908 16.6136 37.9469 16.909 37.1438 16.9242C36.3484 16.9393 35.3711 16.6666 34.5756 15.9621C33.712 15.2196 32.8862 13.659 33.2953 12.0909C33.4923 11.3257 33.9696 10.606 34.6514 10.106C35.3256 9.59085 36.1741 9.31055 36.9847 9.24994C37.8029 9.18176 38.5832 9.41661 39.212 9.76509C39.7752 10.0855 40.2472 10.5444 40.5832 11.0984C41.1817 12.0681 41.1741 12.8636 41.3105 12.8484C41.3711 12.8636 41.6059 12.053 41.0984 10.8333C40.8484 10.2348 40.3787 9.56812 39.659 9.06055C38.8707 8.50026 37.9291 8.1961 36.962 8.18934C35.9317 8.18176 34.8559 8.46964 33.9393 9.08328C33.4696 9.37873 33.0681 9.78025 32.7196 10.2196C32.3787 10.6742 32.1363 11.1818 31.9696 11.7121C31.659 12.7878 31.7423 13.909 32.0908 14.8409C32.3891 15.7033 32.9028 16.4751 33.5832 17.0833ZM38.5378 31.4772C35.3332 34.7727 31.9544 36.4848 32.0453 36.6363C32.0756 36.6893 32.9469 36.3409 34.2575 35.553C35.5605 34.7727 37.2726 33.5151 38.909 31.8484C40.5453 30.1818 41.765 28.4469 42.5302 27.1287C43.2953 25.8106 43.6287 24.9242 43.5756 24.9015C43.4317 24.803 41.7726 28.2121 38.5378 31.4772ZM10.2272 11.5454C11.4923 9.96964 13.3862 7.87873 15.9166 6.12873C18.4469 4.37115 21.1059 3.40146 23.0756 3.00752C25.0529 2.59843 26.3256 2.65146 26.3181 2.55297C26.3181 2.52267 26.0075 2.46964 25.4317 2.45449C24.8559 2.43934 24.0226 2.47721 23.0075 2.63631C20.9772 2.94691 18.212 3.89388 15.6211 5.68934C13.0302 7.48479 11.1362 9.65903 9.9317 11.3105C9.32564 12.1363 8.87867 12.8409 8.59837 13.3333C8.31049 13.8257 8.17413 14.1136 8.20443 14.1363C8.27261 14.1893 8.95443 13.1287 10.2272 11.5454ZM13.7802 32.2272C13.265 31.5984 13.0908 30.8257 13.0832 30.2802C13.0681 29.7272 13.1741 29.3787 13.0984 29.3484C13.0453 29.3181 12.8029 29.6363 12.712 30.2575C12.6211 30.8636 12.7499 31.7954 13.3787 32.5605C14.015 33.3181 14.909 33.6136 15.515 33.6363C16.1438 33.6666 16.4923 33.4848 16.4772 33.4242C16.462 33.3409 16.0984 33.3863 15.5605 33.2651C15.0302 33.159 14.3029 32.8484 13.7802 32.2272ZM10.8862 43.9015C10.8256 43.9166 10.8105 44.2121 10.9923 44.6439C11.1666 45.0757 11.5756 45.6136 12.1893 45.9924C12.8029 46.3712 13.4696 46.4848 13.9317 46.4469C14.4014 46.4166 14.659 46.2651 14.6438 46.2045C14.6211 46.0606 13.5378 46.2196 12.4696 45.5378C11.3787 44.8939 11.0302 43.856 10.8862 43.9015ZM10.7953 46.3257C10.0226 45.9015 9.49989 45.3712 9.37867 45.4621C9.25746 45.5303 9.6514 46.2878 10.5378 46.7802C11.4241 47.2802 12.2726 47.2196 12.2726 47.0757C12.2878 46.9318 11.5681 46.7651 10.7953 46.3257Z"  />
</svg>
