<svg width="19" height="19" viewBox="0 0 19 19" fill="none" xmlns="http://www.w3.org/2000/svg">
<g clip-path="url(#clip0_346_1028)">
<path d="M18.9281 8.91148C18.912 7.85564 18.7487 6.78808 18.3507 5.80598C17.9827 4.89829 17.4767 4.07175 16.8225 3.34066C16.2157 2.6626 15.4804 2.08436 14.6775 1.65619C13.8673 1.22416 12.9907 0.902424 12.1031 0.67127C11.19 0.433436 10.2403 0.282252 9.29591 0.264032C8.8461 0.255348 8.40231 0.289415 7.9573 0.353651C7.81658 0.37395 7.6612 0.510698 7.58298 0.629967C7.0699 0.700623 6.56336 0.821897 6.07786 0.994418C5.24917 1.28884 4.46931 1.70506 3.77173 2.24092C3.40375 2.52358 3.05229 2.8225 2.7281 3.15493C2.40659 3.48464 2.11443 3.8406 1.84023 4.21032C1.2936 4.94735 0.858088 5.76657 0.55561 6.63311C0.235727 7.54938 0.0820201 8.5317 0.0712955 9.501C0.0604967 10.4783 0.1991 11.468 0.468292 12.4074C0.739079 13.3523 1.14457 14.2716 1.67401 15.1004C1.95378 15.5383 2.27192 15.9605 2.63715 16.3309C3.00783 16.7069 3.43838 17.0059 3.88098 17.2901C4.31241 17.5671 4.75517 17.8299 5.22694 18.0328C5.50025 18.1503 5.77564 18.2597 6.06413 18.3343C6.32378 18.4014 6.58848 18.4523 6.85274 18.4976C7.9642 18.6883 9.09147 18.7513 10.218 18.7372C11.2551 18.7242 12.2955 18.6671 13.301 18.3927C14.2984 18.1204 15.2301 17.6577 16.0277 16.9987C16.747 16.4043 17.3197 15.6235 17.7312 14.7893C18.1536 13.9328 18.4405 13.0169 18.6229 12.0809C18.8253 11.0423 18.9441 9.97028 18.9281 8.91148ZM17.4998 10.9567C17.3651 11.916 17.1452 12.8676 16.7786 13.766C16.5529 14.2858 16.2754 14.782 15.935 15.2355C15.6677 15.5694 15.3667 15.8735 15.0329 16.141C14.6464 16.4296 14.2262 16.6683 13.7842 16.8611C13.2035 17.0953 12.5949 17.2518 11.9758 17.3437C11.4409 17.4104 10.901 17.4265 10.3625 17.4362C9.75506 17.447 9.14695 17.4381 8.54066 17.3977C8.21171 17.3759 7.88351 17.3438 7.55655 17.3016C6.96937 17.2189 6.38145 17.1075 5.82956 16.8877C5.4988 16.7413 5.18141 16.567 4.87247 16.379C4.57289 16.1968 4.27022 16.0106 3.98786 15.8015C3.6679 15.545 3.38412 15.2482 3.12944 14.9271C2.70799 14.3651 2.36247 13.7454 2.08314 13.1014C1.77429 12.3507 1.55916 11.5649 1.44264 10.7616C1.35001 10.0117 1.34522 9.25274 1.43755 8.50272C1.53344 7.84911 1.704 7.20835 1.95319 6.59637C2.2298 5.96251 2.5875 5.36353 3.00312 4.81104C3.43715 4.25767 3.93353 3.75524 4.48549 3.31928C4.98576 2.94214 5.52678 2.62181 6.10101 2.37095C6.64956 2.14781 7.22231 1.98999 7.80849 1.90471C8.10819 1.86957 8.40979 1.85308 8.71155 1.85536C8.92533 1.85695 9.13322 1.73746 9.2542 1.56178C9.62169 1.56709 9.98911 1.59626 10.3532 1.64179C11.3769 1.78663 12.3873 2.05727 13.343 2.45222C13.9153 2.70089 14.461 3.0017 14.9616 3.37513C15.4218 3.73829 15.8371 4.15462 16.2012 4.61399C16.5558 5.08484 16.8543 5.59544 17.0907 6.13544C17.3187 6.69739 17.4727 7.2832 17.5601 7.88314C17.6836 8.90395 17.6311 9.93885 17.4998 10.9567Z" fill="white"/>
<path d="M5.14338 8.19082C5.29409 8.27046 5.4767 8.31035 5.6438 8.25628L5.79892 8.19082C5.88869 8.13772 5.96076 8.06695 6.01679 7.98015C6.09966 7.87973 6.18987 7.78596 6.28925 7.70183C6.34015 7.66718 6.39315 7.63574 6.44796 7.60769C6.54296 7.57625 6.64249 7.55703 6.74157 7.542C6.91398 7.52182 7.09044 7.51039 7.26352 7.52289C7.34052 7.53963 7.41626 7.56375 7.49196 7.58453C7.54347 7.59867 7.59505 7.61314 7.64578 7.62991C7.68829 7.65348 7.7293 7.67965 7.76858 7.70829C7.80877 7.7405 7.84873 7.77297 7.88859 7.80555C7.94741 7.8689 8.01706 7.91365 8.09759 7.93982C8.175 7.98049 8.25838 7.99912 8.34778 7.99574C8.50705 7.99574 8.69731 7.92501 8.80697 7.80552C8.9206 7.68176 9.00491 7.51925 8.99719 7.34633C8.98992 7.18431 8.93804 6.99427 8.80697 6.88713C8.67965 6.78304 8.55195 6.6785 8.41847 6.58243C8.35925 6.53979 8.29757 6.50305 8.23066 6.47385C8.10312 6.41818 7.98136 6.3718 7.8481 6.33506C7.74479 6.30659 7.64125 6.27234 7.53501 6.25702C7.37993 6.23464 7.23045 6.21813 7.07415 6.22117C6.95829 6.2234 6.84247 6.23182 6.72736 6.24499C6.56538 6.26351 6.40202 6.28359 6.24245 6.31843C6.09776 6.35001 5.96525 6.40419 5.83039 6.46724C5.64392 6.55437 5.47466 6.68641 5.32288 6.82334C5.16572 6.9651 5.03651 7.13328 4.91041 7.30235C4.86295 7.3769 4.83727 7.45739 4.83334 7.54382C4.814 7.63014 4.81786 7.71645 4.84495 7.80277C4.88644 7.95336 5.00289 8.1166 5.14338 8.19082ZM11.0948 7.9957L11.2674 7.97251C11.3758 7.94262 11.4745 7.88507 11.554 7.80552C11.5938 7.7729 11.6338 7.74048 11.674 7.70825C11.7132 7.67961 11.7542 7.65344 11.7968 7.62988C11.8475 7.61307 11.8991 7.59859 11.9506 7.58449C12.0262 7.56375 12.102 7.53963 12.179 7.52285C12.3521 7.51039 12.5286 7.52178 12.701 7.54197C12.8001 7.55703 12.8996 7.57625 12.9946 7.60769C13.0494 7.63574 13.1024 7.66718 13.1533 7.70183C13.2505 7.78414 13.339 7.87569 13.4204 7.97366C13.4603 8.04179 13.5124 8.09764 13.5779 8.14006C13.6407 8.19747 13.7143 8.23621 13.7988 8.25628C13.8851 8.28334 13.9714 8.2872 14.0577 8.26786C14.1442 8.26393 14.2246 8.23825 14.2992 8.19079C14.4378 8.10139 14.5599 7.96828 14.5976 7.8027L14.6208 7.63006C14.621 7.51485 14.5904 7.40169 14.5321 7.30228C14.4181 7.14935 14.3016 6.99679 14.1637 6.86427C14.0767 6.78063 13.9807 6.7083 13.8848 6.63512C13.8293 6.59286 13.7719 6.55345 13.7114 6.51875C13.6091 6.46012 13.4978 6.41466 13.3884 6.37206C13.351 6.35784 13.3127 6.34579 13.2739 6.33598C13.145 6.30229 13.0131 6.28422 12.8812 6.26652C12.6355 6.23349 12.385 6.20558 12.1368 6.22755C11.8921 6.24922 11.6444 6.30641 11.413 6.39042C11.2884 6.43566 11.1627 6.4868 11.0528 6.56217C10.9076 6.66166 10.7718 6.77577 10.6355 6.88713C10.5722 6.94595 10.5274 7.01561 10.5013 7.09613C10.4606 7.17351 10.442 7.25693 10.4453 7.34633C10.4453 7.5056 10.5161 7.69586 10.6356 7.80552C10.7593 7.91911 10.9218 8.00346 11.0948 7.9957ZM15.7854 9.64907C15.6728 9.53645 15.488 9.45161 15.3262 9.45885C15.1582 9.46638 14.984 9.52153 14.867 9.64907C14.7486 9.7781 14.6816 9.93077 14.6768 10.1083C14.6736 10.2202 14.666 10.332 14.6538 10.4433C14.6036 10.7667 14.5156 11.0826 14.3946 11.3866C14.2461 11.7204 14.0594 12.0358 13.8413 12.3289C13.593 12.639 13.3112 12.9206 13.0008 13.1686C12.6753 13.4113 12.3239 13.6148 11.9526 13.7792C11.478 13.9712 10.9809 14.101 10.4744 14.1747C9.85843 14.2471 9.23521 14.2388 8.61987 14.1628C8.02174 14.0761 7.42264 13.9333 6.86118 13.7079C6.60089 13.5925 6.35241 13.4538 6.12274 13.2855C5.91908 13.1195 5.73398 12.9324 5.56847 12.7283C5.38556 12.4809 5.23111 12.2138 5.10546 11.9329C4.98011 11.6185 4.89039 11.2909 4.83797 10.9565C4.81578 10.7619 4.80539 10.5663 4.80892 10.3705C4.81185 10.2059 4.7344 10.027 4.61869 9.91129C4.50607 9.79866 4.32126 9.71383 4.1595 9.72106C3.99155 9.7286 3.81735 9.78374 3.70031 9.91129C3.58249 10.0396 3.51328 10.1935 3.51009 10.3705C3.50452 10.6808 3.53647 10.9876 3.5836 11.2941C3.62186 11.5429 3.68098 11.7881 3.76032 12.0271C3.8551 12.3124 3.97381 12.5929 4.11486 12.8584C4.2587 13.1293 4.43467 13.376 4.62485 13.6161C4.97116 14.0533 5.41836 14.4236 5.90988 14.6865C6.48723 14.9954 7.12606 15.1928 7.76527 15.3256C9.00591 15.5833 10.3041 15.6042 11.536 15.2844C12.662 14.9921 13.7135 14.3986 14.5068 13.5425C14.8788 13.1411 15.2069 12.6864 15.4466 12.1935C15.5762 11.9271 15.6902 11.6499 15.7759 11.366C15.8641 11.0733 15.9143 10.7742 15.9498 10.4709C15.9638 10.3504 15.9722 10.2295 15.9755 10.1083C15.9801 9.94469 15.9 9.7637 15.7854 9.64907Z" fill="white"/>
</g>
<defs>
<clipPath id="clip0_346_1028">
<rect width="19" height="19" />
</clipPath>
</defs>
</svg>
