<svg width="33" height="24" viewBox="0 0 33 24" fill="none" xmlns="http://www.w3.org/2000/svg">
<path d="M2.58627 6.76899C2.59149 6.77084 2.57887 6.75552 2.54974 6.72656C2.55075 6.72808 2.5516 6.73027 2.55277 6.73178C2.56372 6.74357 2.57399 6.75501 2.58627 6.76899Z" fill="white"/>
<path d="M30.2888 12.2853C28.5335 10.9404 25.7924 10.7456 24.268 12.2195C24.2827 6.72038 19.4002 4.94318 15.2095 5.896C15.2085 5.80829 15.1927 5.71974 15.1403 5.63305C14.8543 5.1592 14.5028 4.72804 14.0964 4.35229C14.1354 4.34176 14.1719 4.3235 14.2036 4.29859C14.4982 4.0596 14.8129 3.84653 15.1442 3.66175C15.5098 3.45654 15.9032 3.32506 16.2362 3.06615C16.5899 2.79125 16.2047 2.23807 15.8179 2.34749C15.0383 2.56802 14.3292 3.31059 13.821 3.91292C12.7926 2.45793 10.6918 2.09565 8.78805 2.46214C8.85104 2.35142 8.90335 2.23497 8.94427 2.11434C9.10655 1.62985 9.33735 0.950247 8.93821 0.537469C8.77374 0.367443 8.49564 0.37586 8.33016 0.537469C8.01014 0.849577 8.10424 1.2908 8.08118 1.70139C8.06603 1.97175 8.06569 2.33319 8.01552 2.65135C7.57901 2.78535 7.16253 2.95454 6.78746 3.16076C6.46744 3.33668 6.16324 3.54391 5.8705 3.76646C5.75057 3.51601 5.6379 3.26216 5.53263 3.00521C5.38802 2.65657 5.352 2.29952 5.15689 1.97344C5.00589 1.72092 4.56954 1.67833 4.42998 1.97344C4.05323 2.76953 4.75472 3.59424 5.42169 4.13547C4.68536 4.78813 4.07613 5.5753 3.66924 6.42308C3.52366 6.64249 3.39415 6.87215 3.28172 7.11026C3.14889 7.06969 3.01607 7.02928 2.88577 6.98316C2.79949 6.95262 2.72004 6.90544 2.65194 6.84428C2.63104 6.81822 2.60932 6.79285 2.5868 6.76818C2.58174 6.76633 2.56929 6.75337 2.55329 6.73098C2.54227 6.71884 2.53099 6.70695 2.51946 6.69529C2.53596 6.71011 2.54 6.71549 2.55043 6.72576C2.53978 6.71143 2.53085 6.69589 2.52383 6.67947C2.39623 6.35978 2.06712 6.26989 1.7976 6.48772C1.31597 6.87693 1.58027 7.57084 2.07705 7.78784C2.36441 7.91325 2.67013 7.95854 2.97769 7.95719C2.78342 8.73915 2.8218 9.54938 3.16472 10.3423C3.05546 10.3557 2.94688 10.3717 2.84167 10.385C2.67703 10.4059 2.54117 10.4367 2.40162 10.4283C2.36324 10.4226 2.28294 10.412 2.23597 10.4044C2.22657 10.4016 2.21708 10.3992 2.20752 10.3972C2.2087 10.397 2.20617 10.3963 2.20987 10.3963C2.2087 10.3963 2.20769 10.397 2.20651 10.3968C2.07268 10.367 1.92083 10.3961 1.78161 10.5049C1.56832 10.6714 1.53953 10.9882 1.67151 11.2126C1.75383 11.3527 1.90467 11.4613 2.06005 11.5038C2.2188 11.5476 2.34994 11.5112 2.49454 11.4469C2.32586 11.5219 2.5437 11.4269 2.59774 11.4027C2.8718 11.2801 3.19384 11.0997 3.51352 10.9939C3.67951 11.2441 3.89095 11.4892 4.12612 11.7311C2.30095 12.2259 0.737041 13.6026 0.536208 15.7301C-0.134639 22.8355 8.66533 22.0497 13.2963 22.4833C19.2741 23.0433 29.957 26.2536 32.2808 18.1909C32.9286 15.9437 32.1031 13.6755 30.2888 12.2853ZM9.37085 13.1484C8.34329 11.8994 6.69352 11.403 5.09443 11.5574C5.08332 11.5348 5.07945 11.5124 5.06279 11.4897C3.24266 9.01119 4.39682 6.52156 6.80514 5.00445C8.91919 3.67269 11.1913 3.787 12.9764 5.10664C13.1867 5.52514 13.3742 5.97445 13.6001 6.40709C10.9253 7.53987 8.91902 9.89044 9.37085 13.1484ZM29.6235 20.4151C26.3548 24.1136 18.2895 21.8314 14.1314 21.3154C10.5915 20.876 6.5166 21.5933 3.35124 19.6225C-1.68188 16.4892 6.00769 9.26673 9.46614 14.8571C9.65805 15.1673 10.1461 15.0246 10.1607 14.7012C10.2274 14.6564 10.2735 14.5844 10.2639 14.4778C9.91477 10.5953 11.9869 7.77858 15.7938 6.91212C19.8613 5.9864 23.1262 8.60464 22.9765 12.7496C22.9627 13.129 23.2214 13.3299 23.5093 13.3595C23.3664 13.9241 24.1007 14.3357 24.4598 13.7872C26.1105 11.2685 29.9895 12.8864 30.9093 15.1165C31.6554 16.9262 30.8403 19.0385 29.6235 20.4151Z" fill="white"/>
<path d="M13.2434 0.443446C12.7929 0.436881 12.535 0.803869 12.3396 1.16496C12.1384 1.53683 12.1362 1.91527 12.0431 2.31205C11.9814 2.57501 12.3805 2.77197 12.4982 2.5038C12.6142 2.23933 12.8037 1.97874 12.9741 1.74524C13.1877 1.45249 13.5064 1.30452 13.6276 0.947634C13.7124 0.697139 13.4902 0.44715 13.2434 0.443446Z" fill="white"/>
</svg>
