<svg width="25" height="25" viewBox="0 0 25 25" fill="none" xmlns="http://www.w3.org/2000/svg">
<path d="M19.5586 17.2553C20.1908 17.2174 20.8282 17.2166 21.4538 17.1304C21.9685 17.0595 22.4696 16.8889 22.9764 16.7602C23.2213 16.698 23.4615 16.6094 23.7097 16.5697C24.0731 16.5114 24.399 16.6102 24.6124 16.9305C24.8133 17.2319 24.7636 17.5438 24.6136 17.8582C23.8371 19.4865 22.6023 20.7179 21.1744 21.7628C19.4262 23.0422 17.4226 23.6917 15.293 23.9517C13.3262 24.1922 11.356 24.2006 9.40798 23.7671C6.5866 23.1392 4.15495 21.844 2.34986 19.5289C0.576192 17.254 -0.105953 14.6543 0.144575 11.7991C0.365407 9.17257 1.28419 6.6528 2.80581 4.50059C3.68354 3.24683 4.72819 2.14676 6.04398 1.33379C6.53956 1.02704 7.05576 0.773288 7.65525 0.74155C8.27634 0.709327 8.49255 1.01834 8.21753 1.57707C7.82506 2.37393 7.4885 3.18818 7.32417 4.0672C7.09733 5.27876 7.1753 6.47549 7.4471 7.67126C8.0329 10.2474 9.15584 12.5375 11.0236 14.4316C12.4998 15.9543 14.4698 16.9018 16.5808 17.1043C17.5684 17.2102 18.5631 17.2501 19.5546 17.3202C19.5557 17.2994 19.5572 17.2772 19.5586 17.2553ZM21.6867 19.0853L21.6076 18.9555C21.3209 18.9695 21.0326 18.9705 20.7475 18.9995C19.4858 19.1159 18.2159 19.1089 16.9557 18.9784C13.6844 18.6724 11.0244 17.2398 8.97588 14.6804C7.44006 12.7483 6.39193 10.4749 5.92009 8.05229C5.55614 6.25816 5.57112 4.49963 6.23796 2.773C6.25149 2.73836 6.22024 2.68632 6.19929 2.59836C5.9689 2.80136 5.75624 2.96907 5.56613 3.15902C2.94581 5.77627 1.61665 8.95048 1.55285 12.6411C1.50983 15.1096 2.29799 17.2865 3.99529 19.1156C5.50329 20.7406 7.3986 21.6536 9.52269 22.1308C11.5983 22.5972 13.6926 22.5554 15.7791 22.2101C17.4605 21.932 19.0229 21.3333 20.3761 20.2731C20.8391 19.911 21.2514 19.4833 21.6867 19.0853Z" fill="white"/>
</svg>
