<svg width="27" height="28" viewBox="0 0 27 28" fill="none" xmlns="http://www.w3.org/2000/svg">
<path d="M16.9619 7.98912C12.0672 5.35964 5.64327 10.112 5.96363 15.4766C5.91017 19.1446 8.89354 22.4529 12.6151 22.4375C19.9765 22.5 23.5553 11.8547 16.9619 7.98912ZM15.8264 18.7531C14.3039 20.0028 12.1048 20.4129 10.3934 19.2923C9.28866 18.5691 8.39601 17.1549 8.50249 15.7969C8.2936 12.8113 10.5615 9.74589 13.693 9.70873C18.503 9.6163 19.0553 16.2577 15.8264 18.7531ZM26.7707 14.1738C26.7821 13.8862 26.7139 13.601 26.5736 13.3496C26.3998 13.1425 26.1607 13.0006 25.8957 12.9472C25.0463 12.8025 24.1767 12.8251 23.336 13.0138C22.6146 13.1534 21.7709 13.1615 21.7908 14.1707C21.8162 15.4516 22.1252 15.4186 23.5136 15.4299C24.4144 15.4299 25.3122 15.3265 26.1893 15.1218C26.3827 15.058 26.5471 14.9278 26.6536 14.7542C26.76 14.5807 26.8015 14.3751 26.7707 14.1738ZM4.04963 7.97327C4.4076 8.30948 5.0012 9.05261 5.56443 8.99053C6.16256 8.92483 6.85176 8.28003 6.7779 7.63931C6.64851 7.2491 6.43151 6.89368 6.14353 6.6003C5.87736 6.23934 5.59601 5.88982 5.30026 5.55267C4.91782 5.11812 4.29251 4.54311 3.64862 4.7162C3.42577 4.76563 3.21831 4.86856 3.04416 5.01611C2.87 5.16366 2.73438 5.3514 2.64902 5.56309C2.29287 6.48022 3.49184 7.44809 4.04963 7.97327ZM23.2041 22.0854C22.3908 21.4216 21.1628 20.3236 20.2257 20.8379C19.7785 21.0831 19.3295 21.9812 19.6231 22.4397C19.8904 22.8 20.2416 23.0896 20.6462 23.2835C21.022 23.5155 21.4048 23.736 21.7945 23.945C22.9966 24.723 23.5014 24.6088 23.9536 23.761C24.3134 23.0868 23.8503 22.6119 23.2041 22.0854ZM12.4696 5.78059C12.6269 5.93717 12.8285 6.04159 13.0471 6.07969C13.2657 6.11778 13.4907 6.08772 13.6917 5.99356C14.5449 5.69586 14.3822 4.75291 14.3569 3.54759C14.3324 2.3672 14.307 1.68933 13.8874 1.2942C13.744 1.17804 13.5779 1.09293 13.3999 1.04425C13.2218 0.995584 13.0356 0.984414 12.8529 1.01145C11.9839 1.12111 11.8991 1.67664 12.0215 3.29656C12.0514 3.69123 12.2063 5.45887 12.4696 5.78059ZM13.3115 23.4221C12.2476 23.4783 12.2589 24.023 12.2661 24.5051C12.2825 25.439 12.3768 26.3699 12.548 27.2882C12.8031 28.4794 14.6111 28.0182 14.6804 27.0435C14.6965 26.1032 14.6388 25.1631 14.5078 24.2318C14.4516 23.7266 14.1593 23.3768 13.3115 23.4221ZM4.82312 15.7217C4.73249 14.66 4.61151 14.4906 2.43424 14.598C0.720071 14.6827 0.526587 14.897 0.334915 15.2224C0.197767 15.552 0.182348 15.9196 0.291415 16.2596C0.412852 16.9501 1.39024 17.0294 2.31235 16.9243C4.12938 16.7172 4.8929 16.5382 4.82312 15.7217ZM6.10184 21.5783C5.29926 22.0296 4.59516 22.6369 4.03106 23.3646C3.2612 24.1865 4.44295 25.5015 5.33606 24.8984C5.90412 24.4827 6.41376 23.9926 6.85131 23.4411C7.12657 23.1553 7.35531 22.8281 7.52918 22.4715C7.78202 21.9069 6.76657 21.2566 6.10184 21.5783ZM20.9254 8.47125C22.0795 8.09969 22.5598 7.24328 23.2925 6.38416C24.0048 5.54905 23.843 4.54356 22.833 4.36095C22.2322 4.27259 21.6182 4.98264 21.1932 5.3678C20.6503 5.85989 19.8945 6.47342 19.6933 7.15175C19.4962 7.81784 20.2688 8.68241 20.9254 8.47125Z" fill="white"/>
</svg>
