<svg width="42" height="46" viewBox="0 0 42 46"  xmlns="http://www.w3.org/2000/svg">
<path d="M39.5603 12.9206C39.2842 12.5487 38.8185 12.1007 38.3274 11.9275C38.2272 11.8508 38.1182 11.7864 38.0027 11.7357C36.2068 4.6028 26.5822 2.68705 21.5925 8.28088C19.5719 5.35759 15.1479 4.15965 11.6925 5.73636C8.25821 7.29869 5.98971 11.1186 6.04862 15.2418C6.09588 18.8494 8.72054 22.8322 11.2281 25.4377C10.839 27.7446 10.9514 27.2473 10.7199 28.3795C10.676 28.5918 10.6322 28.8055 10.5918 29.0199C9.15547 28.3672 8.27807 26.0603 7.73218 24.6275C6.85547 22.3596 6.41917 19.0521 6.12191 16.6261C5.72944 13.4165 5.75684 14.2288 5.72122 13.3795C5.68423 12.5494 5.62944 11.2953 4.60752 10.9603C4.05478 10.7788 3.51095 10.9151 3.05684 11.5083C2.513 11.711 2.01848 12.2754 1.73971 12.7261C1.28766 13.4555 1.08218 14.3083 0.919851 15.1507C-1.17398 26.0775 3.16232 37.3795 12.2623 44.0686C12.8582 44.5055 13.3322 44.7192 14.0959 44.924C16.0671 46.3521 20.6082 43.2405 19.3959 40.1679C19.0205 39.2096 18.7849 37.9494 18.5575 36.7309C18.0404 33.9651 17.8938 33.6487 17.089 32.0644C16.6527 31.2076 16.2411 30.3877 16.1267 29.4213C17.6931 30.4223 19.3458 31.2815 21.0651 31.9884C21.1288 32.0144 21.1952 32.0275 21.2623 32.0275C21.5959 32.0275 24.4178 30.8343 27.2418 28.959C27.3014 29.9603 27.2007 30.5569 27.0281 31.1809C26.2322 33.6329 26.0212 33.0405 25.5356 36.7953C25.3877 37.9384 25.2342 39.1192 24.9411 40.0254C24.4959 41.3651 25.6541 42.7932 26.7822 43.6096C27.7472 44.3096 28.6733 44.4685 29.613 44.2932C30.6014 44.2542 31.6397 43.7877 32.3959 43.1103C40.2466 36.1596 43.4493 25.2692 40.5397 15.1138C40.3116 14.3398 40.0459 13.5658 39.5603 12.9206ZM18.4404 40.5439C19.3157 42.7631 15.5548 45.0651 14.5705 43.9795C12.0109 41.1185 8.69725 37.5549 6.53013 33.9775C0.948618 24.8542 3.16369 15.161 3.10547 14.7918C3.21095 14.0583 3.5815 11.6987 4.2856 11.9357C4.76574 12.0932 4.64314 13.4768 4.74999 14.1316C5.21369 17.0596 5.51026 21.7281 6.77328 24.9953C7.40684 26.661 8.44108 29.3788 10.4418 30.0644C10.396 30.5364 10.4116 31.0123 10.4883 31.4802C10.5132 31.6136 10.5893 31.732 10.7002 31.8102C10.8111 31.8883 10.9482 31.9201 11.0822 31.8987C11.1487 31.8872 11.2122 31.8627 11.2692 31.8266C11.3262 31.7905 11.3756 31.7436 11.4144 31.6884C11.4533 31.6333 11.4809 31.571 11.4957 31.5052C11.5105 31.4394 11.5122 31.3713 11.5007 31.3049C11.3479 30.4247 11.5315 29.5316 11.7267 28.5864C12.3144 25.7179 12.6199 22.3227 13.026 21.6014C13.1753 21.3425 13.4582 21.0836 13.7555 21.0836C13.826 21.1076 14.113 21.0521 14.5431 21.5713C16.0568 23.4172 15.1562 26.335 15.0774 28.4836C14.9938 30.0959 15.4404 31.0877 16.1733 32.5302C17.7007 35.5357 17.4562 38.0357 18.4404 40.5439ZM21.2671 30.959C19.3781 30.1644 17.6918 29.2603 16.1267 28.2055C16.2842 25.748 17.0548 23.0151 15.3356 20.9179C14.2788 19.6439 12.8466 19.8562 12.1329 21.0925C11.7733 21.7316 11.713 22.4076 11.4315 24.1501C9.31095 21.7727 7.11574 18.2788 7.07533 15.2275C7.02328 11.5644 9.09656 8.04595 12.1178 6.67129C15.3445 5.19869 19.5315 6.4754 21.074 9.4028C21.114 9.47909 21.1726 9.54407 21.2444 9.59173C21.3162 9.63939 21.3988 9.6682 21.4847 9.6755C21.5706 9.68281 21.6569 9.66836 21.7357 9.63351C21.8145 9.59866 21.8832 9.54452 21.9356 9.47609C26.1733 3.93636 35.2027 5.39801 36.9575 11.8528C36.1068 12.4521 35.9226 14.1795 35.9137 14.2727C35.8 15.5747 36.0726 16.4323 36.0835 18.6466C35.0616 20.7973 33.3925 22.9124 31.4274 24.5727C31.2233 23.5453 31.087 22.5199 30.489 21.7377C29.2199 20.0802 26.763 20.6761 26.6226 23.4295C26.552 24.8939 26.8774 26.1781 27.1157 27.8035C25.0993 29.1802 23.3219 30.1425 21.2671 30.959ZM35.963 20.9658C35.6952 23.4316 34.9774 25.5329 33.8068 27.2261C33.5651 27.5836 33.2308 28.0275 32.7863 28.2877C32.524 28.4432 32.3705 28.5103 32.1637 28.5233C32.0129 27.5839 31.8428 26.6476 31.6534 25.7151C33.3358 24.3738 34.7909 22.7701 35.963 20.9658ZM25.9178 40.3466C26.4637 38.6576 26.5411 36.3364 26.902 34.6966C27.0459 34.0412 27.289 33.4138 27.5459 32.7494C27.6596 32.4583 27.9637 31.6768 28.0418 31.3713L27.5445 31.2446L28.0664 31.2857C28.8 28.4603 27.5246 26.0494 27.6493 23.4802C27.6849 22.7884 27.9931 21.9864 28.5877 21.8617C28.9438 21.7864 29.3897 21.9918 29.6733 22.3624C29.9883 22.7733 30.1308 23.3247 30.2383 23.861C30.7212 26.2275 31.1726 28.4679 31.3918 30.4994C31.4226 30.7816 31.6835 30.9857 31.9582 30.9549C32.0936 30.9399 32.2175 30.8718 32.3029 30.7657C32.3883 30.6595 32.4281 30.5239 32.4137 30.3884C32.3823 30.1059 32.3481 29.8237 32.3109 29.5418C32.6472 29.5083 32.9322 29.3953 33.3082 29.172C33.9274 28.809 34.3548 28.2494 34.6555 27.8069C38.2322 22.6275 36.7829 16.1432 36.9363 14.3672C37.0267 13.461 37.4267 12.6768 37.5801 12.6754C37.5801 12.6754 37.6637 12.6823 37.8192 12.8316L37.8233 12.8357C37.8541 12.9042 38.3568 13.111 38.8794 15.5425C40.2596 23.5021 39.6315 28.9987 34.6466 37.5083C33.5726 39.3507 32.0575 41.6555 29.839 43.1932C28.9199 43.4829 28.1226 43.3117 27.3842 42.7775C26.5007 42.1377 25.6651 41.1062 25.9178 40.3466ZM31.2014 0.719238H31.1972C31.0617 0.719234 30.9317 0.772791 30.8355 0.868241C30.7392 0.963691 30.6846 1.0933 30.6835 1.22883L30.6699 3.12609C30.6693 3.19361 30.6821 3.26057 30.7074 3.32314C30.7328 3.38572 30.7703 3.44268 30.8176 3.49078C30.865 3.53887 30.9214 3.57715 30.9836 3.60342C31.0458 3.62969 31.1126 3.64345 31.1801 3.6439H31.1835C31.3191 3.6439 31.4491 3.59034 31.5453 3.49489C31.6416 3.39944 31.6962 3.26983 31.6972 3.13431L31.7109 1.23705C31.7115 1.16959 31.6987 1.10268 31.6734 1.04015C31.6481 0.977615 31.6107 0.920681 31.5634 0.872598C31.5161 0.824515 31.4598 0.786223 31.3976 0.759909C31.3355 0.733596 31.2688 0.719776 31.2014 0.719238ZM34.7027 1.33979L33.3733 3.48979C33.3355 3.54714 33.3095 3.6115 33.297 3.67906C33.2845 3.74661 33.2857 3.81599 33.3005 3.88308C33.3153 3.95017 33.3434 4.01361 33.3831 4.06966C33.4229 4.1257 33.4734 4.1732 33.5318 4.20935C33.5903 4.24551 33.6553 4.26957 33.7232 4.28013C33.7911 4.29069 33.8604 4.28752 33.9271 4.27081C33.9937 4.25411 34.0563 4.22421 34.1112 4.18288C34.1661 4.14155 34.2121 4.08963 34.2466 4.0302L35.576 1.8802C35.6138 1.82284 35.6398 1.75848 35.6523 1.69092C35.6648 1.62337 35.6636 1.554 35.6488 1.4869C35.634 1.41981 35.6059 1.35637 35.5662 1.30033C35.5264 1.24428 35.4759 1.19678 35.4174 1.16063C35.359 1.12448 35.294 1.10041 35.2261 1.08985C35.1582 1.0793 35.0889 1.08247 35.0222 1.09917C34.9556 1.11587 34.893 1.14578 34.8381 1.18711C34.7832 1.22843 34.7372 1.28035 34.7027 1.33979ZM36.2897 5.42472C36.6246 5.42472 36.65 5.23088 38.6349 3.66102C38.7332 3.57262 38.7936 3.44979 38.8037 3.31802C38.8139 3.18624 38.7729 3.05562 38.6893 2.95326C38.6057 2.8509 38.4859 2.78464 38.3547 2.76823C38.2236 2.75182 38.0912 2.78652 37.9849 2.86513L35.9644 4.51376C35.5925 4.81787 35.8075 5.42472 36.2897 5.42472Z" />
<path d="M16.0294 8.61174C14.4527 8.43092 12.7383 9.15078 11.5568 10.4967C10.5952 11.5919 9.95271 13.0652 9.64929 14.8754C9.63652 14.9426 9.6373 15.0117 9.65158 15.0786C9.66586 15.1455 9.69335 15.2088 9.73245 15.265C9.77154 15.3211 9.82145 15.3688 9.87924 15.4054C9.93704 15.442 10.0016 15.4667 10.069 15.478C10.1365 15.4893 10.2055 15.487 10.2721 15.4713C10.3386 15.4556 10.4014 15.4267 10.4566 15.3864C10.5119 15.3461 10.5586 15.2952 10.5939 15.2366C10.6292 15.178 10.6525 15.113 10.6623 15.0453C11.3356 11.0405 13.8198 9.38366 15.9109 9.63229C16.0459 9.64628 16.181 9.60699 16.2875 9.52281C16.3939 9.43862 16.4633 9.31619 16.4808 9.1816C16.4886 9.11454 16.4832 9.04659 16.4647 8.98165C16.4462 8.9167 16.4152 8.85603 16.3732 8.8031C16.3313 8.75017 16.2794 8.70603 16.2204 8.6732C16.1614 8.64036 16.0965 8.61948 16.0294 8.61174Z" />
</svg>
